<?xml version="1.0" encoding="UTF-8"?>
<svg id="Layer_1" data-name="Layer 1" xmlns="http://www.w3.org/2000/svg" viewBox="0 0 32.5 32.5">
  <defs>
    <style>
      .cls-1 {
        fill: #fff;
      }

      .cls-2 {
        fill: #cedf9a;
      }

      .cls-3 {
        fill: #93c022;
      }

      .cls-4 {
        fill: #2b2522;
      }

      .cls-5 {
        fill: #1a1a1a;
      }
    </style>
  </defs>
  <g>
    <circle class="cls-3" cx="16.25" cy="11.99" r="11.21"/>
    <path class="cls-2" d="M11.51,15c-.31-.04-4.12-.6-5.12-3.31-.35-.95-.24-1.85-.15-2.56.23-1.85,1.1-3.09,2.11-4.51.87-1.23,1.59-1.84,2.25-2.29,0,0,.32-.21.69-.4,2.02-1.01,3.9-1.15,3.9-1.15.65-.05,1.22-.02,1.45,0,.07,0,.64.03,1.24.13.7.11,1.99.32,3.49,1.09.3.15,1.41.74,2.6,1.87.95.91,1.54,1.78,1.83,2.25.34.56.57,1.03.69,1.3.36.8.53,1.42.68,2.02.3,1.13.29,1.67.29,2.04,0,.12,0,.42-.15.78-.24.55-.71.84-.9.95-3.64,2.2-9.03,2.26-9.03,2.26-1.41.01-3.44-.06-5.87-.45Z"/>
    <path class="cls-4" d="M10.61,15.9c-.13-.47-.27-1.22-.15-2.11.01-.08.19-1.27.9-2.26.33-.45.62-.67.75-.75.23-.16.45-.25.6-.3l.45,3.91,6.32-.3.3-3.46s.6.15,1.2.9c.32.4.49.67.62.93.02.04.17.38.26.8.21.97-.01,1.92-.12,2.33l.27.45c.39-.33,1.03-.97,1.38-1.96.7-1.94-.23-3.71-.53-4.29-.66-1.26-1.56-1.96-1.96-2.26-1.94-1.47-4.04-1.5-4.67-1.5-.59,0-2.33.06-4.14,1.13-.5.3-1.97,1.24-2.71,2.71-.28.56-.43,1.06-.51,1.49-.1.55-.1,1-.09,1.22,0,.2.06,1.14.6,2.26.24.5.78,1.44,1.05,1.35.09-.03.13-.17.15-.3Z"/>
    <circle class="cls-4" cx="16.17" cy="3.56" r="2.11"/>
    <path class="cls-1" d="M21.29,19.97c.63-.26,1.56-.73,2.48-1.58.86-.79,1.4-1.6,1.71-2.18-.45,1.03-1.38,2.73-3.22,3.98-.47.32-.93.56-1.35.75.13-.33.25-.65.38-.98Z"/>
    <path class="cls-4" d="M10.61,15.15s-.45.75-.45,2.26.9,4.21,3.46,5.27,5.57,0,6.47-.6,1.66-1.66,2.11-3.16.15-3.01-.75-4.06c-.39-.45-.75-.77-1.13-1-.37-.23-.86-.46-1.73-.65-.79-.17-2.45-.32-4.51,0-.49.08-1.03.18-1.66.45-.72.31-1.09.64-1.2.75-.29.28-.48.55-.6.75Z"/>
    <ellipse class="cls-1" cx="16.25" cy="15.6" rx="4.74" ry="1.66"/>
    <path class="cls-4" d="M11.66,15.9c2.66-1.73,6.61-1.86,9.16.14-2.86-1.41-6.22-1.27-9.16-.14h0Z"/>
  </g>
  <g>
    <path class="cls-5" d="M5.36,24.4h1.63v.47h-1.08v.57h.92v.47h-.92v.96h-.56v-2.46Z"/>
    <path class="cls-5" d="M8.02,24.4h.67l.77,2.46h-.59l-.32-1.24c-.06-.25-.14-.53-.2-.79h-.02c-.06.26-.13.55-.19.79l-.32,1.24h-.57l.76-2.46ZM7.76,25.84h1.18v.43h-1.18v-.43Z"/>
    <path class="cls-5" d="M9.76,26.39h.57v-1.52h-.57v-.47h1.7v.47h-.57v1.52h.57v.47h-1.7v-.47Z"/>
    <path class="cls-5" d="M12,24.4h.87c.52,0,.95.18.95.77s-.43.81-.95.81h-.32v.88h-.56v-2.46ZM12.83,25.53c.29,0,.45-.12.45-.37s-.16-.32-.45-.32h-.27v.69h.27ZM13.15,25.47l.78,1.39h-.62l-.55-1.03.38-.36Z"/>
    <path class="cls-5" d="M17.1,24.87h-.74v-.47h2.03v.47h-.74v1.99h-.56v-1.99Z"/>
    <path class="cls-5" d="M18.77,24.4h.87c.52,0,.95.18.95.77s-.43.81-.95.81h-.32v.88h-.56v-2.46ZM19.6,25.53c.29,0,.45-.12.45-.37s-.16-.32-.45-.32h-.27v.69h.27ZM19.92,25.47l.78,1.39h-.62l-.55-1.03.38-.36Z"/>
    <path class="cls-5" d="M21.56,24.4h.67l.76,2.46h-.59l-.32-1.24c-.06-.25-.14-.53-.2-.79h-.01c-.06.26-.13.55-.19.79l-.32,1.24h-.57l.77-2.46ZM21.3,25.84h1.17v.43h-1.17v-.43Z"/>
    <path class="cls-5" d="M23.29,24.4h.68c.71,0,1.18.37,1.18,1.22s-.47,1.24-1.15,1.24h-.71v-2.46ZM23.93,26.41c.38,0,.64-.2.64-.79s-.26-.77-.64-.77h-.09v1.56h.09Z"/>
    <path class="cls-5" d="M25.63,24.4h1.63v.47h-1.07v.49h.91v.47h-.91v.57h1.11v.47h-1.67v-2.46Z"/>
    <path class="cls-5" d="M6.3,29.41c0-.81.52-1.29,1.17-1.29.31,0,.57.15.73.31l-.31.34c-.12-.11-.25-.18-.43-.18-.35,0-.6.3-.6.79s.25.8.63.8c.18,0,.32-.09.44-.22l.31.34c-.2.24-.48.36-.81.36-.61,0-1.14-.43-1.14-1.26Z"/>
    <path class="cls-5" d="M8.7,28.17h1.63v.47h-1.07v.49h.91v.47h-.91v.57h1.11v.47h-1.67v-2.46Z"/>
    <path class="cls-5" d="M10.87,28.17h.87c.52,0,.95.18.95.77s-.43.81-.95.81h-.32v.88h-.56v-2.46ZM11.7,29.3c.29,0,.45-.12.45-.37s-.16-.32-.45-.32h-.27v.69h.27ZM12.02,29.23l.78,1.39h-.62l-.55-1.03.38-.36Z"/>
    <path class="cls-5" d="M13.72,28.63h-.74v-.47h2.03v.47h-.74v1.99h-.56v-1.99Z"/>
    <path class="cls-5" d="M15.4,30.16h.57v-1.52h-.57v-.47h1.7v.47h-.57v1.52h.57v.47h-1.7v-.47Z"/>
    <path class="cls-5" d="M17.77,28.17h1.63v.47h-1.08v.57h.92v.47h-.92v.96h-.56v-2.46Z"/>
    <path class="cls-5" d="M19.92,30.16h.57v-1.52h-.57v-.47h1.7v.47h-.57v1.52h.57v.47h-1.7v-.47Z"/>
    <path class="cls-5" d="M22.24,28.17h1.63v.47h-1.07v.49h.91v.47h-.91v.57h1.11v.47h-1.67v-2.46Z"/>
    <path class="cls-5" d="M24.42,28.17h.68c.71,0,1.18.37,1.18,1.22s-.47,1.24-1.15,1.24h-.71v-2.46ZM25.06,30.17c.38,0,.64-.2.64-.79s-.26-.77-.64-.77h-.09v1.56h.09Z"/>
  </g>
</svg>