<?xml version="1.0" encoding="UTF-8"?>
<svg id="Layer_1" data-name="Layer 1" xmlns="http://www.w3.org/2000/svg" viewBox="0 0 32.5 32.5">
  <defs>
    <style>
      .cls-1 {
        stroke-miterlimit: 10;
        stroke-width: .12px;
      }

      .cls-1, .cls-2 {
        fill: none;
        stroke: #fff;
      }

      .cls-3 {
        font-family: Roboto-Medium, Roboto;
        font-size: 2.27px;
        font-weight: 500;
      }

      .cls-3, .cls-4 {
        fill: #fff;
      }

      .cls-2 {
        stroke-linecap: round;
        stroke-linejoin: round;
        stroke-width: 1.25px;
      }

      .cls-5 {
        fill: #285d4d;
      }

      .cls-4 {
        font-family: Charter-Bold, Charter;
        font-size: 9.34px;
        font-weight: 700;
      }
    </style>
  </defs>
  <rect class="cls-5" x="-.37" y="-.43" width="33.24" height="33.24"/>
  <g>
    <path class="cls-2" d="M6.44,14.21c1.21,1.28,2.42,2.56,3.64,3.84.33-3.53,1.13-6.32,1.82-8.26,1.68-4.71,3.18-5.54,3.84-5.82.33-.14,2.05-.74,3.38-.05.06.03,1.28.69,1.71,1.92,0,0,.02.06.36,1.3.1,0,1.54-.1,2.34.99.49.66.48,1.41.47,1.61-.04.71-.41,1.24-.52,1.45s-.31.42-.31.42c.24.06,1.26.33,1.82,1.3.69,1.2.28,2.79-.68,3.58-.88.72-2,.61-2.34.57-.47-.05-.77-.18-2.44-.88v3.32h-3.25v-3.22h-3.09"/>
    <text class="cls-4" transform="translate(9.65 28.32)"><tspan x="0" y="0">FSC</tspan></text>
  </g>
  <g>
    <circle class="cls-1" cx="24.21" cy="4.61" r="1.23"/>
    <text class="cls-3" transform="translate(23.51 5.4)"><tspan x="0" y="0">R</tspan></text>
  </g>
</svg>