<?xml version="1.0" encoding="UTF-8"?>
<svg id="Layer_1" data-name="Layer 1" xmlns="http://www.w3.org/2000/svg" viewBox="0 0 32.5 32.5">
  <defs>
    <style>
      .cls-1 {
        letter-spacing: -.03em;
      }

      .cls-1, .cls-2, .cls-3, .cls-4 {
        font-family: MontserratRoman-Regular, Montserrat;
        font-variation-settings: 'wght' 400;
      }

      .cls-5 {
        font-size: 3.87px;
      }

      .cls-5, .cls-6 {
        fill: #39b54a;
      }

      .cls-2 {
        letter-spacing: .03em;
      }

      .cls-3 {
        letter-spacing: .01em;
      }

      .cls-7, .cls-8 {
        font-family: MontserratRoman-Bold, Montserrat;
        font-variation-settings: 'wght' 700;
        font-weight: 700;
      }

      .cls-8 {
        letter-spacing: -.01em;
      }
    </style>
  </defs>
  <path class="cls-6" d="M16.59,15.96v-3.34h8.5c.17.69.81,3.66-.93,6.49-2.17,3.54-6.25,3.9-6.99,3.96-2.5.22-4.7-.6-6.06-1.51-1.31-.88-2.21-2.1-2.21-2.1-.15-.2-.46-.63-.76-1.22-.96-1.88-.99-3.68-.99-4.48,0-.85,0-2.37.76-4.13.3-.69,1.21-2.76,3.49-4.19,2.23-1.4,4.43-1.36,5.3-1.34.54.01,1.53.03,2.73.43,2.32.76,3.6,2.3,3.85,2.6.46.57.75,1.09.93,1.46-1.11.68-2.21,1.36-3.32,2.04-.31-.51-.94-1.38-2.04-2.04-.49-.29-1.29-.77-2.39-.76-1.33.02-2.24.71-2.68,1.05-1.7,1.31-2.1,3.23-2.18,3.76,0,0-.38,2.27.96,4.45.52.86,1.08,1.27,1.21,1.36.32.24.71.45,1.24.62,1.51.47,3.38.12,4.08-.35s1.05-1.28,1.16-1.63.12-1.16.12-1.16l-3.78.06Z"/>
  <text class="cls-5" transform="translate(2.25 27.42)"><tspan class="cls-7" x="0" y="0">G</tspan><tspan class="cls-8" x="2.98" y="0">L</tspan><tspan class="cls-7" x="5.27" y="0">OBAL</tspan><tspan class="cls-3" x="16.8" y="0">G</tspan><tspan class="cls-2" x="19.83" y="0">.A</tspan><tspan class="cls-4" x="23.69" y="0">.</tspan><tspan class="cls-1" x="24.51" y="0">P</tspan><tspan class="cls-4" x="27.18" y="0">.</tspan></text>
</svg>