<?xml version="1.0" encoding="UTF-8"?>
<svg id="Layer_1" data-name="Layer 1" xmlns="http://www.w3.org/2000/svg" xmlns:xlink="http://www.w3.org/1999/xlink" viewBox="0 0 32.5 32.5">
  <defs>
    <style>
      .cls-1 {
        fill: url(#radial-gradient);
        stroke: #fff;
        stroke-miterlimit: 10;
        stroke-width: .24px;
      }

      .cls-2 {
        font-family: ArchivoNarrow-Bold, 'Archivo Narrow';
        font-size: 2.39px;
        font-variation-settings: 'wght' 700;
        font-weight: 700;
      }

      .cls-2, .cls-3 {
        fill: #fff;
      }

      .cls-4 {
        fill-rule: evenodd;
      }

      .cls-4, .cls-5 {
        fill: #016736;
      }

      .cls-6 {
        fill: #fefefe;
      }

      .cls-3 {
        font-family: Roboto-Regular, Roboto;
        font-size: 2px;
      }

      .cls-7 {
        letter-spacing: .05em;
      }

      .cls-8 {
        letter-spacing: .04em;
      }
    </style>
    <radialGradient id="radial-gradient" cx="16.25" cy="16.25" fx="16.25" fy="16.25" r="14.08" gradientUnits="userSpaceOnUse">
      <stop offset=".63" stop-color="#38923e"/>
      <stop offset="1" stop-color="#016736"/>
    </radialGradient>
  </defs>
  <polygon class="cls-4" points="4.24 5.66 4.22 6.97 3.01 7.25 3.15 8.55 1.99 8.98 2.29 10.26 1.19 10.83 1.65 12.05 .63 12.76 1.24 13.92 .31 14.74 1.06 15.82 .25 16.75 1.13 17.72 .44 18.75 1.43 19.61 .88 20.72 1.97 21.44 1.56 22.61 2.73 23.19 2.47 24.4 3.71 24.83 3.6 26.06 4.88 26.33 4.93 27.57 6.23 27.68 6.44 28.9 7.75 28.84 8.1 30.03 9.39 29.81 9.89 30.94 11.14 30.56 11.78 31.62 12.98 31.09 13.75 32.06 14.86 31.38 15.75 32.25 16.77 31.44 17.76 32.19 18.67 31.25 19.74 31.87 20.53 30.83 21.67 31.31 22.32 30.18 23.52 30.51 24.02 29.31 25.25 29.49 25.6 28.23 26.84 28.26 27.03 26.96 28.26 26.84 28.28 25.53 29.49 25.25 29.35 23.95 30.51 23.52 30.21 22.24 31.31 21.67 30.85 20.45 31.87 19.74 31.26 18.58 32.19 17.76 31.44 16.68 32.25 15.75 31.37 14.78 32.06 13.75 31.07 12.89 31.62 11.78 30.53 11.06 30.94 9.89 29.77 9.31 30.03 8.1 28.79 7.67 28.9 6.44 27.62 6.17 27.57 4.93 26.27 4.82 26.06 3.6 24.75 3.66 24.4 2.47 23.11 2.69 22.61 1.56 21.36 1.94 20.72 .88 19.52 1.41 18.75 .44 17.64 1.12 16.75 .25 15.73 1.06 14.74 .31 13.83 1.25 12.76 .63 11.97 1.67 10.83 1.19 10.18 2.32 8.98 1.99 8.48 3.19 7.25 3.01 6.9 4.27 5.66 4.24 5.47 5.54 4.24 5.66 4.24 5.66"/>
  <circle class="cls-1" cx="16.25" cy="16.25" r="14.08"/>
  <circle class="cls-5" cx="16.25" cy="16.25" r="8.59"/>
  <g>
    <g>
      <path class="cls-6" d="M12.37,12.13c-.08-.11-.05-.25,0-.48.09-.4.13-.6.18-.6.06,0,.02.2.18.36.12.12.6.24.6.24,0,0,0,.6-.12.72s-.24,0-.24,0c.16,1.19.32,2.39.48,3.58.02.16.07.65-.24,1.07-.28.39-.69.51-.95.6-.14.04-.42.12-.84.12-.45,0-1.67,0-2.03-.72,0,0-.23-.47-.06-1.25.05-.23.12-.39.18-.54.23-.55.57-.97.6-.95.01,0-.04.1-.18.42-.33.75-.35.98-.36,1.07-.01.18-.02.35.06.54.19.44.72.58,1.01.66.14.04.61.15,1.19,0,.35-.09.83-.21,1.07-.6.13-.21.02-.71-.06-1.73-.05-.68-.19-1.35-.24-2.03,0-.07-.01-.23-.12-.36-.05-.07-.08-.06-.12-.12Z"/>
      <path class="cls-6" d="M14.98,13.13c.08-.02.13-.05.13-.05.13-.12.13-.24.37-.12.4.2,1.31,1.67,1.31,1.67v-.72s0-.24-.48-.84c-.34-.43-.63-.66-1.19-1.07-.06-.04-.41-.3-.84-.36-.11-.02-.23-.02-.3.05-.02.02-.08.09-.06.31,0,.08.06.38.36.72.19.22.5.46.69.41Z"/>
      <path class="cls-6" d="M13.64,16.77s.04.01.05.01c.24,0,1.43,0,2.03-.12s.95-.57,1.07-.7.72-1.33.72-1.33c.02.09.04.24.06.42.09.75,0,1.07.24,1.31.05.06.14.13.3.18h5.13v-.67h-.36c-.47-.54-.91-.92-1.25-1.18-.82-.63-1.18-.66-1.37-.66-.12,0-.48.02-.78.3-.2.19-.27.42-.3.54.62-.06,1.07.06,1.37.18.25.1.42.22,1.25.78h-3.46s-.12,0-.24-.24-.6-4.18-.6-4.18l-.36.72s.36,1.43.12,2.03c-.13.34-.3.62-.47.85-.07.1-.31.41-.68.71-1.07.86-2.49.99-2.48,1.06Z"/>
    </g>
    <text class="cls-2" transform="translate(12.71 20.72)"><tspan class="cls-7" x="0" y="0">HALA</tspan><tspan class="cls-8" x="5.91" y="0">L</tspan></text>
  </g>
  <text class="cls-3" transform="translate(14.86 27.18) rotate(-169.88)"><tspan x="0" y="0">1</tspan></text>
  <text class="cls-3" transform="translate(13.79 26.99) rotate(-164.27)"><tspan x="0" y="0">0</tspan></text>
  <text class="cls-3" transform="translate(12.74 26.69) rotate(-158.52)"><tspan x="0" y="0">0</tspan></text>
  <text class="cls-3" transform="translate(11.72 26.31) rotate(-151.96)"><tspan x="0" y="0">%</tspan></text>
  <text class="cls-3" transform="translate(10.48 25.62) rotate(-147.04)"><tspan x="0" y="0"> </tspan></text>
  <text class="cls-3" transform="translate(10.07 25.39) rotate(-142.18)"><tspan x="0" y="0">H</tspan></text>
  <text class="cls-3" transform="translate(8.98 24.53) rotate(-135.29)"><tspan x="0" y="0">A</tspan></text>
  <text class="cls-3" transform="translate(8.08 23.64) rotate(-129.3)"><tspan x="0" y="0">L</tspan></text>
  <text class="cls-3" transform="translate(7.41 22.84) rotate(-123.32)"><tspan x="0" y="0">A</tspan></text>
  <text class="cls-3" transform="translate(6.72 21.77) rotate(-117.32)"><tspan x="0" y="0">L</tspan></text>
  <text class="cls-3" transform="translate(6.24 20.83) rotate(-113.36)"><tspan x="0" y="0"> </tspan></text>
  <text class="cls-3" transform="translate(6.04 20.41) rotate(-108.84)"><tspan x="0" y="0">C</tspan></text>
  <text class="cls-3" transform="translate(5.64 19.23) rotate(-102.7)"><tspan x="0" y="0">E</tspan></text>
  <text class="cls-3" transform="translate(5.39 18.15) rotate(-96.66)"><tspan x="0" y="0">R</tspan></text>
  <text class="cls-3" transform="translate(5.26 17.04) rotate(-90.91)"><tspan x="0" y="0">T</tspan></text>
  <text class="cls-3" transform="translate(5.25 15.88) rotate(-86.58)"><tspan x="0" y="0">I</tspan></text>
  <text class="cls-3" transform="translate(5.26 15.36) rotate(-81.66)"><tspan x="0" y="0">F</tspan></text>
  <text class="cls-3" transform="translate(5.42 14.3) rotate(-78.43)"><tspan x="0" y="0">I</tspan></text>
  <text class="cls-3" transform="translate(5.51 13.8) rotate(-74.27)"><tspan x="0" y="0">E</tspan></text>
  <text class="cls-3" transform="translate(5.81 12.73) rotate(-67.99)"><tspan x="0" y="0">D</tspan></text>
  <text class="cls-3" transform="translate(6.3 11.54) rotate(-63.37)"><tspan x="0" y="0"> </tspan></text>
  <text class="cls-3" transform="translate(6.5 11.13) rotate(-60.02)"><tspan x="0" y="0">*</tspan></text>
  <text class="cls-3" transform="translate(6.93 10.4) rotate(-56.52)"><tspan x="0" y="0"> </tspan></text>
  <text class="cls-3" transform="translate(7.17 10.01) rotate(-52.53)"><tspan x="0" y="0">1</tspan></text>
  <text class="cls-3" transform="translate(7.83 9.14) rotate(-46.85)"><tspan x="0" y="0">0</tspan></text>
  <text class="cls-3" transform="translate(8.58 8.34) rotate(-41.19)"><tspan x="0" y="0">0</tspan></text>
  <text class="cls-3" transform="translate(9.39 7.62) rotate(-34.69)"><tspan x="0" y="0">%</tspan></text>
  <text class="cls-3" transform="translate(10.56 6.84) rotate(-29.91)"><tspan x="0" y="0"> </tspan></text>
  <text class="cls-3" transform="translate(10.95 6.59) rotate(-25.09)"><tspan x="0" y="0">H</tspan></text>
  <text class="cls-3" transform="translate(12.21 6) rotate(-18.15)"><tspan x="0" y="0">A</tspan></text>
  <text class="cls-3" transform="translate(13.43 5.6) rotate(-12)"><tspan x="0" y="0">L</tspan></text>
  <text class="cls-3" transform="translate(14.45 5.38) rotate(-5.95)"><tspan x="0" y="0">A</tspan></text>
  <text class="cls-3" transform="translate(15.69 5.25) rotate(-.02)"><tspan x="0" y="0">L</tspan></text>
  <text class="cls-3" transform="translate(16.75 5.26) rotate(3.96)"><tspan x="0" y="0"> </tspan></text>
  <text class="cls-3" transform="translate(17.23 5.28) rotate(8.49)"><tspan x="0" y="0">C</tspan></text>
  <text class="cls-3" transform="translate(18.46 5.46) rotate(14.47)"><tspan x="0" y="0">E</tspan></text>
  <text class="cls-3" transform="translate(19.52 5.73) rotate(20.4)"><tspan x="0" y="0">R</tspan></text>
  <text class="cls-3" transform="translate(20.59 6.12) rotate(26.28)"><tspan x="0" y="0">T</tspan></text>
  <text class="cls-3" transform="translate(21.62 6.65) rotate(30.69)"><tspan x="0" y="0">I</tspan></text>
  <text class="cls-3" transform="translate(22.05 6.89) rotate(34.7)"><tspan x="0" y="0">F</tspan></text>
  <text class="cls-3" transform="translate(22.93 7.51) rotate(38.86)"><tspan x="0" y="0">I</tspan></text>
  <text class="cls-3" transform="translate(23.35 7.83) rotate(43.17)"><tspan x="0" y="0">E</tspan></text>
  <text class="cls-3" transform="translate(24.16 8.58) rotate(49.33)"><tspan x="0" y="0">D</tspan></text>
  <text class="cls-3" transform="translate(24.98 9.55) rotate(53.77)"><tspan x="0" y="0"> </tspan></text>
  <text class="cls-3" transform="translate(25.26 9.93) rotate(57.19)"><tspan x="0" y="0">*</tspan></text>
  <text class="cls-3" transform="translate(25.72 10.65) rotate(60.61)"><tspan x="0" y="0"> </tspan></text>
  <text class="cls-3" transform="translate(25.95 11.03) rotate(64.57)"><tspan x="0" y="0">1</tspan></text>
  <text class="cls-3" transform="translate(26.42 12.02) rotate(70.28)"><tspan x="0" y="0">0</tspan></text>
  <text class="cls-3" transform="translate(26.78 13.03) rotate(75.88)"><tspan x="0" y="0">0</tspan></text>
  <text class="cls-3" transform="translate(27.06 14.07) rotate(82.43)"><tspan x="0" y="0">%</tspan></text>
  <text class="cls-3" transform="translate(27.23 15.5) rotate(87.45)"><tspan x="0" y="0"> </tspan></text>
  <text class="cls-3" transform="translate(27.27 15.97) rotate(92.31)"><tspan x="0" y="0">H</tspan></text>
  <text class="cls-3" transform="translate(27.21 17.36) rotate(99.13)"><tspan x="0" y="0">A</tspan></text>
  <text class="cls-3" transform="translate(27.01 18.59) rotate(105.01)"><tspan x="0" y="0">L</tspan></text>
  <text class="cls-3" transform="translate(26.74 19.62) rotate(111.12)"><tspan x="0" y="0">A</tspan></text>
  <text class="cls-3" transform="translate(26.28 20.8) rotate(117.16)"><tspan x="0" y="0">L</tspan></text>
  <text class="cls-3" transform="translate(25.79 21.74) rotate(121.21)"><tspan x="0" y="0"> </tspan></text>
  <text class="cls-3" transform="translate(25.56 22.14) rotate(125.75)"><tspan x="0" y="0">C</tspan></text>
  <text class="cls-3" transform="translate(24.84 23.15) rotate(131.79)"><tspan x="0" y="0">E</tspan></text>
  <text class="cls-3" transform="translate(24.1 23.98) rotate(137.79)"><tspan x="0" y="0">R</tspan></text>
  <text class="cls-3" transform="translate(23.28 24.73) rotate(143.44)"><tspan x="0" y="0">T</tspan></text>
  <text class="cls-3" transform="translate(22.35 25.41) rotate(147.7)"><tspan x="0" y="0">I</tspan></text>
  <text class="cls-3" transform="translate(21.91 25.7) rotate(151.9)"><tspan x="0" y="0">F</tspan></text>
  <text class="cls-3" transform="translate(20.94 26.21) rotate(156.13)"><tspan x="0" y="0">I</tspan></text>
  <text class="cls-3" transform="translate(20.49 26.42) rotate(160.29)"><tspan x="0" y="0">E</tspan></text>
  <text class="cls-3" transform="translate(19.47 26.79) rotate(166.41)"><tspan x="0" y="0">D</tspan></text>
  <text class="cls-3" transform="translate(18.22 27.08) rotate(171.02)"><tspan x="0" y="0"> </tspan></text>
  <text class="cls-3" transform="translate(17.76 27.16) rotate(174.41)"><tspan x="0" y="0">*</tspan></text>
  <text class="cls-3" transform="translate(16.93 27.24) rotate(177.82)"><tspan x="0" y="0"> </tspan></text>
</svg>