<?xml version="1.0" encoding="UTF-8"?>
<svg id="Layer_1" data-name="Layer 1" xmlns="http://www.w3.org/2000/svg" xmlns:xlink="http://www.w3.org/1999/xlink" viewBox="0 0 33 33">
  <defs>
    <style>
      .cls-1 {
        fill: none;
        stroke: #729449;
        stroke-width: .15px;
      }

      .cls-1, .cls-2 {
        stroke-miterlimit: 10;
      }

      .cls-3 {
        fill: url(#radial-gradient-3);
      }

      .cls-4 {
        fill: url(#radial-gradient-2);
      }

      .cls-5 {
        fill: url(#radial-gradient);
      }

      .cls-6 {
        fill: url(#linear-gradient);
      }

      .cls-2 {
        fill: url(#linear-gradient-2);
        stroke: #fff;
        stroke-width: .44px;
      }

      .cls-7 {
        fill: #517f1c;
      }

      .cls-8, .cls-9 {
        fill: #fff;
      }

      .cls-9 {
        font-family: Roboto-Bold, Roboto;
        font-size: 2.75px;
        font-weight: 700;
      }
    </style>
    <linearGradient id="linear-gradient" x1="11.01" y1="6.06" x2="27.82" y2="38.06" gradientUnits="userSpaceOnUse">
      <stop offset="0" stop-color="#a2bd76"/>
      <stop offset="1" stop-color="#648940"/>
    </linearGradient>
    <linearGradient id="linear-gradient-2" x1="16.57" y1="5.8" x2="16.37" y2="35.4" gradientUnits="userSpaceOnUse">
      <stop offset="0" stop-color="#a2bd76"/>
      <stop offset=".71" stop-color="#75974e"/>
      <stop offset="1" stop-color="#5e843a"/>
    </linearGradient>
    <radialGradient id="radial-gradient" cx="19.57" cy="15.3" fx="19.57" fy="15.3" r="4.31" gradientUnits="userSpaceOnUse">
      <stop offset="0" stop-color="#a2bd76"/>
      <stop offset="1" stop-color="#648940"/>
    </radialGradient>
    <radialGradient id="radial-gradient-2" cx="16.79" cy="13.45" fx="8.95" fy="13.45" r="7.83" xlink:href="#radial-gradient"/>
    <radialGradient id="radial-gradient-3" cx="14.54" cy="18.09" fx="14.54" fy="18.09" r="4.33" gradientUnits="userSpaceOnUse">
      <stop offset="0" stop-color="#a2bd76"/>
      <stop offset="1" stop-color="#648940"/>
    </radialGradient>
  </defs>
  <circle class="cls-6" cx="16.5" cy="16.5" r="16.02"/>
  <circle class="cls-2" cx="16.5" cy="16.5" r="14.8"/>
  <circle class="cls-8" cx="16.5" cy="16.5" r="9.61"/>
  <g>
    <path class="cls-5" d="M18.7,21.35c.32-.29.75-.7,1.22-1.22.54-.58,1.14-1.25,1.75-2.21.42-.66.8-1.25,1.07-2.14.29-.93.32-1.74.31-2.29,0,0-.08.42-.23.97-.07.25-.27.92-.69,1.77-.55,1.14-1.15,1.94-1.53,2.44-.23.3-.31.4-1.37,1.68,0,0,.31-.76.31-1.37s-.19-1.3-.4-1.56c-.21-.27-.36-.72-.06-1.03s.61,0,.76.15.15.46.31.61.31,0,.15-.76-.31-1.53-.15-2.29.74-.24.74-.24c0,0,.48,1,.63.69s.15-1.07-.15-1.37-.31-1.07,0-1.22.61,0,.76.31.31.15.31-.15c0-.64.03-.73.13-.88.17-.25.62-.32.94-.18.26.11.39.34.46.46.33.61.05,1.37.31,1.37.31,0,.46-.15.61.15s-.15.92-.46,1.37-.9.76-.76,1.07c.15.31.7.31,1.03,0s.51.35.34.71-.62.82-.93.97c-.28.14-1.07.28-1.08.54,0,.03,0,.06.02.07.14.32,1,0,1.24.33.13.17.01.43-.02.58-.15.61-1.98,1.53-1.98,1.53l-3.59,1.14Z"/>
    <path class="cls-4" d="M16.33,20.96c-.09-1.25-.14-2.58-.15-3.97-.01-2.03.08-3.94.23-5.69,0,1.76.03,3.56.08,5.39.04,1.5.09,2.97.15,4.43.32-.26.59-.47.76-.61.95-.76,1.49-1.08,1.68-1.68.07-.23.05-.37,0-.46-.11-.19-.32-.15-.61-.31-.28-.15-.58-.45-.61-.76-.02-.24.15-.42.46-.76.66-.74,1-1.11,1.22-1.53.07-.12.59-1.09.23-1.5-.08-.09-.17-.12-.23-.14-.61-.19-1.48.52-1.43.32.05-.2-.36-.34,0-.8.36-.47.97-1.69.97-2.3s-.15-1.07-.61-1.07-.76.61-.92.61-.31.15-.31-.15.31-2.14-.15-2.59-.92-.31-1.07-.15-.46.31-.46,1.07.15,1.98-.15,1.83-.92-.76-1.22-.61-.61.46-.46,1.07.92,2.14.92,2.14c0,0,.46.61.15.76s-1.53-.31-1.68.15,0,.92.15,1.37c.05.16.12.31.2.45.1.18.25.38.61.72.56.52.75.5.87.82.02.06.13.35,0,.61-.09.17-.24.27-.31.31-.19.11-.24.07-.46.15-.21.08-.43.27-.48.5,0,0-.02.12.02.26.16.52,2.42,2.02,2.59,2.14Z"/>
    <path class="cls-3" d="M14.25,21.35c-.47-.4-1.09-.99-1.73-1.75-.47-.57-1.21-1.46-1.83-2.75-.82-1.72-1.03-3.3-.97-3.32.05-.01.25,1.06.97,2.55.3.61.88,1.71,1.83,2.9.61.76,1.22,1.37,1.22,1.37,0,0-.31-.31-.31-1.22s-.01-1.26.3-1.7c.31-.44.31-.74.16-1.05s-.74-.13-.83.24-.39.68-.55.52,0-.92.15-1.37.31-1.37,0-1.83-.63-.15-.85.15-.52.61-.52.31,0-.46.15-.92.31-1.07.15-1.37-.61-.31-.76-.15-.46.76-.46.46.28-1.28-.55-1.4c-.82-.12-1.13.49-1.13.79s.15,1.02,0,.97c-.15-.05-.76-.21-.76.56s.92,1.53.92,1.53c0,0,.58.46.29.61-.29.15-1.08-.31-1.29,0-.22.31-.22.76.24,1.22s1.22.61,1.53.76.31.46-.15.46-1.07-.15-.92.61c.17.87,1.68,1.57,2.29,1.83.77.33,1.91.75,3.41.99Z"/>
    <g>
      <path class="cls-8" d="M27.35,26.01c-7.23-1.58-14.48-1.58-21.71,0-.32-1.29-.63-2.58-.92-3.87,7.87-1.71,15.69-1.71,23.56,0-.3,1.29-.6,2.58-.92,3.87Z"/>
      <path class="cls-1" d="M27.35,26.01c-7.23-1.58-14.48-1.58-21.71,0-.32-1.29-.63-2.58-.92-3.87,7.87-1.71,15.69-1.71,23.56,0-.3,1.29-.6,2.58-.92,3.87Z"/>
    </g>
    <g>
      <path class="cls-7" d="M7.05,24.36c.24-.05.47-.09.71-.14.02.09.03.18.05.27-.35.06-.69.13-1.04.2-.11-.53-.22-1.06-.33-1.59.11-.02.23-.05.34-.07.09.44.18.89.27,1.33Z"/>
      <path class="cls-7" d="M9.09,23.56c-.22.03-.43.07-.65.1.02.14.05.29.07.43.25-.04.5-.08.76-.12.01.09.03.18.04.27-.36.06-.72.11-1.09.18-.09-.53-.19-1.07-.28-1.6.37-.07.75-.13,1.12-.18.01.09.03.18.04.27-.26.04-.51.08-.77.12.02.13.04.25.06.38.22-.04.44-.07.65-.11.01.09.03.17.04.26Z"/>
      <path class="cls-7" d="M10.63,23.34c-.22.03-.44.05-.65.08.02.14.04.29.06.43.25-.03.51-.07.76-.1.01.09.02.18.03.27-.36.04-.73.09-1.09.14-.08-.54-.15-1.07-.23-1.61.37-.05.75-.1,1.12-.15.01.09.02.18.03.27-.26.03-.52.06-.77.1.02.13.03.26.05.38.22-.03.44-.06.66-.08.01.09.02.17.03.26Z"/>
      <path class="cls-7" d="M11.25,23.98c-.06-.54-.12-1.08-.18-1.62.17-.02.35-.04.52-.05.15-.01.28,0,.41.06.12.05.22.14.3.25.08.11.12.24.13.4,0,.02,0,.05,0,.07.01.15,0,.29-.06.41-.05.12-.13.22-.24.3-.11.08-.23.12-.38.14-.17.02-.34.03-.5.05ZM11.45,22.6c.04.36.07.72.11,1.08.05,0,.11-.01.16-.02.13-.01.23-.07.29-.16.06-.09.09-.22.07-.38,0-.03,0-.06,0-.09-.02-.16-.06-.29-.14-.36-.08-.08-.19-.11-.32-.1-.06,0-.11.01-.17.02Z"/>
      <path class="cls-7" d="M15.04,23.17c0,.18-.07.31-.18.42-.11.1-.27.16-.46.17-.21,0-.38-.05-.51-.19-.13-.13-.2-.32-.21-.57,0-.03,0-.07,0-.1,0-.16.01-.3.06-.42.05-.12.13-.22.23-.29.1-.07.23-.11.37-.11.19,0,.35.04.48.13.12.1.2.24.22.42-.11,0-.23,0-.34.01-.01-.11-.05-.18-.1-.22-.05-.04-.13-.07-.24-.06-.12,0-.2.05-.25.13-.05.08-.08.21-.07.38,0,.04,0,.08,0,.12,0,.18.04.3.1.38.06.08.15.11.26.11.1,0,.18-.03.23-.08.05-.05.08-.12.08-.22.11,0,.23,0,.34-.01Z"/>
      <path class="cls-7" d="M16.49,22.98c-.22,0-.44,0-.66,0,0,.15,0,.29,0,.44.25,0,.51,0,.76,0,0,.09,0,.18,0,.27-.37,0-.73,0-1.1.01-.01-.54-.02-1.08-.04-1.63.38,0,.75-.01,1.13-.01,0,.09,0,.18,0,.27-.26,0-.52,0-.78,0,0,.13,0,.26,0,.39.22,0,.44,0,.66,0,0,.09,0,.18,0,.26Z"/>
      <path class="cls-7" d="M17.66,23.11c-.09,0-.18,0-.27,0,0,.2,0,.4-.01.6-.11,0-.22,0-.34,0,0-.54.01-1.08.02-1.63.21,0,.42,0,.63.01.2,0,.35.05.46.14.11.09.16.21.15.37,0,.11-.03.2-.08.28-.05.07-.13.13-.23.17.11.23.23.45.34.68,0,0,0,.01,0,.02-.12,0-.24,0-.36-.01-.1-.2-.19-.4-.29-.6ZM17.39,22.83c.09,0,.18,0,.28,0,.09,0,.15-.02.2-.06.05-.04.07-.1.07-.17,0-.08-.02-.14-.06-.18-.04-.05-.11-.07-.21-.07-.09,0-.19,0-.28,0,0,.16,0,.33,0,.49Z"/>
      <path class="cls-7" d="M20,22.45c-.17-.01-.34-.02-.51-.03-.03.45-.05.9-.08,1.35-.11,0-.22-.01-.34-.02.02-.45.05-.9.07-1.35-.17,0-.34-.02-.51-.02,0-.09,0-.18.01-.27.46.02.92.04,1.38.08,0,.09-.01.18-.02.27Z"/>
      <path class="cls-7" d="M20.69,23.87c-.11,0-.22-.02-.34-.03.04-.54.09-1.08.13-1.62.12,0,.23.02.35.03-.05.54-.09,1.08-.14,1.62Z"/>
      <path class="cls-7" d="M22.29,23.36c-.22-.03-.44-.05-.65-.07-.02.22-.05.44-.07.66-.11-.01-.22-.02-.34-.03.05-.54.1-1.08.16-1.62.37.04.73.08,1.1.12-.01.09-.02.18-.03.27-.25-.03-.5-.06-.75-.08-.01.14-.03.28-.04.42.22.02.44.05.66.07-.01.09-.02.18-.03.27Z"/>
      <path class="cls-7" d="M23.07,24.13c-.11-.02-.22-.03-.33-.04.07-.54.14-1.08.21-1.61.12.01.23.03.35.05-.07.54-.15,1.07-.22,1.61Z"/>
      <path class="cls-7" d="M24.7,23.66c-.22-.04-.43-.07-.65-.11-.02.14-.04.29-.07.43.25.04.5.08.76.12l-.05.27c-.36-.06-.72-.12-1.09-.17.08-.54.16-1.07.24-1.61.37.06.75.11,1.12.18-.02.09-.03.18-.05.27-.26-.04-.51-.09-.77-.13-.02.13-.04.26-.06.38.22.03.44.07.65.11-.01.09-.03.17-.04.26Z"/>
      <path class="cls-7" d="M25.12,24.45c.1-.53.19-1.07.29-1.6.17.03.34.06.51.1.15.03.27.09.37.17.1.09.17.19.21.32.04.13.05.27.02.42,0,.02-.01.05-.02.07-.03.15-.09.27-.18.38-.09.1-.19.17-.32.22-.13.04-.26.05-.4.02-.17-.03-.33-.06-.5-.09ZM25.7,23.18c-.07.36-.13.71-.2,1.07.05.01.11.02.16.03.13.02.24,0,.32-.07.09-.07.15-.18.18-.34,0-.03.01-.06.02-.08.03-.16.02-.29-.03-.39-.05-.1-.15-.16-.28-.18-.06-.01-.11-.02-.17-.03Z"/>
    </g>
  </g>
  <text class="cls-9" transform="translate(5.72 20.67) rotate(-106.73)"><tspan x="0" y="0">U</tspan></text>
  <text class="cls-9" transform="translate(5.19 18.72) rotate(-99.16)"><tspan x="0" y="0">.</tspan></text>
  <text class="cls-9" transform="translate(5.01 17.72) rotate(-91.86)"><tspan x="0" y="0">S</tspan></text>
  <text class="cls-9" transform="translate(4.99 15.8) rotate(-84.48)"><tspan x="0" y="0">.</tspan></text>
  <text class="cls-9" transform="translate(5.1 14.77) rotate(-79.63)"><tspan x="0" y="0"> </tspan></text>
  <text class="cls-9" transform="translate(5.24 13.88) rotate(-72.24)"><tspan x="0" y="0">G</tspan></text>
  <text class="cls-9" transform="translate(5.91 11.89) rotate(-62.16)"><tspan x="0" y="0">R</tspan></text>
  <text class="cls-9" transform="translate(6.83 10.18) rotate(-53.06)"><tspan x="0" y="0">E</tspan></text>
  <text class="cls-9" transform="translate(7.92 8.77) rotate(-44.19)"><tspan x="0" y="0">E</tspan></text>
  <text class="cls-9" transform="translate(9.17 7.55) rotate(-34.44)"><tspan x="0" y="0">N</tspan></text>
  <text class="cls-9" transform="translate(10.97 6.38) rotate(-26.88)"><tspan x="0" y="0"> </tspan></text>
  <text class="cls-9" transform="translate(11.79 5.95) rotate(-19.72)"><tspan x="0" y="0">B</tspan></text>
  <text class="cls-9" transform="translate(13.64 5.3) rotate(-9.88)"><tspan x="0" y="0">U</tspan></text>
  <text class="cls-9" transform="translate(15.66 5) rotate(-2.21)"><tspan x="0" y="0">I</tspan></text>
  <text class="cls-9" transform="translate(16.68 4.95) rotate(4.64)"><tspan x="0" y="0">L</tspan></text>
  <text class="cls-9" transform="translate(18.38 5.09) rotate(13.82)"><tspan x="0" y="0">D</tspan></text>
  <text class="cls-9" transform="translate(20.32 5.62) rotate(21.36)"><tspan x="0" y="0">I</tspan></text>
  <text class="cls-9" transform="translate(21.28 5.97) rotate(29.21)"><tspan x="0" y="0">N</tspan></text>
  <text class="cls-9" transform="translate(23.15 7.04) rotate(39.71)"><tspan x="0" y="0">G</tspan></text>
  <text class="cls-9" transform="translate(24.73 8.42) rotate(47.22)"><tspan x="0" y="0"> </tspan></text>
  <text class="cls-9" transform="translate(25.35 9.07) rotate(54.48)"><tspan x="0" y="0">C</tspan></text>
  <text class="cls-9" transform="translate(26.51 10.71) rotate(64.75)"><tspan x="0" y="0">O</tspan></text>
  <text class="cls-9" transform="translate(27.38 12.6) rotate(74.7)"><tspan x="0" y="0">U</tspan></text>
  <text class="cls-9" transform="translate(27.9 14.56) rotate(85.12)"><tspan x="0" y="0">N</tspan></text>
  <text class="cls-9" transform="translate(28.06 16.7) rotate(95.51)"><tspan x="0" y="0">C</tspan></text>
  <text class="cls-9" transform="translate(27.82 18.72) rotate(103.12)"><tspan x="0" y="0">I</tspan></text>
  <text class="cls-9" transform="translate(27.59 19.7) rotate(109.81)"><tspan x="0" y="0">L</tspan></text>
  <text class="cls-9" transform="translate(10.92 29.23) rotate(20.01)"><tspan x="0" y="0">U</tspan></text>
  <text class="cls-9" transform="translate(13.15 29.99) rotate(10.48)"><tspan x="0" y="0">S</tspan></text>
  <text class="cls-9" transform="translate(15.37 30.36) rotate(.75)"><tspan x="0" y="0">G</tspan></text>
  <text class="cls-9" transform="translate(17.82 30.34) rotate(-9.13)"><tspan x="0" y="0">B</tspan></text>
  <text class="cls-9" transform="translate(20.14 29.92) rotate(-18.88)"><tspan x="0" y="0">C</tspan></text>
</svg>