<?xml version="1.0" encoding="UTF-8"?>
<svg id="Layer_1" data-name="Layer 1" xmlns="http://www.w3.org/2000/svg" viewBox="0 0 33 33">
  <defs>
    <style>
      .cls-1 {
        fill: #319e7f;
      }

      .cls-2 {
        font-size: 7.56px;
      }

      .cls-2, .cls-3 {
        font-family: Roboto-Black, Roboto;
        font-weight: 800;
      }

      .cls-2, .cls-4 {
        fill: #008357;
      }

      .cls-3 {
        font-size: 5.25px;
      }

      .cls-3, .cls-5 {
        fill: #fff;
      }

      .cls-5 {
        stroke: #713805;
        stroke-miterlimit: 10;
        stroke-width: 1.1px;
      }

      .cls-6 {
        letter-spacing: -.01em;
      }
    </style>
  </defs>
  <circle class="cls-5" cx="16.5" cy="16.5" r="15.45"/>
  <path class="cls-4" d="M16.5,30.34c7.84,0,14.2-6.36,14.2-14.2H2.3c0,7.84,6.36,14.2,14.2,14.2Z"/>
  <polygon class="cls-1" points="3.15 20.99 3.36 21.52 25.33 16.8 3.15 20.99"/>
  <polygon class="cls-1" points="5.28 24.84 5.49 25.11 26.64 17.15 5.28 24.84"/>
  <polygon class="cls-1" points="9.29 28.38 9.84 28.69 27.13 17.6 9.29 28.38"/>
  <polygon class="cls-1" points="17.09 30.34 17.73 30.29 28.29 17.6 17.09 30.34"/>
  <text class="cls-2" transform="translate(6.7 14.91)"><tspan x="0" y="0">US</tspan><tspan class="cls-6" x="9.76" y="0">D</tspan><tspan x="14.57" y="0">A</tspan></text>
  <text class="cls-3" transform="translate(5.09 21.5)"><tspan x="0" y="0">ORGANIC</tspan></text>
</svg>