<?xml version="1.0" encoding="UTF-8"?>
<svg id="Layer_1" data-name="Layer 1" xmlns="http://www.w3.org/2000/svg" viewBox="0 0 33 33">
  <defs>
    <style>
      .cls-1 {
        fill: #77bb02;
      }

      .cls-2 {
        fill: #fefcff;
      }

      .cls-3 {
        fill: #016518;
      }

      .cls-4 {
        fill: #fff;
        font-family: Roboto-Bold, Roboto;
        font-size: 1.22px;
        font-weight: 700;
        stroke: #000;
        stroke-miterlimit: 10;
        stroke-width: .03px;
      }

      .cls-5 {
        letter-spacing: -.01em;
      }

      .cls-6 {
        letter-spacing: 0em;
      }

      .cls-7 {
        fill: #1e7834;
      }
    </style>
  </defs>
  <circle class="cls-1" cx="16.5" cy="16.5" r="15.79"/>
  <g>
    <path class="cls-7" d="M18.25,16.42c1.43-.08,5.53-.33,9.44-1.14,1.21-.25,3.62-.76,3.62-.76-.97-7.3-7.23-12.93-14.81-12.93S2.23,7.61,1.61,15.27c2.03.44,4.74.91,7.96,1.14,3.74.28,6.58.12,8.68,0Z"/>
    <path class="cls-3" d="M31.31,14.51s-2.41.51-3.62.76c-3.91.81-8.01,1.06-9.44,1.14-2.11.12-4.95.28-8.68,0-3.22-.24-5.93-.71-7.96-1.14-.03.41-.05.81-.05,1.23,0,8.24,6.69,14.92,14.94,14.92s14.94-6.68,14.94-14.92c0-.67-.05-1.34-.13-1.99Z"/>
    <polygon class="cls-2" points="3.14 13.14 4.54 19.07 6.14 19.07 7.54 13.14 5.95 13.14 5.34 17.11 4.61 13.14 3.14 13.14"/>
    <rect class="cls-2" x="8.04" y="13.2" width="1.24" height="1.13"/>
    <rect class="cls-2" x="8.04" y="14.78" width="1.24" height="4.29"/>
    <path class="cls-2" d="M12.16,17.43c0,.22-.03.39-.06.51-.03.11-.06.18-.11.23-.09.08-.21.08-.25.07-.04,0-.13-.02-.21-.09-.13-.12-.11-.32-.11-.32v-.79h2.03s0-1.24-.11-1.69-.45-.68-.79-.79-1.13-.23-1.8.11-.68,1.02-.68,1.02c0,0-.11,2.14.03,2.68.16.57.86.86,1.43.93.08.01,1.19.13,1.69-.68.31-.49.2-1.04.17-1.18h-1.24ZM11.65,15.46s.19-.08.34,0c.06.03.09.08.11.11.08.12.09.27.11.56h-.79c-.06-.32.04-.59.23-.68Z"/>
    <path class="cls-2" d="M15.6,13.43h-1.23v1.24h-.54v1.02h.5c0,.86.02,1.73.03,2.59.03.31.16.49.23.56.33.38.88.35,1.13.34.24-.01.43-.07.56-.11v-.86s-.56.07-.56-.16v-2.37h.56v-.98h-.67v-1.28Z"/>
    <path class="cls-2" d="M19.21,15.23h1.37c.02-.09.21-.94-.35-1.58-.48-.54-1.16-.56-1.47-.56-.21,0-.6,0-1.02.23-.08.04-.43.25-.68.68-.27.46-.23.88-.23,1.58v2.1s0,.5.45.95.58.46,1.14.57c.56.11,1.23-.46,1.23-.46v.34h.95v-3.29h-1.95v1.15h.56c0,.13,0,.33-.01.56-.03.36-.09.42-.11.45-.15.15-.49.16-.68,0-.15-.12-.12-.29-.11-1.35,0-.46,0-.69,0-.79,0-.3-.02-.49,0-.79.03-.37.09-.55.23-.68.03-.03.11-.1.23-.11.18-.02.31.1.32.11.1.1.11.22.13.45.01.11.02.27,0,.45Z"/>
    <path class="cls-2" d="M24.15,13.19h-1.69l-1.31,5.88h1.45l.22-1.13h1.07l.17,1.13h1.42l-1.33-5.88ZM22.88,16.87l.41-2.43.41,2.43h-.81Z"/>
    <path class="cls-2" d="M29.92,14.67c-.05-.23-.15-.68-.56-1.02-.35-.28-.73-.33-.9-.34-.82-.04-1.64-.08-2.47-.13v5.88h1.54v-2.19s.37-.02.7-.06c.39-.05.62-.08.9-.23.09-.04.21-.11.34-.23.32-.28.41-.64.45-.79.11-.41.04-.75,0-.9ZM28.23,15.57c-.2.21-.5.29-.79.21v-1.45c.09-.02.24-.04.41,0,.15.03.25.1.27.11,0,0,.14.1.23.23.15.24.14.64-.11.9Z"/>
    <text class="cls-4" transform="translate(4.94 22.78)"><tspan x="0" y="0">Vietnamese Good Agricultu</tspan><tspan class="cls-5" x="15.1" y="0">r</tspan><tspan class="cls-6" x="15.53" y="0">al P</tspan><tspan class="cls-5" x="17.6" y="0">r</tspan><tspan class="cls-6" x="18.03" y="0">actices</tspan></text>
  </g>
</svg>