<?xml version="1.0" encoding="UTF-8"?>
<svg id="Layer_1" data-name="Layer 1" xmlns="http://www.w3.org/2000/svg" viewBox="0 0 32.5 32.5">
  <path d="M12.95,8.3v-3.63c-1.08.04-3.43.26-5.79,1.82-3.13,2.07-4.17,5.09-4.52,6.15-.45,1.38-1.35,4.92.36,8.68.36.8,1.48,3.17,3.98,4.7,2.32,1.42,5.12,1.69,6.29,1.8.02,0,.03,0,.04,0v-3.28c-.73-.03-3.21-.21-5.24-2.14-1.49-1.43-1.97-3.08-2.17-3.8-.64-2.34-.13-4.25,0-4.7.13-.45.71-2.62,2.35-3.8.78-.56,1.35-.91,1.89-1.18.23-.12.55-.31,1-.45.19-.06.5-.14.9-.18.35-.03.66-.02.9,0Z"/>
  <path d="M21.63,8.3v-3.63c-1.08.04-3.43.26-5.79,1.82-3.13,2.07-4.17,5.09-4.52,6.15-.45,1.38-1.35,4.92.36,8.68.36.8,1.48,3.17,3.98,4.7,2.32,1.42,5.12,1.69,6.29,1.8.02,0,.03,0,.04,0v-3.28c-.73-.03-3.21-.21-5.24-2.14-1.49-1.43-1.97-3.08-2.17-3.8-.64-2.34-.13-4.25,0-4.7.13-.45.71-2.62,2.35-3.8.78-.56,1.35-.91,1.89-1.18.23-.12.55-.31,1-.45.19-.06.5-.14.9-.18.35-.03.66-.02.9,0Z"/>
  <path d="M30.13,8.3v-3.63c-1.08.04-3.43.26-5.79,1.82-3.13,2.07-4.17,5.09-4.52,6.15-.45,1.38-1.35,4.92.36,8.68.36.8,1.48,3.17,3.98,4.7,2.32,1.42,5.12,1.69,6.29,1.8.02,0,.03,0,.04,0v-3.28c-.73-.03-3.21-.21-5.24-2.14-1.49-1.43-1.97-3.08-2.17-3.8-.64-2.34-.13-4.25,0-4.7.13-.45.71-2.62,2.35-3.8.78-.56,1.35-.91,1.89-1.18.23-.12.55-.31,1-.45.19-.06.5-.14.9-.18.35-.03.66-.02.9,0Z"/>
</svg>