<?xml version="1.0" encoding="UTF-8"?>
<svg id="Layer_1" data-name="Layer 1" xmlns="http://www.w3.org/2000/svg" viewBox="0 0 32.5 32.5">
  <defs>
    <style>
      .cls-1 {
        fill: #616264;
      }

      .cls-2 {
        fill: #3e667d;
      }

      .cls-3 {
        fill: #c93059;
      }

      .cls-4 {
        fill: #f66106;
      }

      .cls-5 {
        fill: #1a1a1a;
        font-family: Roboto-Black, Roboto;
        font-size: 10.07px;
        font-weight: 800;
      }

      .cls-6 {
        font-size: 2.96px;
      }

      .cls-6, .cls-7, .cls-8 {
        fill: #fff;
        font-family: Roboto-Medium, Roboto;
        font-weight: 500;
      }

      .cls-7 {
        font-size: 2.96px;
      }

      .cls-8 {
        font-size: 2.96px;
      }

      .cls-9 {
        fill: #49a666;
      }
    </style>
  </defs>
  <path class="cls-1" d="M7.03,3.04l4.28,1.96.36,4.28s1.25-1.07,3.92-1.25,4.28.71,4.28.71l4.28-1.78.53-4.1c-1.14-.8-3.21-2.03-6.06-2.5,0,0-3.44-.57-6.95.53-.68.21-1.8.63-3.03,1.25-.67.33-1.21.65-1.6.89Z"/>
  <path class="cls-9" d="M21.29,9.64l4.28-1.78.36-4.64c1.04.84,2.37,2.11,3.57,3.92,1.42,2.15,1.98,4.07,2.14,4.64.33,1.19.44,2.14.53,3.03.2,1.82.16,3.36.09,4.44-1.57.54-3.15,1.08-4.72,1.62l-3.03-3.39c.13-.86.22-2.32-.36-3.92-.48-1.31-1.22-2.21-1.6-2.67-.46-.55-.91-.97-1.25-1.25Z"/>
  <path class="cls-2" d="M24.03,19s-1.32,2.94-3.1,4.01c-1.78,1.07-3.39,1.25-3.39,1.25l-2.32,4.1,2.5,3.92s2.5-.36,5.17-1.6,4.1-2.5,5.53-4.1,3.03-5.17,3.03-5.17l-4.46.89-2.96-3.3Z"/>
  <path class="cls-3" d="M8.99,19.98c.13.25,1.09,2.02,2.67,3.03,1.01.65,2.35,1.03,2.5,1.07h0c.33.08,1.96.36,1.96.36l-2.32,3.74,2.2,4.1s-3.45-.36-5.77-1.25-4.99-3.03-6.24-4.64-2.5-4.1-2.5-4.1l2.89-3.3,4.59.98Z"/>
  <path class="cls-4" d="M8.45,18.37s-.36-.89-.36-2.67.65-2.85,1.13-3.65c.48-.8,1.19-1.52,1.19-1.52l-.53-4.81-3.74-1.6c-1.14.84-3.26,2.66-4.64,5.71C.21,12.71.23,15.26.25,16.41c.04,1.87.39,3.4.71,4.46l2.85-3.39,4.64.89Z"/>
  <text class="cls-5" transform="translate(10.35 19.79)"><tspan x="0" y="0">5S</tspan></text>
  <text class="cls-8" transform="translate(2.18 16.53) rotate(-52.73)"><tspan x="0" y="0">Sẵn sàng</tspan></text>
  <text class="cls-6" transform="translate(3.12 23.72) rotate(23.97)"><tspan x="0" y="0">Sạch Sẽ</tspan></text>
  <text class="cls-7" transform="translate(17.92 29.08) rotate(-16.82)"><tspan x="0" y="0">Săn Sóc</tspan></text>
  <text class="cls-8" transform="translate(29.3 19.72) rotate(-92.12)"><tspan x="0" y="0">Sàng Lọc</tspan></text>
  <text class="cls-6" transform="translate(12.21 4.64) rotate(6.31)"><tspan x="0" y="0">Săn Sóc</tspan></text>
</svg>