<?xml version="1.0" encoding="UTF-8"?>
<svg id="Layer_1" data-name="Layer 1" xmlns="http://www.w3.org/2000/svg" xmlns:xlink="http://www.w3.org/1999/xlink" viewBox="0 0 32.5 32.5">
  <defs>
    <style>
      .cls-1 {
        fill: url(#linear-gradient-5);
      }

      .cls-2 {
        fill: url(#linear-gradient-4);
      }

      .cls-3 {
        fill: url(#linear-gradient-3);
      }

      .cls-4 {
        fill: url(#linear-gradient-2);
      }

      .cls-5 {
        fill: #ebebe9;
      }

      .cls-6 {
        fill: url(#linear-gradient);
      }

      .cls-7 {
        letter-spacing: 0em;
      }

      .cls-8 {
        fill: #56b02e;
      }

      .cls-9 {
        fill: #fff;
      }

      .cls-10 {
        stroke-dasharray: .49 .49;
        stroke-width: .25px;
      }

      .cls-10, .cls-11 {
        fill: none;
        stroke: #ebebe9;
        stroke-linecap: round;
        stroke-linejoin: round;
      }

      .cls-12 {
        fill: #666;
        font-size: 1.54px;
      }

      .cls-12, .cls-13 {
        font-family: AvenirNext-DemiBold, 'Avenir Next';
        font-weight: 300;
      }

      .cls-14 {
        letter-spacing: -.06em;
      }

      .cls-15 {
        letter-spacing: -.02em;
      }

      .cls-16 {
        letter-spacing: -.01em;
      }

      .cls-11 {
        stroke-dasharray: .75 .75;
        stroke-width: .37px;
      }

      .cls-13 {
        fill: #f2f2f2;
        font-size: 2.89px;
      }
    </style>
    <linearGradient id="linear-gradient" x1="7.25" y1="16.25" x2="11.45" y2="16.25" gradientUnits="userSpaceOnUse">
      <stop offset="0" stop-color="#a6ce7e"/>
      <stop offset="0" stop-color="#9cca74"/>
      <stop offset="0" stop-color="#83c05b"/>
      <stop offset="0" stop-color="#5ab132"/>
      <stop offset="0" stop-color="#56b02e"/>
      <stop offset=".51" stop-color="#99c96d"/>
    </linearGradient>
    <linearGradient id="linear-gradient-2" x1="10.95" y1="16.25" x2="15.01" y2="16.25" gradientUnits="userSpaceOnUse">
      <stop offset="0" stop-color="#a6ce7e"/>
      <stop offset=".06" stop-color="#9cca74"/>
      <stop offset=".17" stop-color="#83c05b"/>
      <stop offset=".3" stop-color="#5ab132"/>
      <stop offset=".32" stop-color="#56b02e"/>
      <stop offset=".72" stop-color="#99c96d"/>
    </linearGradient>
    <linearGradient id="linear-gradient-3" x1="11.52" y1="16.25" x2="15.69" y2="16.25" gradientUnits="userSpaceOnUse">
      <stop offset="0" stop-color="#a6ce7e"/>
      <stop offset=".55" stop-color="#9ecb74"/>
      <stop offset=".85" stop-color="#99c96d"/>
    </linearGradient>
    <linearGradient id="linear-gradient-4" x1="21.44" y1="16.25" x2="25.25" y2="16.25" gradientUnits="userSpaceOnUse">
      <stop offset="0" stop-color="#a6ce7e"/>
      <stop offset="0" stop-color="#9cca74"/>
      <stop offset=".01" stop-color="#83c05b"/>
      <stop offset=".03" stop-color="#5ab132"/>
      <stop offset=".03" stop-color="#56b02e"/>
      <stop offset=".45" stop-color="#99c96d"/>
    </linearGradient>
    <linearGradient id="linear-gradient-5" x1="17" y1="16.24" x2="21.47" y2="16.24" gradientUnits="userSpaceOnUse">
      <stop offset="0" stop-color="#a6ce7e"/>
      <stop offset=".02" stop-color="#9cca74"/>
      <stop offset=".05" stop-color="#83c05b"/>
      <stop offset=".09" stop-color="#5ab132"/>
      <stop offset=".09" stop-color="#56b02e"/>
      <stop offset=".48" stop-color="#99c96d"/>
    </linearGradient>
  </defs>
  <g>
    <circle class="cls-8" cx="16.25" cy="16.25" r="16"/>
    <circle class="cls-5" cx="16.25" cy="16.25" r="10"/>
    <circle class="cls-11" cx="16.25" cy="16.25" r="15.74"/>
    <circle class="cls-10" cx="16.25" cy="16.25" r="10.37"/>
    <g>
      <g>
        <path class="cls-6" d="M7.25,18.54v-4.58h2.24c.58,0,1.01.11,1.3.33.29.22.44.51.44.86,0,.24-.06.45-.18.63-.12.18-.28.31-.49.41-.21.1-.44.14-.7.14l.12-.27c.29,0,.54.05.76.14.22.1.39.24.52.42.13.18.19.41.19.67,0,.39-.16.7-.46.92-.31.22-.77.33-1.37.33h-2.37ZM8.3,17.74h1.24c.27,0,.48-.05.62-.14.14-.09.22-.23.22-.43s-.07-.34-.22-.43c-.14-.09-.35-.14-.62-.14h-1.32v-.77h1.13c.26,0,.45-.04.59-.13.14-.09.21-.23.21-.41s-.07-.32-.21-.41c-.14-.09-.33-.13-.59-.13h-1.05v2.98Z"/>
        <path class="cls-4" d="M12.26,18.54v-4.58h1.98c.41,0,.76.07,1.06.2.3.13.53.32.69.57s.24.54.24.88-.08.64-.24.89c-.16.25-.39.43-.69.56-.3.13-.65.19-1.06.19h-1.4l.48-.46v1.74h-1.07ZM13.32,16.92l-.48-.5h1.34c.32,0,.57-.07.73-.21.17-.14.25-.34.25-.59s-.08-.45-.25-.59c-.17-.14-.41-.21-.73-.21h-1.34l.48-.5v2.6ZM15.18,18.54l-1.15-1.66h1.14l1.15,1.66h-1.14Z"/>
        <path class="cls-3" d="M19.26,18.59c-.35,0-.67-.06-.97-.17-.29-.12-.55-.28-.77-.49-.22-.21-.39-.46-.51-.74-.12-.28-.18-.6-.18-.94s.06-.65.18-.94c.12-.28.29-.53.51-.74.22-.21.47-.38.77-.49.29-.12.62-.17.97-.17s.68.06.98.18c.3.12.55.3.76.53l-.43.41c-.17-.18-.37-.32-.59-.41-.22-.09-.45-.13-.7-.13s-.5.04-.72.13c-.22.09-.41.21-.57.37s-.29.34-.38.56c-.09.22-.13.45-.13.7s.04.49.13.7c.09.22.21.4.38.56.16.16.35.28.57.37.22.09.46.13.72.13s.48-.04.7-.13c.22-.09.41-.23.59-.42l.43.41c-.21.24-.46.41-.76.54-.3.12-.63.18-.99.18Z"/>
        <path class="cls-2" d="M23.31,18.62c-.37,0-.72-.05-1.06-.15s-.61-.23-.81-.38l.36-.8c.19.14.42.25.69.34.27.09.54.13.82.13.21,0,.38-.02.51-.07.13-.04.22-.1.28-.17s.09-.16.09-.25c0-.12-.05-.22-.14-.29-.1-.07-.22-.13-.38-.18s-.33-.09-.52-.13c-.19-.04-.38-.09-.57-.15-.19-.06-.36-.14-.52-.24-.16-.1-.29-.23-.38-.39-.09-.16-.14-.36-.14-.6,0-.26.07-.5.21-.72.14-.22.35-.39.64-.52.29-.13.64-.19,1.08-.19.29,0,.57.03.85.1.28.07.53.17.74.3l-.33.8c-.21-.12-.42-.21-.63-.27-.22-.06-.43-.09-.63-.09s-.38.02-.5.07c-.13.05-.22.11-.28.19-.06.08-.09.17-.09.26,0,.12.05.22.14.29.1.07.22.13.38.17.16.04.33.08.52.12.19.04.38.09.57.15.19.06.36.14.52.23.16.09.28.22.38.38.1.16.15.36.15.59,0,.26-.07.49-.21.71-.14.21-.36.39-.64.52-.29.13-.65.2-1.08.2Z"/>
        <path class="cls-1" d="M19.73,17.46c-.16.04-.33.06-.52.06s-.37-.03-.54-.09-.3-.15-.42-.26c-.12-.11-.21-.25-.28-.4-.07-.16-.1-.33-.1-.52s.03-.37.1-.53c.07-.16.16-.29.28-.4.12-.11.26-.2.42-.26.16-.06.33-.09.52-.09s.37.03.54.09c.16.06.3.14.4.24l-.37.42c-.06-.07-.13-.12-.23-.16s-.2-.06-.32-.06c-.1,0-.2.02-.28.06-.09.04-.16.09-.23.16-.06.07-.11.15-.15.24-.04.09-.05.19-.05.3s.02.22.05.31c.03.09.08.17.14.24s.14.12.23.16.2.06.32.06c.07,0,.13,0,.2-.02.06-.01.12-.03.17-.05v-.44h-.46v-.47h1v1.29c-.12.06-.26.11-.42.15Z"/>
      </g>
      <text class="cls-12" transform="translate(8.23 21.68)"><tspan x="0" y="0">APPR</tspan><tspan class="cls-16" x="3.93" y="0">O</tspan><tspan x="5.21" y="0">VED</tspan><tspan class="cls-15" x="8.33" y="0"> </tspan><tspan x="8.67" y="0">TRAINING</tspan><tspan class="cls-14" x="4.12" y="1.84">P</tspan><tspan x="4.96" y="1.84">A</tspan><tspan class="cls-16" x="6.05" y="1.84">R</tspan><tspan class="cls-7" x="6.99" y="1.84">TNERR</tspan></text>
    </g>
    <text class="cls-13" transform="translate(2.78 20.23) rotate(70.15)"><tspan x="0" y="0">F</tspan></text>
    <text class="cls-13" transform="translate(3.44 22.09) rotate(60.45)"><tspan x="0" y="0">O</tspan></text>
    <text class="cls-13" transform="translate(4.87 24.53) rotate(48.93)"><tspan x="0" y="0">O</tspan></text>
    <text class="cls-13" transform="translate(6.72 26.6) rotate(38.16)"><tspan x="0" y="0">D</tspan></text>
    <text class="cls-13" transform="translate(8.71 28.08) rotate(31.11)"><tspan x="0" y="0"> </tspan></text>
    <text class="cls-13" transform="translate(9.54 28.59) rotate(25.2)"><tspan x="0" y="0">S</tspan></text>
    <text class="cls-13" transform="translate(11.33 29.42) rotate(16.3)"><tspan x="0" y="0">A</tspan></text>
    <text class="cls-13" transform="translate(13.58 30.04) rotate(7.51)"><tspan x="0" y="0">F</tspan></text>
    <text class="cls-13" transform="translate(15.51 30.29) rotate(-.93)"><tspan x="0" y="0">E</tspan></text>
    <text class="cls-13" transform="translate(17.57 30.24) rotate(-8.69)"><tspan x="0" y="0">T</tspan></text>
    <text class="cls-13" transform="translate(19.44 29.94) rotate(-16.74)"><tspan x="0" y="0">Y</tspan></text>
    <text class="cls-13" transform="translate(21.34 29.33) rotate(-22.75)"><tspan x="0" y="0"> </tspan></text>
    <text class="cls-13" transform="translate(22.19 28.96) rotate(-26.77)"><tspan x="0" y="0">I</tspan></text>
    <text class="cls-13" transform="translate(23.15 28.49) rotate(-32.84)"><tspan x="0" y="0">S</tspan></text>
    <text class="cls-13" transform="translate(24.77 27.42) rotate(-40.73)"><tspan x="0" y="0">S</tspan></text>
    <text class="cls-13" transform="translate(26.25 26.13) rotate(-49.53)"><tspan x="0" y="0">U</tspan></text>
    <text class="cls-13" transform="translate(27.76 24.31) rotate(-58.54)"><tspan x="0" y="0">E</tspan></text>
    <text class="cls-13" transform="translate(28.78 22.56) rotate(-64.71)"><tspan x="0" y="0"> </tspan></text>
    <text class="cls-13" transform="translate(29.21 21.68) rotate(-70.86)"><tspan x="0" y="0">9</tspan></text>
    <text class="cls-13" transform="translate(29.83 19.77) rotate(-77)"><tspan x="0" y="0"> </tspan></text>
    <g>
      <circle class="cls-9" cx="3.75" cy="15.8" r=".5"/>
      <circle class="cls-9" cx="28.75" cy="15.8" r=".5"/>
    </g>
  </g>
  <text class="cls-13" transform="translate(5.23 11.37) rotate(-60.97)"><tspan x="0" y="0">G</tspan></text>
  <text class="cls-13" transform="translate(6.33 9.44) rotate(-52.18)"><tspan x="0" y="0">L</tspan></text>
  <text class="cls-13" transform="translate(7.15 8.32) rotate(-43.29)"><tspan x="0" y="0">O</tspan></text>
  <text class="cls-13" transform="translate(8.92 6.68) rotate(-33.18)"><tspan x="0" y="0">B</tspan></text>
  <text class="cls-13" transform="translate(10.46 5.66) rotate(-23.98)"><tspan x="0" y="0">A</tspan></text>
  <text class="cls-13" transform="translate(12.33 4.85) rotate(-15.5)"><tspan x="0" y="0">L</tspan></text>
  <text class="cls-13" transform="translate(13.74 4.48) rotate(-10.31)"><tspan x="0" y="0"> </tspan></text>
  <text class="cls-13" transform="translate(14.5 4.32) rotate(-4.35)"><tspan x="0" y="0">S</tspan></text>
  <text class="cls-13" transform="translate(16.12 4.19) rotate(3.26)"><tspan x="0" y="0">T</tspan></text>
  <text class="cls-13" transform="translate(17.59 4.25) rotate(11.2)"><tspan x="0" y="0">A</tspan></text>
  <text class="cls-13" transform="translate(19.56 4.63) rotate(21.34)"><tspan x="0" y="0">N</tspan></text>
  <text class="cls-13" transform="translate(21.62 5.43) rotate(31.8)"><tspan x="0" y="0">D</tspan></text>
  <text class="cls-13" transform="translate(23.42 6.55) rotate(41.5)"><tspan x="0" y="0">A</tspan></text>
  <text class="cls-13" transform="translate(24.94 7.9) rotate(50.64)"><tspan x="0" y="0">R</tspan></text>
  <text class="cls-13" transform="translate(26.09 9.28) rotate(60.1)"><tspan x="0" y="0">D</tspan></text>
  <text class="cls-13" transform="translate(27.16 11.24) rotate(67.25)"><tspan x="0" y="0"> </tspan></text>
</svg>