<?xml version="1.0" encoding="UTF-8"?>
<svg id="Layer_1" data-name="Layer 1" xmlns="http://www.w3.org/2000/svg" xmlns:xlink="http://www.w3.org/1999/xlink" viewBox="0 0 32.5 32.5">
  <defs>
    <style>
      .cls-1, .cls-2 {
        fill: #333;
        font-size: 3px;
      }

      .cls-1, .cls-3 {
        font-family: Roboto-Bold, Roboto;
        font-weight: 700;
      }

      .cls-4, .cls-3 {
        fill: #2047ed;
      }

      .cls-5 {
        letter-spacing: .25em;
      }

      .cls-6 {
        letter-spacing: .22em;
      }

      .cls-2 {
        font-family: Roboto-Medium, Roboto;
        font-weight: 500;
      }

      .cls-7 {
        letter-spacing: .14em;
      }

      .cls-8 {
        letter-spacing: .15em;
      }

      .cls-9 {
        letter-spacing: .09em;
      }

      .cls-3 {
        font-size: 2px;
      }
    </style>
  </defs>
  <g>
    <path class="cls-4" d="M4.02,23.25c-.34-.74-.82-1.42-1.14-2.17C-.21,14.02,2.97,5.73,10.02,2.66c10.04-4.36,20.8,3.9,19.42,14.67-.04.32-.43,1.72-.42,1.81.05.3,1.47.07,1.78.33l-4.84,3.88-1.24-5.96,1.57.9c1.5-5.9-1.9-11.91-7.76-13.54C9.67,2.29,2.11,10.67,5.26,19.26c.57,1.55,1.47,2.71,2.48,3.99h-3.71Z"/>
    <g>
      <path class="cls-4" d="M7.46,12.35c4.88-2.24,11.04-2.04,15.87.17.02.09-.1.07-.17.06-5.24-.74-10.2-1.21-15.47-.11-.2.04-.28,0-.23-.11Z"/>
      <path class="cls-4" d="M19.61,9.88c.02.09-.09.13-.34.11-3.38-.33-8.08.02-11.37.9-.21.05-.28,0-.23-.11,3.98-1.91,7.68-2.1,11.93-.9Z"/>
      <path class="cls-4" d="M22.88,9.65c.15.16.09.22-.11.11-2.04-.75-4.98-1.41-7.15-1.57-.58-.04-1.21.02-1.8,0-.14,0-.42.08-.39-.11,3.32-.8,6.59-.24,9.45,1.57Z"/>
    </g>
  </g>
  <text class="cls-1" transform="translate(8.16 16.27)"><tspan class="cls-5"><tspan x="0" y="0">CARBON</tspan></tspan><tspan class="cls-5" x="1.65" y="3">TRUS</tspan><tspan class="cls-6" x="12.24" y="3">T</tspan></text>
  <text class="cls-3" transform="translate(9.84 22.27)"><tspan class="cls-8" x="0" y="0">S</tspan><tspan class="cls-9" x="1.53" y="0">T</tspan><tspan class="cls-8" x="2.95" y="0">AN</tspan><tspan class="cls-7" x="6.31" y="0">D</tspan><tspan class="cls-8" x="7.89" y="0">ARD</tspan></text>
  <text class="cls-2" transform="translate(5.57 26.85)"><tspan x="0" y="0">REDUCING CO2</tspan><tspan x=".23" y="2.68">YEAR ON YEAR</tspan></text>
  <image width="616" height="346" transform="translate(16.25 -2.75) scale(.11)" xlink:href="../../Downloads/CTS.png"/>
</svg>