<?xml version="1.0" encoding="UTF-8"?>
<svg id="Layer_1" data-name="Layer 1" xmlns="http://www.w3.org/2000/svg" viewBox="0 0 32.5 32.5">
  <defs>
    <style>
      .cls-1 {
        fill: #225bd1;
      }

      .cls-2 {
        fill: #fff;
      }

      .cls-3 {
        fill: #fdcf3f;
      }

      .cls-4 {
        fill: #01339b;
      }
    </style>
  </defs>
  <g>
    <g>
      <g>
        <ellipse class="cls-4" cx="16.25" cy="16.25" rx="16.13" ry="16.04"/>
        <ellipse class="cls-1" cx="16.25" cy="16.25" rx="11.27" ry="11.2"/>
      </g>
      <g>
        <ellipse class="cls-2" cx="29.91" cy="16.25" rx=".98" ry=".97"/>
        <ellipse class="cls-2" cx="2.59" cy="16.25" rx=".98" ry=".97"/>
      </g>
    </g>
    <g>
      <g>
        <path class="cls-2" d="M7.13,6.2c-.13-.19-.22-.39-.27-.61-.05-.21-.05-.43-.01-.64.04-.21.12-.41.25-.6.13-.19.29-.36.5-.51.21-.15.42-.25.65-.3.22-.05.44-.06.66-.03.21.03.41.11.6.22.19.12.35.27.48.46.13.18.21.36.26.56.05.19.06.39.04.58l.76.15-.55.53-.41-.08c-.07.12-.15.23-.24.33-.09.11-.2.2-.33.29-.21.15-.43.25-.65.3-.22.05-.44.06-.65.03-.21-.03-.41-.11-.6-.23-.19-.12-.35-.27-.48-.46ZM7.83,5.71c.07.1.16.18.26.24.1.06.2.1.32.11.11.02.22.01.34-.01.11-.03.22-.07.32-.14.06-.04.11-.09.16-.15l-.67-.13.58-.52.31.06c0-.17-.05-.33-.16-.48-.07-.1-.16-.18-.26-.24-.1-.06-.21-.1-.32-.11-.11-.02-.22-.01-.34.02-.11.03-.22.07-.32.14-.1.07-.18.15-.24.25-.06.1-.1.2-.13.31-.02.11-.02.22,0,.34.02.11.07.22.14.32Z"/>
        <path class="cls-2" d="M10.97,2.14l.55,1.62c.03.09.06.18.1.26.04.09.08.16.14.23.06.06.13.11.22.13.09.02.19.01.32-.03.13-.04.22-.1.28-.17.05-.07.09-.15.1-.23,0-.09,0-.17-.02-.27-.02-.09-.05-.18-.08-.27l-.55-1.62.77-.26.58,1.73c.16.46.16.84.02,1.12-.14.29-.43.5-.87.65-.44.15-.8.15-1.09.01-.29-.14-.51-.44-.66-.91l-.58-1.73.78-.26Z"/>
        <path class="cls-2" d="M16.07,3.76l-1.17.08-.15.56-.87.06.99-3.22.89-.06,1.41,3.06-.87.06-.22-.53ZM15.81,3.15l-.44-1.02-.3,1.07.73-.05Z"/>
        <path class="cls-2" d="M18.65,1.35l-.37,2.43.97.15-.1.69-1.78-.27.48-3.11.81.12Z"/>
        <path class="cls-2" d="M21.15,1.95l-.92,3.01-.78-.24.92-3.01.78.24Z"/>
        <path class="cls-2" d="M22.89,3.44l-1.06,2.22-.74-.35,1.06-2.22-.61-.29.3-.63,1.95.93-.3.63-.61-.29Z"/>
        <path class="cls-2" d="M24.33,5.44l.12-2,.77.61-.08,1.04.99-.31.77.61-1.92.57-.94,1.19-.64-.51.94-1.19Z"/>
      </g>
      <g>
        <path class="cls-2" d="M6.81,25.38c.06-.28,0-.53-.16-.74-.07-.09-.16-.17-.26-.22-.1-.05-.2-.08-.3-.09-.1-.01-.21,0-.32.03-.11.03-.21.08-.3.16-.1.08-.17.16-.22.26-.05.1-.09.2-.1.3-.01.11,0,.21.02.32.03.11.08.2.15.29.16.2.39.31.68.33l-.74.59-.07-.05c-.11-.07-.21-.14-.29-.21-.08-.07-.16-.14-.22-.23-.13-.16-.23-.35-.29-.55-.06-.2-.08-.4-.06-.61.02-.21.08-.41.18-.6.1-.19.24-.37.42-.51.18-.15.38-.25.59-.3.21-.05.41-.07.62-.04.2.03.4.09.58.19.18.1.34.24.48.4.08.1.14.2.19.3.05.11.1.23.14.37l-.74.6Z"/>
        <path class="cls-2" d="M8.71,26.56l-.72-.61-.33.39.68.58-.44.51-.68-.58-.34.4.72.61-.44.51-1.33-1.13,1.99-2.33,1.33,1.13-.44.51Z"/>
        <path class="cls-2" d="M10.13,30.18l-.86-.49-.08-1.4-.58,1.03-.69-.39,1.5-2.67,1.08.61c.15.08.27.18.35.28.09.11.14.22.17.33.03.12.03.23.02.35-.02.12-.06.24-.12.35-.11.2-.26.34-.43.41-.17.07-.36.08-.58.01l.22,1.57ZM9.44,27.84l.13.07c.14.08.26.11.36.09.11-.02.19-.08.25-.18.06-.11.07-.21.03-.31-.04-.1-.13-.19-.27-.26l-.13-.07-.37.66Z"/>
        <path class="cls-2" d="M12.65,28.5l-.76,2.27-.76-.25.76-2.27-.62-.21.21-.64,2,.67-.21.64-.62-.21Z"/>
        <path class="cls-2" d="M14.46,28.23l-.57,3.01-.78-.15.57-3.01.78.15Z"/>
        <path class="cls-2" d="M16.64,29.07l-.96-.05-.03.51.87.04-.03.67-.87-.04-.06,1.2-.8-.04.15-3.06,1.75.09-.03.67Z"/>
        <path class="cls-2" d="M17.77,28.28l.27,3.05-.79.07-.27-3.05.79-.07Z"/>
        <path class="cls-2" d="M20.62,28.72c-.23-.17-.48-.23-.74-.16-.12.03-.22.08-.31.14-.09.07-.16.14-.21.23-.05.09-.09.19-.1.3-.02.11,0,.22.02.34.03.12.08.22.14.31.07.09.14.16.23.22.09.06.19.09.3.11.11.02.22.01.33-.01.25-.06.44-.22.59-.48l.23.92-.07.05c-.11.07-.21.13-.31.17-.1.05-.2.08-.3.1-.21.05-.41.06-.62.03-.21-.03-.4-.1-.58-.2-.18-.11-.33-.24-.47-.42-.13-.17-.23-.37-.29-.6-.06-.23-.07-.45-.03-.66.04-.21.11-.4.22-.58.11-.17.25-.32.42-.45.17-.12.36-.21.57-.26.12-.03.24-.05.36-.05.12,0,.25,0,.39.03l.23.92Z"/>
        <path class="cls-2" d="M23.48,29.04l-1.01.52.08.56-.76.39-.35-3.26.78-.39,2.43,2.2-.76.39-.4-.39ZM23.02,28.59l-.78-.75.14,1.07.64-.32Z"/>
        <path class="cls-2" d="M24.53,26.07l1.47,1.88-.63.49-1.47-1.88-.52.4-.42-.53,1.66-1.3.42.53-.52.4Z"/>
        <path class="cls-2" d="M26.39,24.18l-.64.7.38.34.6-.66.5.45-.6.66.39.36.64-.7.5.45-1.17,1.29-2.27-2.06,1.17-1.29.5.45Z"/>
      </g>
    </g>
  </g>
  <g>
    <g>
      <path class="cls-2" d="M14.63,12.12c-.56,0-1.1.11-1.61.33-.49.21-.93.51-1.31.89-.38.38-.68.82-.89,1.31-.22.51-.33,1.05-.33,1.61s.11,1.1.33,1.61c.21.49.51.93.89,1.31.38.38.82.68,1.31.89.51.22,1.05.33,1.61.33.19,0,.38-.01.57-.04h.1v-1.04l-.14.02c-.18.03-.36.05-.54.05-.42,0-.83-.08-1.22-.25-.37-.16-.71-.38-.99-.67-.29-.29-.51-.62-.67-.99-.16-.38-.25-.79-.25-1.22s.08-.83.25-1.22c.16-.37.38-.71.67-.99.29-.29.62-.51.99-.67.38-.16.79-.25,1.22-.25.18,0,.36.02.54.05l.14.02v-1.03h-.1c-.19-.04-.38-.05-.57-.05Z"/>
      <path class="cls-2" d="M18.44,14.04c.29-.29.62-.51.99-.67.38-.16.79-.25,1.22-.25.18,0,.36.02.54.05l.14.02v-1.03h-.1c-.19-.04-.38-.05-.57-.05-.56,0-1.1.11-1.61.33-.49.21-.93.51-1.31.89-.38.38-.68.82-.89,1.31-.22.51-.33,1.05-.33,1.61s.11,1.1.33,1.61c.21.49.51.93.89,1.31.38.38.82.68,1.31.89.51.22,1.05.33,1.61.33.19,0,.38-.01.57-.04h.1v-1.04l-.14.02c-.18.03-.36.05-.54.05-.42,0-.83-.08-1.22-.25-.37-.16-.71-.38-.99-.67-.29-.29-.51-.62-.67-.99-.11-.25-.18-.52-.22-.8h3.77v-1.01h-3.74c.04-.21.1-.42.19-.62.16-.37.38-.71.67-.99Z"/>
    </g>
    <g>
      <polygon class="cls-3" points="16.25 6.13 16.69 7.03 17.68 7.17 16.96 7.87 17.13 8.85 16.25 8.39 15.37 8.85 15.54 7.87 14.82 7.17 15.81 7.03 16.25 6.13"/>
      <polygon class="cls-3" points="11.98 7.32 12.43 8.22 13.41 8.36 12.7 9.06 12.87 10.04 11.98 9.58 11.1 10.04 11.27 9.06 10.56 8.36 11.54 8.22 11.98 7.32"/>
      <polygon class="cls-3" points="8.8 10.33 9.24 11.23 10.23 11.37 9.51 12.07 9.68 13.05 8.8 12.59 7.91 13.05 8.08 12.07 7.37 11.37 8.35 11.23 8.8 10.33"/>
      <polygon class="cls-3" points="7.49 14.89 7.93 15.79 8.92 15.93 8.21 16.63 8.38 17.61 7.49 17.14 6.61 17.61 6.78 16.63 6.06 15.93 7.05 15.79 7.49 14.89"/>
      <polygon class="cls-3" points="8.98 19.04 9.42 19.94 10.41 20.08 9.69 20.78 9.86 21.76 8.98 21.3 8.09 21.76 8.26 20.78 7.55 20.08 8.54 19.94 8.98 19.04"/>
      <polygon class="cls-3" points="11.8 22.05 12.25 22.95 13.23 23.09 12.52 23.79 12.69 24.77 11.8 24.31 10.92 24.77 11.09 23.79 10.38 23.09 11.36 22.95 11.8 22.05"/>
      <polygon class="cls-3" points="16.25 23.65 16.69 24.54 17.68 24.69 16.96 25.38 17.13 26.37 16.25 25.9 15.37 26.37 15.54 25.38 14.82 24.69 15.81 24.54 16.25 23.65"/>
      <polygon class="cls-3" points="20.7 22.05 21.14 22.95 22.12 23.09 21.41 23.79 21.58 24.77 20.7 24.31 19.81 24.77 19.98 23.79 19.27 23.09 20.25 22.95 20.7 22.05"/>
      <polygon class="cls-3" points="23.52 19.04 23.96 19.94 24.95 20.08 24.24 20.78 24.41 21.76 23.52 21.3 22.64 21.76 22.81 20.78 22.09 20.08 23.08 19.94 23.52 19.04"/>
      <polygon class="cls-3" points="25.01 14.89 25.45 15.79 26.44 15.93 25.72 16.63 25.89 17.61 25.01 17.14 24.12 17.61 24.29 16.63 23.58 15.93 24.57 15.79 25.01 14.89"/>
      <polygon class="cls-3" points="23.7 10.33 24.15 11.23 25.13 11.37 24.42 12.07 24.59 13.05 23.7 12.59 22.82 13.05 22.99 12.07 22.27 11.37 23.26 11.23 23.7 10.33"/>
      <polygon class="cls-3" points="20.52 7.32 20.96 8.22 21.94 8.36 21.23 9.06 21.4 10.04 20.52 9.58 19.63 10.04 19.8 9.06 19.09 8.36 20.07 8.22 20.52 7.32"/>
    </g>
  </g>
</svg>