<?xml version="1.0" encoding="UTF-8"?>
<svg id="Layer_1" data-name="Layer 1" xmlns="http://www.w3.org/2000/svg" viewBox="0 0 32.5 32.5">
  <defs>
    <style>
      .cls-1 {
        fill: #00a19b;
      }

      .cls-2 {
        fill: #cb171c;
      }

      .cls-3 {
        fill: #00bab0;
      }

      .cls-4 {
        font-family: Labrada-Medium, Labrada;
        font-size: 2.06px;
        font-variation-settings: 'wght' 500;
        font-weight: 500;
      }

      .cls-4, .cls-5 {
        fill: #fff;
      }

      .cls-6 {
        fill: #04c7de;
      }

      .cls-5 {
        font-family: SourceSerifRoman-Semibold, 'Source Serif Variable';
        font-size: 1.43px;
        font-variation-settings: 'wght' 600;
        font-weight: 600;
      }

      .cls-7 {
        fill: #fdea0d;
      }

      .cls-8 {
        stroke: #95c21e;
      }

      .cls-8, .cls-9 {
        fill: none;
        stroke-miterlimit: 10;
        stroke-width: .33px;
      }

      .cls-9 {
        stroke: #006837;
      }

      .cls-10 {
        fill: #006634;
      }
    </style>
  </defs>
  <circle class="cls-3" cx="16.25" cy="16.25" r="16"/>
  <path class="cls-1" d="M30.28,8.55c.06-.02.88,1.73,1.33,3.21.52,1.68.6,3.05.62,3.74.04,1.66-.56,6.19-1.79,8.15-1.24,1.96-2.98,4.55-4.58,5.39-1.6.85-3.11,2.06-4.88,2.49-1.77.44-5.15,1-6.97.56-1.82-.45-4.66-.97-6.7-2.57-2.04-1.6-3.74-3.5-5.09-5.57-1.34-2.07-1.54-4-1.54-4,2.09.97,4.89,1.96,8.29,2.32,2.22.24,4.53.53,7.33-.27,2.47-.7,3.96-1.85,6.42-3.74,6.3-4.86,7.55-9.53,7.55-9.69,0,0,0-.01,0-.01Z"/>
  <text class="cls-5" transform="translate(6.25 9.43) rotate(-53.58)"><tspan x="0" y="0">C</tspan></text>
  <text class="cls-5" transform="translate(6.75 8.75) rotate(-49.4)"><tspan x="0" y="0">O</tspan></text>
  <text class="cls-5" transform="translate(7.36 8.03) rotate(-45.06)"><tspan x="0" y="0">R</tspan></text>
  <text class="cls-5" transform="translate(8.01 7.38) rotate(-40.92)"><tspan x="0" y="0">P</tspan></text>
  <text class="cls-5" transform="translate(8.64 6.83) rotate(-36.62)"><tspan x="0" y="0">O</tspan></text>
  <text class="cls-5" transform="translate(9.4 6.26) rotate(-32.19)"><tspan x="0" y="0">R</tspan></text>
  <text class="cls-5" transform="translate(10.18 5.77) rotate(-27.79)"><tspan x="0" y="0">A</tspan></text>
  <text class="cls-5" transform="translate(10.91 5.38) rotate(-24.05)"><tspan x="0" y="0">T</tspan></text>
  <text class="cls-5" transform="translate(11.67 5.04) rotate(-20.14)"><tspan x="0" y="0">E</tspan></text>
  <text class="cls-5" transform="translate(12.47 4.76) rotate(-17.39)"><tspan x="0" y="0"> </tspan></text>
  <text class="cls-5" transform="translate(12.75 4.66) rotate(-14.99)"><tspan x="0" y="0">S</tspan></text>
  <text class="cls-5" transform="translate(13.43 4.47) rotate(-11.05)"><tspan x="0" y="0">O</tspan></text>
  <text class="cls-5" transform="translate(14.42 4.28) rotate(-6.6)"><tspan x="0" y="0">C</tspan></text>
  <text class="cls-5" transform="translate(15.28 4.19) rotate(-3.36)"><tspan x="0" y="0">I</tspan></text>
  <text class="cls-5" transform="translate(15.79 4.15) rotate(.06)"><tspan x="0" y="0">A</tspan></text>
  <text class="cls-5" transform="translate(16.69 4.15) rotate(4.01)"><tspan x="0" y="0">L</tspan></text>
  <text class="cls-5" transform="translate(17.53 4.22) rotate(6.76)"><tspan x="0" y="0"> </tspan></text>
  <text class="cls-5" transform="translate(17.8 4.24) rotate(9.54)"><tspan x="0" y="0">R</tspan></text>
  <text class="cls-5" transform="translate(18.71 4.4) rotate(13.72)"><tspan x="0" y="0">E</tspan></text>
  <text class="cls-5" transform="translate(19.51 4.59) rotate(17.41)"><tspan x="0" y="0">S</tspan></text>
  <text class="cls-5" transform="translate(20.21 4.81) rotate(21.13)"><tspan x="0" y="0">P</tspan></text>
  <text class="cls-5" transform="translate(20.98 5.1) rotate(25.41)"><tspan x="0" y="0">O</tspan></text>
  <text class="cls-5" transform="translate(21.81 5.49) rotate(29.91)"><tspan x="0" y="0">N</tspan></text>
  <text class="cls-5" transform="translate(22.67 5.99) rotate(33.88)"><tspan x="0" y="0">S</tspan></text>
  <text class="cls-5" transform="translate(23.27 6.39) rotate(36.79)"><tspan x="0" y="0">I</tspan></text>
  <text class="cls-5" transform="translate(23.69 6.7) rotate(40.05)"><tspan x="0" y="0">B</tspan></text>
  <text class="cls-5" transform="translate(24.35 7.26) rotate(43.22)"><tspan x="0" y="0">I</tspan></text>
  <text class="cls-5" transform="translate(24.73 7.61) rotate(46.38)"><tspan x="0" y="0">L</tspan></text>
  <text class="cls-5" transform="translate(25.27 8.19) rotate(49.44)"><tspan x="0" y="0">I</tspan></text>
  <text class="cls-5" transform="translate(25.6 8.57) rotate(52.66)"><tspan x="0" y="0">T</tspan></text>
  <text class="cls-5" transform="translate(26.12 9.24) rotate(56.75)"><tspan x="0" y="0">Y</tspan></text>
  <text class="cls-5" transform="translate(26.58 9.95) rotate(59.4)"><tspan x="0" y="0"> </tspan></text>
  <text class="cls-4" transform="translate(9.85 27.86) rotate(26.21)"><tspan x="0" y="0">C</tspan></text>
  <text class="cls-4" transform="translate(11.03 28.44) rotate(20.46)"><tspan x="0" y="0">E</tspan></text>
  <text class="cls-4" transform="translate(12.33 28.92) rotate(14.23)"><tspan x="0" y="0">R</tspan></text>
  <text class="cls-4" transform="translate(13.73 29.27) rotate(8.26)"><tspan x="0" y="0">T</tspan></text>
  <text class="cls-4" transform="translate(14.98 29.44) rotate(3.73)"><tspan x="0" y="0">I</tspan></text>
  <text class="cls-4" transform="translate(15.85 29.5) rotate(-.75)"><tspan x="0" y="0">F</tspan></text>
  <text class="cls-4" transform="translate(17.01 29.47) rotate(-5.04)"><tspan x="0" y="0">I</tspan></text>
  <text class="cls-4" transform="translate(17.85 29.41) rotate(-9.65)"><tspan x="0" y="0">C</tspan></text>
  <text class="cls-4" transform="translate(19.18 29.18) rotate(-15.64)"><tspan x="0" y="0">A</tspan></text>
  <text class="cls-4" transform="translate(20.46 28.82) rotate(-21.12)"><tspan x="0" y="0">T</tspan></text>
  <text class="cls-4" transform="translate(21.66 28.35) rotate(-26.82)"><tspan x="0" y="0">E</tspan></text>
  <circle class="cls-8" cx="16.25" cy="16.25" r="14.45"/>
  <path class="cls-6" d="M8.49,20.4c2.94.6,5.3.29,6.69,0,4.1-.87,6.71-3.46,7.93-4.62.7-.66,1.23-1.26,1.59-1.7-.19-.85-.81-3.01-2.8-4.66-1.45-1.2-2.96-1.58-3.73-1.76-.77-.18-2.18-.49-3.95-.11-.38.08-2.38.54-4.17,2.3-.3.3-1.52,1.54-2.23,3.6-.28.83-1.09,3.19-.08,5.62.24.58.53,1.03.75,1.33Z"/>
  <path class="cls-10" d="M16.25,25.53c-5.12,0-9.29-4.17-9.29-9.29s4.17-9.29,9.29-9.29,9.29,4.17,9.29,9.29-4.17,9.29-9.29,9.29ZM16.8,19.94s-.07.01-.09.04c-.03.03-.04.06-.04.1v4.42s.02.08.05.1c.02.02.05.03.08.03,0,0,.02,0,.03,0,1.41-.32,2.71-1.83,3.47-4.04.01-.04,0-.07,0-.11-.02-.03-.05-.06-.08-.07-1.06-.27-2.2-.43-3.4-.47,0,0,0,0,0,0ZM15.69,19.94c-1.2.04-2.34.2-3.4.47-.04,0-.07.03-.08.07-.02.03-.02.07,0,.11.76,2.21,2.05,3.72,3.47,4.04,0,0,.02,0,.03,0,.03,0,.06-.01.08-.03.03-.03.05-.06.05-.1v-4.42s-.01-.07-.04-.1c-.03-.02-.06-.04-.09-.04,0,0,0,0,0,0ZM11.25,20.74s-.03,0-.05,0c-.53.19-1.02.41-1.44.66-.03.02-.06.05-.06.09,0,.04,0,.08.03.11.81.99,1.86,1.79,3.02,2.32.02,0,.04.01.06.01.04,0,.08-.02.11-.05.04-.05.04-.12,0-.17-.63-.78-1.15-1.75-1.53-2.9-.01-.03-.04-.06-.07-.08-.02,0-.04-.01-.06-.01ZM21.25,20.73s-.04,0-.06.01c-.03.02-.06.04-.07.08-.38,1.15-.9,2.12-1.53,2.9-.04.05-.04.12,0,.17.03.03.07.05.11.05.02,0,.04,0,.06-.01,1.16-.53,2.21-1.34,3.02-2.32.03-.03.04-.07.03-.11,0-.04-.03-.07-.06-.09-.43-.25-.92-.47-1.44-.66-.01,0-.03,0-.05,0ZM21.96,16.67c-.07,0-.13.06-.13.13-.03,1.03-.17,2.03-.4,2.98-.02.07.02.13.09.16.65.23,1.23.5,1.74.8.02.01.05.02.07.02.04,0,.09-.02.11-.06.72-1.17,1.15-2.51,1.24-3.88,0-.04-.01-.07-.04-.1-.03-.03-.06-.04-.1-.04h-2.59ZM7.96,16.67s-.07.02-.1.04c-.03.03-.04.06-.04.1.09,1.37.52,2.71,1.24,3.88.03.04.07.06.11.06.02,0,.05,0,.07-.02.51-.3,1.09-.57,1.74-.8.06-.02.1-.09.09-.16-.23-.95-.36-1.95-.4-2.98,0-.07-.06-.13-.13-.13h-2.59ZM11.65,16.67s-.07.01-.1.04c-.03.03-.04.06-.04.1.04.93.16,1.84.37,2.71,0,.03.03.07.06.08.02.01.04.02.07.02.01,0,.02,0,.03,0,1.15-.3,2.37-.47,3.65-.51.07,0,.13-.06.13-.13v-2.17c0-.07-.06-.13-.13-.13h-4.04ZM16.8,16.67c-.07,0-.13.06-.13.13v2.17c0,.07.06.13.13.13,1.28.04,2.5.21,3.65.51.01,0,.02,0,.03,0,.02,0,.05,0,.07-.02.03-.02.05-.05.06-.08.21-.86.33-1.77.37-2.71,0-.04-.01-.07-.04-.1-.03-.03-.06-.04-.1-.04h-4.04ZM23.32,11.74s-.05,0-.07.02c-.51.3-1.09.57-1.74.8-.06.02-.1.09-.09.16.23.95.36,1.95.4,2.98,0,.07.06.13.13.13h2.59s.07-.02.1-.04c.03-.03.04-.06.04-.1-.09-1.37-.52-2.71-1.24-3.88-.03-.04-.07-.06-.11-.06ZM20.48,12.88s-.02,0-.03,0c-1.14.3-2.37.47-3.65.51-.07,0-.13.06-.13.13v2.17c0,.07.06.13.13.13h4.04s.07-.01.1-.04c.03-.03.04-.06.04-.1-.04-.93-.16-1.84-.37-2.71,0-.03-.03-.07-.06-.08-.02-.01-.04-.02-.07-.02ZM12.02,12.88s-.05,0-.07.02c-.03.02-.05.05-.06.08-.21.86-.33,1.77-.37,2.71,0,.04.01.07.04.1.03.03.06.04.1.04h4.04c.07,0,.13-.06.13-.13v-2.17c0-.07-.06-.13-.13-.13-1.28-.04-2.5-.21-3.65-.51-.01,0-.02,0-.03,0ZM9.18,11.74s-.09.02-.11.06c-.72,1.17-1.15,2.51-1.24,3.88,0,.04.01.07.04.1.03.03.06.04.1.04h2.59c.07,0,.13-.06.13-.13.03-1.03.17-2.03.4-2.98.02-.07-.02-.13-.09-.16-.65-.23-1.23-.5-1.74-.8-.02-.01-.05-.02-.07-.02ZM16.8,7.86s-.06.01-.08.03c-.03.03-.05.06-.05.1v4.42s.01.07.04.1c.03.02.06.04.09.04,0,0,0,0,0,0,1.2-.04,2.34-.19,3.4-.47.04,0,.07-.03.08-.07.02-.03.02-.07,0-.11-.76-2.21-2.05-3.72-3.47-4.04,0,0-.02,0-.03,0ZM15.7,7.86s-.02,0-.03,0c-1.41.32-2.71,1.83-3.47,4.04-.01.04,0,.07,0,.11.02.03.05.06.08.07,1.06.27,2.2.43,3.4.47,0,0,0,0,0,0,.03,0,.07-.01.09-.04.03-.03.04-.06.04-.1v-4.42s-.02-.08-.05-.1c-.02-.02-.05-.03-.08-.03ZM19.7,8.55s-.08.02-.11.05c-.04.05-.04.12,0,.17.63.78,1.15,1.75,1.53,2.9.01.03.04.06.07.08.02,0,.04.01.06.01.02,0,.03,0,.05,0,.53-.19,1.01-.41,1.44-.66.03-.02.06-.05.06-.09,0-.04,0-.08-.03-.11-.81-.99-1.86-1.79-3.02-2.32-.02,0-.04-.01-.06-.01ZM12.8,8.55s-.04,0-.06.01c-1.16.53-2.21,1.34-3.02,2.32-.03.03-.04.07-.03.11,0,.04.03.07.06.09.43.25.91.47,1.44.66.01,0,.03,0,.05,0,.02,0,.04,0,.06-.01.03-.02.06-.04.07-.08.38-1.15.9-2.12,1.53-2.9.04-.05.04-.12,0-.17-.03-.03-.07-.05-.11-.05Z"/>
  <circle class="cls-9" cx="16.25" cy="16.25" r="16"/>
  <path class="cls-2" d="M14.33,21.61l-1.19,1.06,1.46,2.38,5.83-4.77c-1.82,1.11-3.65,2.22-5.47,3.33-.21-.67-.41-1.33-.62-2Z"/>
  <path class="cls-7" d="M20.26,23.73s.82,1.09,2.18.82c1.32-.26,2.08-1.33,2.39-1.84.6-.98.65-1.96.68-2.45.04-.79-.08-1.47-.14-1.77-.07-.38-.41-1.64-.41-1.64h-.27c-.05-.23-.09-.45-.14-.68-.14.05-.27.09-.41.14v.27l-.27.14c.15,1.07.16,1.95.14,2.59-.03.88-.12,1.32-.25,1.71-.17.51-.4.9-.57,1.15-.08-.74-.13-1.51-.14-2.32,0-.14,0-.27,0-.41h-.55c-.07.99-.34,1.73-.55,2.18-.24.52-.48.86-.55.95-.4.56-.84.93-1.16,1.16Z"/>
  <path class="cls-7" d="M12.24,23.84s-.82,1.09-2.18.82c-1.32-.26-2.08-1.33-2.39-1.84-.6-.98-.65-1.96-.68-2.45-.04-.79.08-1.47.14-1.77.07-.38.41-1.64.41-1.64h.27c.05-.23.09-.45.14-.68.14.05.27.09.41.14v.27s.27.14.27.14c-.15,1.07-.16,1.95-.14,2.59.03.88.12,1.32.25,1.71.17.51.4.9.57,1.15.08-.74.13-1.51.14-2.32,0-.14,0-.27,0-.41h.55c.07.99.34,1.73.55,2.18.24.52.48.86.55.95.4.56.84.93,1.16,1.16Z"/>
  <g>
    <polygon class="cls-7" points="3.69 15.19 3.93 15.95 4.73 15.95 4.08 16.41 4.33 17.17 3.69 16.7 3.04 17.17 3.29 16.41 2.65 15.95 3.44 15.95 3.69 15.19"/>
    <polygon class="cls-7" points="3.92 12.66 4.1 13.2 4.66 13.2 4.21 13.53 4.38 14.07 3.92 13.74 3.47 14.07 3.64 13.53 3.18 13.2 3.75 13.2 3.92 12.66"/>
    <polygon class="cls-7" points="4.84 10.28 4.97 10.68 5.38 10.68 5.04 10.92 5.17 11.32 4.84 11.07 4.5 11.32 4.63 10.92 4.29 10.68 4.71 10.68 4.84 10.28"/>
    <polygon class="cls-7" points="4.66 19.24 4.1 19.24 3.92 19.78 3.75 19.24 3.18 19.24 3.64 18.91 3.46 18.37 3.92 18.7 4.38 18.37 4.2 18.91 4.66 19.24"/>
    <polygon class="cls-7" points="5.29 21.65 4.88 21.65 4.75 22.05 4.62 21.65 4.2 21.65 4.54 21.41 4.41 21.01 4.75 21.26 5.09 21.01 4.96 21.41 5.29 21.65"/>
  </g>
  <g>
    <polygon class="cls-7" points="28.93 15.3 28.68 16.06 27.89 16.06 28.53 16.52 28.28 17.28 28.93 16.81 29.57 17.28 29.32 16.52 29.97 16.06 29.17 16.06 28.93 15.3"/>
    <polygon class="cls-7" points="28.69 12.77 28.51 13.31 27.95 13.31 28.41 13.64 28.23 14.18 28.69 13.85 29.15 14.18 28.97 13.64 29.43 13.31 28.86 13.31 28.69 12.77"/>
    <polygon class="cls-7" points="27.78 10.39 27.65 10.79 27.23 10.79 27.57 11.03 27.44 11.43 27.78 11.18 28.11 11.43 27.98 11.03 28.32 10.79 27.9 10.79 27.78 10.39"/>
    <polygon class="cls-7" points="27.95 19.35 28.52 19.35 28.69 19.89 28.87 19.35 29.43 19.35 28.98 19.02 29.15 18.48 28.69 18.81 28.23 18.48 28.41 19.02 27.95 19.35"/>
    <polygon class="cls-7" points="27.32 21.76 27.74 21.76 27.86 22.16 27.99 21.76 28.41 21.76 28.07 21.52 28.2 21.12 27.86 21.37 27.53 21.12 27.66 21.52 27.32 21.76"/>
  </g>
</svg>