<?xml version="1.0" encoding="UTF-8"?>
<svg id="Layer_1" data-name="Layer 1" xmlns="http://www.w3.org/2000/svg" viewBox="0 0 32.5 32.5">
  <defs>
    <style>
      .cls-1 {
        fill: #fefefe;
      }

      .cls-2 {
        fill: #008a5e;
      }
    </style>
  </defs>
  <polygon class="cls-2" points=".38 16.06 10.85 5.59 32.12 5.59 21.65 16.06 32.12 26.91 10.78 26.91 .38 16.06"/>
  <polygon class="cls-1" points="1.82 15.77 9.86 15.77 12.11 13.52 6.97 13.4 8.37 12.09 12.85 12.09 15.04 9.9 10.44 9.79 11.94 8.41 17.05 8.41 19.3 6.11 11.31 6.11 1.82 15.77"/>
  <polygon class="cls-1" points="1.82 16.57 9.86 16.57 12.11 18.82 6.97 18.94 8.37 20.25 12.85 20.25 15.04 22.44 10.44 22.55 11.94 23.93 17.05 23.93 19.3 26.23 11.31 26.23 1.82 16.57"/>
  <polygon class="cls-1" points="11.92 15.77 14.74 15.77 19.87 10.82 17.99 15.77 20.98 15.77 30.33 6.23 27.73 6.11 22.4 11.17 24.55 6.11 21.37 6.11 11.92 15.77"/>
  <path class="cls-1" d="M21.25,20.14c-.44-.37-.85-.63-1.15-.8-.97-.57-1.55-.66-1.72-.69-.38-.05-.87-.12-1.03.11-.13.19-.03.56.46,1.26,1.24,1.8,2.86,2.73,3.1,2.87.26.15,2.7,1.51,3.22.92.13-.15.12-.38.11-.46-.03-.63-.72-.99-.8-1.03h2.87s1.26,1.15,1.49,2.41-1.03,1.72-1.61,1.72-3.22,0-5.29-1.15-4.71-3.1-5.98-5.06c0,0-.4-.52-.75-1.32-.48-1.09-.34-1.55-.28-1.73.11-.28.28-.46.34-.52.69-.69,1.88-.46,2.67-.4.78.06,3.2.75,4.69,1.67s2.53,2.18,2.53,2.18h-2.87Z"/>
</svg>