<?xml version="1.0" encoding="UTF-8"?>
<svg id="Layer_1" data-name="Layer 1" xmlns="http://www.w3.org/2000/svg" viewBox="0 0 32.5 32.5">
  <defs>
    <style>
      .cls-1 {
        stroke: #fff;
        stroke-miterlimit: 10;
        stroke-width: .1px;
      }

      .cls-1, .cls-2 {
        fill: none;
      }

      .cls-3, .cls-4, .cls-5, .cls-6 {
        fill: #fff;
      }

      .cls-3, .cls-7, .cls-2 {
        fill-rule: evenodd;
      }

      .cls-4 {
        font-size: 2.1px;
      }

      .cls-4, .cls-5, .cls-6 {
        font-family: Roboto-Bold, Roboto;
        font-weight: 700;
      }

      .cls-5 {
        font-size: 2.69px;
      }

      .cls-6 {
        font-size: 2.69px;
      }

      .cls-7 {
        fill: #349344;
      }

      .cls-8 {
        letter-spacing: -.02em;
      }

      .cls-2 {
        stroke: #349344;
        stroke-linecap: round;
        stroke-linejoin: round;
        stroke-width: .21px;
      }

      .cls-9 {
        fill: #fdfffe;
        font-family: Roboto-Medium, Roboto;
        font-size: 6.42px;
        font-weight: 500;
      }
    </style>
  </defs>
  <g>
    <polygon class="cls-7" points="4.38 5.79 4.36 7.08 3.16 7.36 3.3 8.64 2.15 9.07 2.45 10.32 1.36 10.89 1.81 12.1 .81 12.8 1.41 13.94 .5 14.76 1.24 15.82 .43 16.75 1.3 17.71 .62 18.73 1.6 19.57 1.05 20.66 2.13 21.38 1.73 22.53 2.89 23.11 2.63 24.31 3.85 24.73 3.75 25.95 5.01 26.22 5.06 27.44 6.35 27.55 6.55 28.75 7.84 28.7 8.19 29.87 9.47 29.65 9.97 30.77 11.2 30.4 11.84 31.45 13.02 30.92 13.77 31.88 14.88 31.21 15.75 32.07 16.77 31.26 17.74 32 18.64 31.08 19.7 31.69 20.48 30.66 21.61 31.14 22.25 30.02 23.43 30.35 23.93 29.16 25.14 29.34 25.49 28.09 26.71 28.12 26.9 26.84 28.12 26.71 28.14 25.42 29.34 25.14 29.2 23.86 30.35 23.43 30.05 22.18 31.14 21.61 30.69 20.4 31.69 19.7 31.09 18.56 32 17.74 31.26 16.68 32.07 15.75 31.2 14.79 31.88 13.77 30.9 12.93 31.45 11.84 30.37 11.12 30.77 9.97 29.61 9.39 29.87 8.19 28.65 7.77 28.75 6.55 27.49 6.28 27.44 5.06 26.15 4.95 25.95 3.75 24.66 3.8 24.31 2.63 23.03 2.85 22.53 1.73 21.3 2.1 20.66 1.05 19.48 1.58 18.73 .62 17.62 1.29 16.75 .43 15.73 1.24 14.76 .5 13.86 1.42 12.8 .81 12.02 1.84 10.89 1.36 10.25 2.48 9.07 2.15 8.57 3.34 7.36 3.16 7.01 4.41 5.79 4.38 5.6 5.66 4.38 5.79 4.38 5.79"/>
    <path class="cls-3" d="M1.67,16.25C1.67,8.2,8.2,1.67,16.25,1.67s14.58,6.53,14.58,14.58-6.53,14.58-14.58,14.58S1.67,24.3,1.67,16.25h0ZM30.62,16.25c0-7.93-6.44-14.37-14.37-14.37S1.88,8.32,1.88,16.25s6.44,14.37,14.37,14.37,14.37-6.44,14.37-14.37h0Z"/>
  </g>
  <text class="cls-5" transform="translate(7.61 22.03) rotate(-118.78)"><tspan x="0" y="0">G</tspan></text>
  <text class="cls-5" transform="translate(6.7 20.37) rotate(-108.24)"><tspan x="0" y="0">O</tspan></text>
  <text class="cls-5" transform="translate(6.12 18.61) rotate(-97.91)"><tspan x="0" y="0">O</tspan></text>
  <text class="cls-5" transform="translate(5.87 16.73) rotate(-87.76)"><tspan x="0" y="0">D</tspan></text>
  <text class="cls-5" transform="translate(5.97 14.95) rotate(-80.93)"><tspan x="0" y="0"> </tspan></text>
  <text class="cls-5" transform="translate(6.02 14.26) rotate(-72.54)"><tspan x="0" y="0">M</tspan></text>
  <text class="cls-5" transform="translate(6.77 11.97) rotate(-60.74)"><tspan x="0" y="0">A</tspan></text>
  <text class="cls-5" transform="translate(7.69 10.34) rotate(-50.11)"><tspan x="0" y="0">N</tspan></text>
  <text class="cls-5" transform="translate(8.91 8.89) rotate(-40)"><tspan x="0" y="0">U</tspan></text>
  <text class="cls-5" transform="translate(10.3 7.74) rotate(-30.95)"><tspan x="0" y="0">F</tspan></text>
  <text class="cls-5" transform="translate(11.37 7.07) rotate(-23.04)"><tspan x="0" y="0">A</tspan></text>
  <text class="cls-5" transform="translate(13.03 6.36) rotate(-13.13)"><tspan x="0" y="0">C</tspan></text>
  <text class="cls-5" transform="translate(14.73 5.97) rotate(-3.77)"><tspan x="0" y="0">T</tspan></text>
  <text class="cls-5" transform="translate(16.42 5.86) rotate(5.83)"><tspan x="0" y="0">U</tspan></text>
  <text class="cls-5" transform="translate(18.21 6.05) rotate(15.58)"><tspan x="0" y="0">R</tspan></text>
  <text class="cls-5" transform="translate(19.88 6.54) rotate(22.65)"><tspan x="0" y="0">I</tspan></text>
  <text class="cls-5" transform="translate(20.63 6.82) rotate(30.14)"><tspan x="0" y="0">N</tspan></text>
  <text class="cls-5" transform="translate(22.29 7.78) rotate(40.62)"><tspan x="0" y="0">G</tspan></text>
  <text class="cls-5" transform="translate(23.69 9.04) rotate(47.83)"><tspan x="0" y="0"> </tspan></text>
  <text class="cls-5" transform="translate(24.16 9.51) rotate(54.35)"><tspan x="0" y="0">P</tspan></text>
  <text class="cls-5" transform="translate(25.2 10.96) rotate(64.1)"><tspan x="0" y="0">R</tspan></text>
  <text class="cls-5" transform="translate(25.96 12.53) rotate(74.06)"><tspan x="0" y="0">A</tspan></text>
  <text class="cls-5" transform="translate(26.45 14.25) rotate(83.82)"><tspan x="0" y="0">C</tspan></text>
  <text class="cls-5" transform="translate(26.64 16) rotate(93.27)"><tspan x="0" y="0">T</tspan></text>
  <text class="cls-5" transform="translate(26.51 17.68) rotate(100.11)"><tspan x="0" y="0">I</tspan></text>
  <text class="cls-5" transform="translate(26.4 18.46) rotate(107.12)"><tspan x="0" y="0">C</tspan></text>
  <text class="cls-5" transform="translate(25.86 20.19) rotate(116.47)"><tspan x="0" y="0">E</tspan></text>
  <text class="cls-5" transform="translate(25.16 21.55) rotate(122.6)"><tspan x="0" y="0"> </tspan></text>
  <text class="cls-6" transform="translate(9.36 26.03) rotate(30.98)"><tspan x="0" y="0">C</tspan></text>
  <text class="cls-6" transform="translate(11.13 27.05) rotate(21.77)"><tspan x="0" y="0">E</tspan></text>
  <text class="cls-6" transform="translate(12.79 27.7) rotate(12.69)"><tspan x="0" y="0">R</tspan></text>
  <text class="cls-6" transform="translate(14.66 28.1) rotate(3.6)"><tspan x="0" y="0">T</tspan></text>
  <text class="cls-6" transform="translate(16.54 28.18) rotate(-3.3)"><tspan x="0" y="0">I</tspan></text>
  <text class="cls-6" transform="translate(17.52 28.14) rotate(-9.64)"><tspan x="0" y="0">F</tspan></text>
  <text class="cls-6" transform="translate(19.15 27.83) rotate(-15.94)"><tspan x="0" y="0">I</tspan></text>
  <text class="cls-6" transform="translate(20.12 27.56) rotate(-22.45)"><tspan x="0" y="0">E</tspan></text>
  <text class="cls-6" transform="translate(21.74 26.88) rotate(-31.47)"><tspan x="0" y="0">D</tspan></text>
  <text class="cls-6" transform="translate(23.39 25.82) rotate(-38.33)"><tspan x="0" y="0"> </tspan></text>
  <circle class="cls-1" cx="16.25" cy="16.25" r="8.7"/>
  <g>
    <g>
      <path class="cls-3" d="M17.38,12.78l-.15-.04c-.09-.02-.19.02-.23.1l-.07.14c-.14.28-.53.33-.74.1l-.1-.11c-.06-.07-.17-.09-.25-.04l-.13.08c-.28.16-.63,0-.68-.32l-.02-.15c-.01-.09-.09-.16-.19-.17h-.15c-.32-.02-.52-.35-.4-.64l.06-.14c.04-.09,0-.19-.07-.24l-.13-.09c-.26-.18-.25-.57.01-.75l.13-.09c.08-.05.11-.15.07-.24l-.06-.14c-.12-.3.09-.62.41-.62h.15c.09,0,.17-.07.19-.16l.03-.15c.06-.31.41-.47.68-.3l.13.08c.08.05.18.04.25-.03l.11-.11c.22-.23.6-.17.74.12l.07.14c.04.08.13.13.23.11l.15-.04c.31-.08.6.18.56.5l-.02.15c-.01.09.04.18.13.21l.15.05c.3.1.41.48.2.72l-.1.12c-.06.07-.06.18,0,.25l.1.12c.2.25.08.62-.22.71l-.15.05c-.09.03-.15.11-.14.21l.02.15c.03.32-.26.57-.57.48Z"/>
      <polyline class="cls-2" points="15.19 10.89 15.91 11.61 17.31 10.21"/>
    </g>
    <text class="cls-9" transform="translate(9.2 18.45)"><tspan x="0" y="0">GMP</tspan></text>
  </g>
  <text class="cls-4" transform="translate(11.22 21.18)"><tspan x="0" y="0">CE</tspan><tspan class="cls-8" x="2.55" y="0">R</tspan><tspan x="3.84" y="0">TIFIED</tspan></text>
  <g>
    <polygon class="cls-3" points="16.84 23.3 16.3 22.92 15.77 23.32 15.96 22.69 15.42 22.31 16.08 22.3 16.28 21.66 16.49 22.29 17.15 22.28 16.63 22.67 16.84 23.3"/>
    <polygon class="cls-3" points="18.38 23 18.01 22.74 17.65 23.01 17.78 22.58 17.41 22.32 17.86 22.31 18 21.88 18.14 22.31 18.6 22.3 18.24 22.57 18.38 23"/>
    <polygon class="cls-3" points="19.75 23 19.38 22.74 19.02 23.01 19.15 22.58 18.78 22.32 19.23 22.31 19.37 21.88 19.51 22.31 19.97 22.3 19.6 22.57 19.75 23"/>
    <polygon class="cls-3" points="13.51 23 13.13 22.74 12.77 23.01 12.91 22.58 12.53 22.32 12.99 22.31 13.12 21.88 13.27 22.31 13.72 22.3 13.36 22.57 13.51 23"/>
    <polygon class="cls-3" points="14.88 23 14.5 22.74 14.14 23.01 14.27 22.58 13.9 22.32 14.36 22.31 14.49 21.88 14.64 22.31 15.09 22.3 14.73 22.57 14.88 23"/>
  </g>
  <polygon class="cls-3" points="24.55 22.7 24.78 23.41 25.53 23.41 24.93 23.85 25.16 24.56 24.55 24.12 23.95 24.56 24.18 23.85 23.57 23.41 24.32 23.41 24.55 22.7"/>
  <polygon class="cls-3" points="8.08 22.8 8.31 23.51 9.05 23.51 8.45 23.95 8.68 24.66 8.08 24.22 7.47 24.66 7.7 23.95 7.1 23.51 7.84 23.51 8.08 22.8"/>
</svg>