<?xml version="1.0" encoding="UTF-8"?>
<svg id="Layer_1" data-name="Layer 1" xmlns="http://www.w3.org/2000/svg" viewBox="0 0 32.5 32.5">
  <defs>
    <style>
      .cls-1 {
        font-size: 4.08px;
        letter-spacing: .03em;
      }

      .cls-1, .cls-2 {
        fill: #fff;
      }

      .cls-1, .cls-3, .cls-4 {
        font-family: ArchivoNarrow-Bold, 'Archivo Narrow';
        font-variation-settings: 'wght' 700;
        font-weight: 700;
      }

      .cls-3 {
        letter-spacing: .09em;
      }

      .cls-3, .cls-4 {
        fill: #fefeff;
        font-size: 4.95px;
      }

      .cls-4 {
        letter-spacing: .1em;
      }

      .cls-5 {
        fill: #8fd300;
      }
    </style>
  </defs>
  <rect class="cls-5" x=".66" y="1.59" width="31.17" height="29.33" rx="5.27" ry="5.27"/>
  <g>
    <g>
      <path class="cls-2" d="M16.25,6.69c3.24,0,5.88,2.64,5.88,5.88s-2.64,5.88-5.88,5.88-5.88-2.64-5.88-5.88,2.64-5.88,5.88-5.88M16.25,5.52c-3.89,0-7.04,3.15-7.04,7.04s3.15,7.04,7.04,7.04,7.04-3.15,7.04-7.04-3.15-7.04-7.04-7.04h0Z"/>
      <path class="cls-2" d="M10.42,14.75c.55-.33,1.33-.74,2.33-1.07,2.41-.8,4.41-.59,4.92-.53,2.11.25,3.67,1.07,4.52,1.6-.13.32-.32.75-.63,1.21-.25.38-.78,1.17-1.72,1.8-.96.63-1.86.77-2.53.87-.66.1-2.03.3-3.59-.29-.53-.2-1.37-.53-2.14-1.36-.78-.85-1.06-1.77-1.17-2.23Z"/>
      <text class="cls-4" transform="translate(13.76 11.15)"><tspan x="0" y="0">U</tspan></text>
      <text class="cls-3" transform="translate(16.66 12.37)"><tspan x="0" y="0">L</tspan></text>
      <path class="cls-5" d="M14.84,19.6h.19c.01-.51.04-1.1.1-1.75.04-.5.12-1.3.51-1.88.02-.03.04-.06.04-.06.09-.13.4-.55.91-.83.02-.01.04-.02.58-.29-.52.3-.82.66-.97.87-.31.43-.43.85-.49,1.07-.04.15-.19,1.07-.19,1.07.22.03.57.04.97-.1.87-.3,1.25-1.11,1.36-1.36.17-.39.17-.68.19-2.23-.19.03-.46.08-.78.15-.79.16-1.19.25-1.46.39-.14.07-.81.43-1.07,1.17-.12.35-.11.68-.1,1.17.01.37.06.6.1.87.06.41.12,1,.1,1.75Z"/>
    </g>
    <text class="cls-1" transform="translate(3.62 25.74)"><tspan x="0" y="0">GREENGUARD</tspan></text>
  </g>
</svg>