<?xml version="1.0" encoding="UTF-8"?>
<svg id="Layer_1" data-name="Layer 1" xmlns="http://www.w3.org/2000/svg" viewBox="0 0 32.5 32.5">
  <defs>
    <style>
      .cls-1 {
        fill: none;
        stroke: #1a1a1a;
        stroke-width: .11px;
      }

      .cls-1, .cls-2 {
        stroke-miterlimit: 10;
      }

      .cls-3 {
        fill: #79b41c;
      }

      .cls-4 {
        font-size: 2.13px;
      }

      .cls-4, .cls-5, .cls-6 {
        font-family: Roboto-Bold, Roboto;
        font-weight: 700;
      }

      .cls-4, .cls-5, .cls-7, .cls-2 {
        fill: #fff;
      }

      .cls-8 {
        fill: #4a5c0e;
        font-family: Roboto-Medium, Roboto;
        font-size: 4.66px;
        font-weight: 500;
        letter-spacing: .05em;
      }

      .cls-9 {
        fill: #797c7e;
      }

      .cls-5 {
        font-size: 3.52px;
      }

      .cls-10 {
        fill: #3f4f1d;
      }

      .cls-6 {
        fill: #7ab519;
        font-size: 8.37px;
        letter-spacing: .05em;
      }

      .cls-2 {
        stroke: #3f4f1d;
        stroke-width: .34px;
      }
    </style>
  </defs>
  <circle class="cls-9" cx="15.12" cy="16.25" r="14.81"/>
  <circle class="cls-2" cx="15.12" cy="16.42" r="11.05"/>
  <text class="cls-6" transform="translate(8.02 17.18)"><tspan x="0" y="0">ISO</tspan></text>
  <text class="cls-8" transform="translate(8.03 21.96)"><tspan x="0" y="0">13485</tspan></text>
  <text class="cls-5" transform="translate(5.27 10.36) rotate(-57.25)"><tspan x="0" y="0"> </tspan></text>
  <text class="cls-5" transform="translate(5.98 9.21) rotate(-46.96)"><tspan x="0" y="0">C</tspan></text>
  <text class="cls-5" transform="translate(7.89 7.27) rotate(-34.04)"><tspan x="0" y="0">E</tspan></text>
  <text class="cls-5" transform="translate(9.92 5.94) rotate(-21.25)"><tspan x="0" y="0">R</tspan></text>
  <text class="cls-5" transform="translate(12.34 5.04) rotate(-8.6)"><tspan x="0" y="0">T</tspan></text>
  <text class="cls-5" transform="translate(14.97 4.74) rotate(1.72)"><tspan x="0" y="0">I</tspan></text>
  <text class="cls-5" transform="translate(16.5 4.79) rotate(11.71)"><tspan x="0" y="0">F</tspan></text>
  <text class="cls-5" transform="translate(18.85 5.36) rotate(21.62)"><tspan x="0" y="0">I</tspan></text>
  <text class="cls-5" transform="translate(20.25 5.91) rotate(31.68)"><tspan x="0" y="0">E</tspan></text>
  <text class="cls-5" transform="translate(22.3 7.21) rotate(44.29)"><tspan x="0" y="0">D</tspan></text>
  <text class="cls-4" transform="translate(3.59 9.28) rotate(119.84)"><tspan x="0" y="0"> </tspan></text>
  <text class="cls-4" transform="translate(3.28 9.76) rotate(114.58)"><tspan x="0" y="0">M</tspan></text>
  <text class="cls-4" transform="translate(2.48 11.56) rotate(107.59)"><tspan x="0" y="0">E</tspan></text>
  <text class="cls-4" transform="translate(2.09 12.78) rotate(101.73)"><tspan x="0" y="0">D</tspan></text>
  <text class="cls-4" transform="translate(1.82 14.2) rotate(97.15)"><tspan x="0" y="0">I</tspan></text>
  <text class="cls-4" transform="translate(1.72 14.86) rotate(92.63)"><tspan x="0" y="0">C</tspan></text>
  <text class="cls-4" transform="translate(1.66 16.34) rotate(86.25)"><tspan x="0" y="0">A</tspan></text>
  <text class="cls-4" transform="translate(1.77 17.85) rotate(80.43)"><tspan x="0" y="0">L</tspan></text>
  <text class="cls-4" transform="translate(1.99 19.07) rotate(76.49)"><tspan x="0" y="0"> </tspan></text>
  <text class="cls-4" transform="translate(2.11 19.64) rotate(72.23)"><tspan x="0" y="0">D</tspan></text>
  <text class="cls-4" transform="translate(2.57 21.03) rotate(66.4)"><tspan x="0" y="0">E</tspan></text>
  <text class="cls-4" transform="translate(3.08 22.21) rotate(60.52)"><tspan x="0" y="0">V</tspan></text>
  <text class="cls-4" transform="translate(3.8 23.46) rotate(55.98)"><tspan x="0" y="0">I</tspan></text>
  <text class="cls-4" transform="translate(4.17 24.03) rotate(51.41)"><tspan x="0" y="0">C</tspan></text>
  <text class="cls-4" transform="translate(5.1 25.17) rotate(45.54)"><tspan x="0" y="0">E</tspan></text>
  <text class="cls-4" transform="translate(6 26.09) rotate(39.79)"><tspan x="0" y="0">S</tspan></text>
  <text class="cls-4" transform="translate(7.06 26.96) rotate(35.63)"><tspan x="0" y="0"> </tspan></text>
  <text class="cls-4" transform="translate(7.52 27.28) rotate(33.27)"><tspan x="0" y="0"> </tspan></text>
  <text class="cls-4" transform="translate(7.99 27.59) rotate(30.93)"><tspan x="0" y="0"> </tspan></text>
  <text class="cls-4" transform="translate(8.47 27.88) rotate(28.57)"><tspan x="0" y="0"> </tspan></text>
  <text class="cls-4" transform="translate(8.99 28.18) rotate(24.05)"><tspan x="0" y="0">Q</tspan></text>
  <text class="cls-4" transform="translate(10.4 28.8) rotate(17.59)"><tspan x="0" y="0">U</tspan></text>
  <text class="cls-4" transform="translate(11.81 29.24) rotate(11.2)"><tspan x="0" y="0">A</tspan></text>
  <text class="cls-4" transform="translate(13.27 29.52) rotate(5.41)"><tspan x="0" y="0">L</tspan></text>
  <text class="cls-4" transform="translate(14.47 29.63) rotate(1.42)"><tspan x="0" y="0">I</tspan></text>
  <text class="cls-4" transform="translate(15.13 29.65) rotate(-2.89)"><tspan x="0" y="0">T</tspan></text>
  <text class="cls-4" transform="translate(16.55 29.58) rotate(-8.89)"><tspan x="0" y="0">Y</tspan></text>
  <text class="cls-4" transform="translate(17.89 29.35) rotate(-13)"><tspan x="0" y="0"> </tspan></text>
  <text class="cls-4" transform="translate(18.5 29.24) rotate(-18.46)"><tspan x="0" y="0">M</tspan></text>
  <text class="cls-4" transform="translate(20.39 28.58) rotate(-26.02)"><tspan x="0" y="0">A</tspan></text>
  <text class="cls-4" transform="translate(21.75 27.92) rotate(-32.61)"><tspan x="0" y="0">N</tspan></text>
  <text class="cls-4" transform="translate(23.09 27.05) rotate(-39.29)"><tspan x="0" y="0">A</tspan></text>
  <text class="cls-4" transform="translate(24.27 26.08) rotate(-45.89)"><tspan x="0" y="0">G</tspan></text>
  <text class="cls-4" transform="translate(25.32 24.98) rotate(-51.84)"><tspan x="0" y="0">E</tspan></text>
  <text class="cls-4" transform="translate(26.14 23.96) rotate(-58.91)"><tspan x="0" y="0">M</tspan></text>
  <text class="cls-4" transform="translate(27.13 22.28) rotate(-65.59)"><tspan x="0" y="0">E</tspan></text>
  <text class="cls-4" transform="translate(27.66 21.11) rotate(-71.71)"><tspan x="0" y="0">N</tspan></text>
  <text class="cls-4" transform="translate(28.14 19.65) rotate(-77.93)"><tspan x="0" y="0">T</tspan></text>
  <g>
    <line class="cls-1" x1="23.95" y1="14.12" x2="29.79" y2="17.04"/>
    <path class="cls-10" d="M26.98,11.09l1.12-1.57c.4-.1,1.44-.29,2.47.22.18.09.55.28.9.67.51.58.63,1.22.67,1.46.32,1.83-1.16,3.38-1.47,3.7-.38.4-.76.67-1.01.84l-2.68-5.33Z"/>
    <path class="cls-3" d="M23.73,9.4l1.12,4.71,4.65,2.3c.21-1.44-.03-2.67-.38-3.42-.25-.53-.71-1.16-1.01-1.46-.08-.08-.15-.15-.23-.21,0,0-.27-.24-.62-.47-1.06-.7-2.3-1.12-2.3-1.12-.31-.1-.73-.23-1.23-.34Z"/>
  </g>
  <circle class="cls-7" cx="15.12" cy="27.02" r=".28"/>
</svg>