<?xml version="1.0" encoding="UTF-8"?>
<svg id="Layer_1" data-name="Layer 1" xmlns="http://www.w3.org/2000/svg" viewBox="0 0 33 33">
  <defs>
    <style>
      .cls-1 {
        font-size: 2.2px;
      }

      .cls-1, .cls-2, .cls-3 {
        font-family: Roboto-Medium, Roboto;
        font-weight: 500;
      }

      .cls-1, .cls-2, .cls-4 {
        fill: #073c5e;
      }

      .cls-2 {
        font-size: 2.25px;
      }

      .cls-5 {
        letter-spacing: .3em;
      }

      .cls-6 {
        letter-spacing: .28em;
      }

      .cls-3 {
        fill: #fff;
        font-size: 3.42px;
      }

      .cls-7 {
        fill: #f2f2f2;
      }
    </style>
  </defs>
  <g>
    <g>
      <path class="cls-7" d="M.73,19.78v-10.39c0-.49.4-.89.89-.89h26.22c.49,0,.89.4.89.89v10.39H.73Z"/>
      <path class="cls-4" d="M27.85,8.61c.43,0,.77.35.77.77v10.27H.86v-10.27c0-.43.35-.77.77-.77h26.22M27.85,8.37H1.63c-.56,0-1.02.46-1.02,1.02v10.51h28.26v-10.51c0-.56-.46-1.02-1.02-1.02h0Z"/>
    </g>
    <path class="cls-4" d="M.61,23.92c0,.56.46,1.02,1.02,1.02h26.22c.56,0,1.02-.46,1.02-1.02v-4.02H.61v4.02Z"/>
    <path class="cls-4" d="M10.4,10.04h-1.71c.13.14.3.35.42.64.19.44.2.84.2.99,0,.84.04,3.21.05,6.41l-3.4-3.35v-1.14l2.71,2.71s-.15-4.34-.2-4.73c-.02-.2-.08-.49-.24-.79-.11-.19-.21-.3-.25-.35-.24-.25-.49-.33-.54-.35-.02,0-.12-.04-.25-.05-.51-.05-3.49,0-3.7,0-.05,0-.33,0-.56.23-.14.14-.23.34-.23.56v6.81c0,.43.35.79.79.79h1.89c-.12-.13-.3-.34-.45-.64-.28-.57-.28-1.1-.28-1.31,0-2.01,0-6.04,0-6.04l3.39,3.4v1.14l-2.66-2.77c0,1.44.01,2.64,0,3.65,0,0-.02,1.16.44,1.87.07.12.19.29.39.44.11.08.22.13.28.15.16.07.3.09.36.09.78.1,2.16,0,3.55,0,.05,0,.33,0,.56-.23.14-.14.23-.34.23-.56v-6.81c0-.43-.35-.79-.79-.79Z"/>
    <text class="cls-1" transform="translate(12.25 13.78)"><tspan x="0" y="0">Near Field</tspan><tspan x="0" y="2.21">Communication</tspan></text>
    <text class="cls-3" transform="translate(2.69 23.38)"><tspan class="cls-5" x="0" y="0">CE</tspan><tspan class="cls-6" x="6.21" y="0">R</tspan><tspan class="cls-5" x="9.29" y="0">TIFIED</tspan></text>
  </g>
  <text class="cls-2" transform="translate(29.05 9.99)"><tspan x="0" y="0">TM</tspan></text>
</svg>