<?xml version="1.0" encoding="UTF-8"?>
<svg id="Layer_1" data-name="Layer 1" xmlns="http://www.w3.org/2000/svg" viewBox="0 0 33 33">
  <defs>
    <style>
      .cls-1 {
        fill: #7ac143;
      }
    </style>
  </defs>
  <path class="cls-1" d="M14.59,11.94c0-2.19-1.84-3.96-4.1-3.96s-4.1,1.77-4.1,3.96c0,1.76,1.19,3.25,2.83,3.76v2.88h2.26v-2.8c1.79-.43,3.11-1.98,3.11-3.84Z"/>
  <path class="cls-1" d="M22.04,16.18l-4.48-9.19-2.12,3.96c.08.39.16,1.05,0,1.84-.17.84-.52,1.4-.71,1.7-.55.86-1.23,1.4-1.7,1.7h3.39v2.4h2.26v-2.4h3.35Z"/>
  <path class="cls-1" d="M8.09,7.56l.85-.42s.57-.57,1.13-.99,1.13-.85,1.84-1.27,1.41-.71,1.84-.85c.24-.08.49-.16.78-.24.3-.08.55-.14.77-.18.82-.17,1.23-.25,1.7-.28.88-.06,1.56.06,1.98.14.37.07,1.04.2,1.84.57.54.25,1.76.82,2.69,2.12.48.68.71,1.3.85,1.7.13.38.39,1.13.42,2.12,0,.21,0,.37-.14,1.98h0l1.98-1.84,1.27,1.41s.42-1.84-.42-4.24c-.44-1.23-1.07-2.02-1.23-2.23-.19-.23-1.09-1.34-2.73-2.15-.17-.08-.81-.39-1.73-.64-.86-.23-2.32-.49-4.21-.21-1.03.15-2.24.44-3.53.99-.21.09-1.87.8-3.53,2.12-.66.52-1.14,1-1.27,1.13-.46.46-.83.89-1.13,1.27Z"/>
  <path class="cls-1" d="M5.41,12.36l.28,1.13c-.2,1.13-.11,2.04,0,2.61.09.5.49,2.5,2.12,3.89.44.37.87.62,1.06.73,0,0,.98.56,2.19.83,2.74.61,5.67-.46,5.94-.57.32-.12,1.88-.73,3.53-2.12.7-.59,1.84-1.55,2.69-3.11.04-.08.99-1.98.99-1.98h0l2.12-1.98,1.27,1.41s-.14,1.7-2.69,5.09c-.74.99-3.32,3.9-7.63,5.09-.98.27-2.52.68-4.52.42-.9-.11-2.82-.38-4.66-1.84-.47-.37-1.96-1.59-2.69-3.71-.36-1.04-.4-1.93-.42-2.5-.06-1.45.2-2.63.42-3.39Z"/>
  <path class="cls-1" d="M9.5,26.64c-.21-.35-.62-.57-.97-.69-.15-.05-.32-.09-.32-.09-.1-.02-.26-.05-.49-.06-.3-.01-1.39-.02-2.88,0v1.13h2.9c.35,0,.64.28.64.64s-.28.64-.64.64h-2.9v2.72h1.27v-1.46h1.55s1.13.02,1.7-.69.57-1.41.14-2.12Z"/>
  <polygon class="cls-1" points="11.13 25.78 15.79 25.78 15.79 26.93 12.61 26.93 12.61 27.77 14.8 27.77 14.8 28.9 12.57 28.9 12.57 29.75 15.86 29.75 15.86 30.91 11.13 30.91 11.13 25.78"/>
  <polygon class="cls-1" points="17.45 25.78 17.45 30.91 18.81 30.91 18.81 28.92 21.09 28.92 21.09 27.67 18.83 27.67 18.83 26.92 22.08 26.92 22.08 25.78 17.45 25.78"/>
  <path class="cls-1" d="M27.17,27.34l.99-.71c-.2-.22-.62-.62-1.27-.85-1.12-.39-2.09,0-2.4.14-.28.13-1,.46-1.41,1.27-.32.63-.28,1.22-.27,1.34.06.68.39,1.13.55,1.34.66.87,1.6,1.08,1.84,1.13.15.03.9.16,1.7-.14.2-.08.32-.15,1.27-.71h0c-.38-.24-.75-.47-1.13-.71-.12.09-.31.21-.57.28-.13.04-.8.24-1.41-.14-.13-.08-.43-.3-.6-.7-.1-.25-.11-.47-.11-.58,0-.13,0-.42.14-.71.27-.53.85-.68.99-.71.46-.1.84.04,1.13.14.24.09.44.2.57.28Z"/>
</svg>