<?xml version="1.0" encoding="UTF-8"?>
<svg id="Layer_1" data-name="Layer 1" xmlns="http://www.w3.org/2000/svg" viewBox="0 0 33 33">
  <defs>
    <style>
      .cls-1 {
        font-family: Roboto-Regular, Roboto;
        font-size: 3.02px;
      }

      .cls-2, .cls-3 {
        fill: #faa21c;
      }

      .cls-3 {
        font-family: Roboto-Black, Roboto;
        font-size: 3.84px;
        font-weight: 800;
      }

      .cls-4 {
        fill: #2ea243;
      }

      .cls-5 {
        font-family: Roboto-Medium, Roboto;
        font-size: 2.17px;
        font-weight: 500;
        letter-spacing: .1em;
      }
    </style>
  </defs>
  <path class="cls-4" d="M12.17,13.01c-.87,1.23-2.24,3.35-3.08,5.83-.35,1.04-.46,1.67-.62,2.67,0,0-.2,1.22.07,2.81,0,.05.03.21.07.21s.06-.17.07-.21c.15-.91.54-1.77.75-2.67.32-1.32,1.06-2.7,1.75-3.97.44-.82,2.5-3.84,2.5-3.84-.4,2.1-.69,3.94-.89,5.41-.17,1.2-.4,3-.26,5.28.02.4.13,2.11.4,2.12.23.01.5-1.23.69-2.06.19-.86.27-1.5.27-1.51.18-1.36.51-3.93,1.17-6.51.15-.57.37-1.38.69-2.35.17.67.42,1.73.69,3.04.33,1.64.39,2.25.62,3.63.12.74.15.83.27,1.51.47,2.73.56,4.25.82,4.25.06,0,.11-.08.14-.14.79-1.56-.14-8.22-.14-8.22-.14-1.01-.3-2.49-.34-4.32.49.68,1.19,1.69,1.99,2.95.81,1.29,1.22,1.93,1.51,2.6.25.6.97,2.28,1.1,3.97.02.25.07,1.16.21,1.17.03,0,.05-.04.07-.07.54-1.03.27-3.15.27-3.15-.08-.68-.15-1.21-.34-1.92-.18-.66-.38-1.15-.55-1.57-.09-.22-.34-.83-1.03-2.12-.77-1.45-1.57-2.81-1.57-2.81.86.57,1.49,1.12,1.91,1.51,1.06.99,2.92,2.73,3.36,5,.08.41.23,1.45.34,1.44.03,0,.05-.07.07-.21.35-2.07-.41-3.84-.41-3.84-.47-1.09-1.05-1.77-1.78-2.6-.54-.62-.95-.99-2.81-2.67,0,0,.82.14,1.64.55s1.92,1.1,2.47,1.78.69,1.1.82,1.78.27,1.51.27,1.51c0,0,0-1.64-.27-2.6s-.82-1.51-1.23-2.06-1.23-1.1-1.64-1.37-1.92-.82-1.92-.82c0,0,.41-.14,1.1,0s1.23.41,1.51.69.69.82.69.82c-.19-.44-.56-1.08-1.23-1.64-.96-.8-2.04-.99-2.4-1.03,0,0-.26-.02-.75-.07.2-.14.37-.19.48-.21.24-.04.44.02,1.03.21-.45-.36-.86-.53-1.17-.62-.25-.07-.65-.12-1.44-.21h-.55s.14-.27.27-.27.14,0-.27-.14-.69-.27-1.1-.14-.62.38-.62.38c0,0-.3-.5-1.01-.44s-1.12.33-1.12.33c0,0,.55.27.41.27h-.69c-.82-.11-1.36.04-1.71.21-.12.05-.2.11-1.03.62.44-.18.79-.21,1.03-.21.09,0,.16,0,.75.07,0,0-.41,0-1.64.41-.42.14-.77.27-1.19.53-.39.25-.66.5-.8.64-.2.19-.32.33-.89,1.03l-.14.27c.19-.22.46-.52.82-.82.34-.28.69-.57,1.17-.75.71-.27,1.39-.18,1.85-.07,0,0-.69,0-1.78.69-.4.25-.71.45-1.05.71-.53.4-.96.72-1.35,1.14-.86.94-1.15,1.99-1.3,2.54-.34,1.28-.25,2.39-.21,2.4.03,0,.05-.51.27-1.37.1-.38.2-.76.41-1.23.24-.52.49-.88.55-.96.43-.59.88-.95,1.16-1.17.87-.66,1.77-1.03,2.47-1.23l.55-.14s-1.37.96-2.47,2.06-1.51,2.06-2.06,3.15-.69,1.92-.69,2.47.14,1.78.14,1.78c0,0,0-1.37.82-3.02.32-.64.62-1.11.9-1.49.15-.2.56-.78,1.16-1.39,1.04-1.06,2.16-1.75,3.02-2.19Z"/>
  <g>
    <text class="cls-1" transform="translate(5.02 24.65) rotate(-119.2)"><tspan x="0" y="0">C</tspan></text>
    <text class="cls-1" transform="translate(3.98 22.74) rotate(-109.93)"><tspan x="0" y="0">E</tspan></text>
    <text class="cls-1" transform="translate(3.34 20.92) rotate(-100.85)"><tspan x="0" y="0">R</tspan></text>
    <text class="cls-1" transform="translate(2.98 19.02) rotate(-92.27)"><tspan x="0" y="0">T</tspan></text>
    <text class="cls-1" transform="translate(2.94 16.98) rotate(-85.38)"><tspan x="0" y="0">I</tspan></text>
    <text class="cls-1" transform="translate(3.02 15.93) rotate(-78.7)"><tspan x="0" y="0">F</tspan></text>
    <text class="cls-1" transform="translate(3.42 14.08) rotate(-72.02)"><tspan x="0" y="0">I</tspan></text>
    <text class="cls-1" transform="translate(3.74 13.07) rotate(-65.15)"><tspan x="0" y="0">E</tspan></text>
    <text class="cls-1" transform="translate(4.55 11.34) rotate(-55.96)"><tspan x="0" y="0">D</tspan></text>
    <text class="cls-1" transform="translate(5.83 9.54) rotate(-48.76)"><tspan x="0" y="0"> </tspan></text>
    <text class="cls-1" transform="translate(6.45 8.8) rotate(-42.09)"><tspan x="0" y="0">S</tspan></text>
    <text class="cls-1" transform="translate(7.96 7.46) rotate(-32.67)"><tspan x="0" y="0">U</tspan></text>
    <text class="cls-1" transform="translate(9.78 6.31) rotate(-23.28)"><tspan x="0" y="0">S</tspan></text>
    <text class="cls-1" transform="translate(11.61 5.54) rotate(-14.25)"><tspan x="0" y="0">T</tspan></text>
    <text class="cls-1" transform="translate(13.46 5.08) rotate(-5.26)"><tspan x="0" y="0">A</tspan></text>
    <text class="cls-1" transform="translate(15.65 4.93) rotate(2)"><tspan x="0" y="0">I</tspan></text>
    <text class="cls-1" transform="translate(16.68 4.93) rotate(9.59)"><tspan x="0" y="0">N</tspan></text>
    <text class="cls-1" transform="translate(19.03 5.36) rotate(20.03)"><tspan x="0" y="0">A</tspan></text>
    <text class="cls-1" transform="translate(21.06 6.12) rotate(29.64)"><tspan x="0" y="0">B</tspan></text>
    <text class="cls-1" transform="translate(22.86 7.18) rotate(38.51)"><tspan x="0" y="0">L</tspan></text>
    <text class="cls-1" transform="translate(24.28 8.32) rotate(46.88)"><tspan x="0" y="0">E</tspan></text>
    <text class="cls-1" transform="translate(25.59 9.79) rotate(53.55)"><tspan x="0" y="0"> </tspan></text>
    <text class="cls-1" transform="translate(26.19 10.55) rotate(60.53)"><tspan x="0" y="0">P</tspan></text>
    <text class="cls-1" transform="translate(27.13 12.22) rotate(69.36)"><tspan x="0" y="0">A</tspan></text>
    <text class="cls-1" transform="translate(27.87 14.26) rotate(78.43)"><tspan x="0" y="0">L</tspan></text>
    <text class="cls-1" transform="translate(28.26 16.05) rotate(88.92)"><tspan x="0" y="0">M</tspan></text>
    <text class="cls-1" transform="translate(28.23 18.89) rotate(97.42)"><tspan x="0" y="0"> </tspan></text>
    <text class="cls-1" transform="translate(28.14 19.85) rotate(104.79)"><tspan x="0" y="0">O</tspan></text>
    <text class="cls-1" transform="translate(27.49 22.06) rotate(112.4)"><tspan x="0" y="0">I</tspan></text>
    <text class="cls-1" transform="translate(27.1 23.05) rotate(119.04)"><tspan x="0" y="0">L</tspan></text>
    <text class="cls-3" transform="translate(9.7 28.9) rotate(22.05)"><tspan x="0" y="0">R</tspan></text>
    <text class="cls-3" transform="translate(12.81 30.04) rotate(7.24)"><tspan x="0" y="0">S</tspan></text>
    <text class="cls-3" transform="translate(15.97 30.34) rotate(-7.15)"><tspan x="0" y="0">P</tspan></text>
    <text class="cls-3" transform="translate(19.25 29.83) rotate(-22.58)"><tspan x="0" y="0">O</tspan></text>
    <rect class="cls-2" x="6.68" y="26.54" width=".82" height=".82"/>
    <rect class="cls-2" x="23.95" y="26.54" width=".82" height=".82"/>
  </g>
  <text class="cls-5" transform="translate(26.64 4.57)"><tspan x="0" y="0">TM</tspan></text>
</svg>