<?xml version="1.0" encoding="UTF-8"?>
<svg id="Layer_1" data-name="Layer 1" xmlns="http://www.w3.org/2000/svg" viewBox="0 0 32 32">
  <defs>
    <style>
      .cls-1 {
        font-size: 3.11px;
      }

      .cls-1, .cls-2, .cls-3 {
        font-family: Roboto-Bold, Roboto;
        font-weight: 700;
      }

      .cls-1, .cls-2, .cls-3, .cls-4 {
        isolation: isolate;
      }

      .cls-1, .cls-2, .cls-3, .cls-5 {
        fill: #fff;
      }

      .cls-2 {
        font-size: 3.11px;
      }

      .cls-3 {
        font-size: 3.11px;
      }

      .cls-6 {
        fill: #0583c6;
      }

      .cls-6, .cls-5 {
        stroke-width: 0px;
      }
    </style>
  </defs>
  <circle class="cls-5" cx="16" cy="16" r="15.7"/>
  <path class="cls-6" d="m16,29.17c-1.59,1.22-2.43,0-2.43,0,0,0-9.25-8.95-10.16-10.23-.91-1.28,1.01-2.94,1.99-3.31,1.01-.37,1.86.44,1.86.44l7.33,7.33,15.2-14.96C27.11,3.57,21.94.3,16,.3,7.32.3.3,7.32.3,16s7.02,15.7,15.7,15.7,15.7-7.02,15.7-15.7c0-.81-.07-1.59-.17-2.36-2.94,3.01-14.15,14.49-15.53,15.53Z"/>
  <g class="cls-4">
    <text class="cls-1" transform="translate(5.9 15.05) rotate(-78.67)"><tspan x="0" y="0">O</tspan></text>
  </g>
  <g class="cls-4">
    <text class="cls-3" transform="translate(6.34 12.96) rotate(-66.06)"><tspan x="0" y="0">N</tspan></text>
  </g>
  <g class="cls-4">
    <text class="cls-1" transform="translate(7.28 10.86) rotate(-54.65)"><tspan x="0" y="0">L</tspan></text>
  </g>
  <g class="cls-4">
    <text class="cls-1" transform="translate(8.33 9.45) rotate(-46.53)"><tspan x="0" y="0">I</tspan></text>
  </g>
  <g class="cls-4">
    <text class="cls-1" transform="translate(9.04 8.64) rotate(-37.09)"><tspan x="0" y="0">N</tspan></text>
  </g>
  <g class="cls-4">
    <text class="cls-1" transform="translate(10.9 7.28) rotate(-25.4)"><tspan x="0" y="0">E</tspan></text>
  </g>
  <g class="cls-4">
    <text class="cls-3" transform="translate(12.59 6.51) rotate(-17.1)"><tspan x="0" y="0">.</tspan></text>
  </g>
  <g class="cls-4">
    <text class="cls-3" transform="translate(13.54 6.17) rotate(-7.84)"><tspan x="0" y="0">G</tspan></text>
  </g>
  <g class="cls-4">
    <text class="cls-2" transform="translate(15.66 6) rotate(-3.16)"><tspan x="0" y="0">O</tspan></text>
  </g>
  <g class="cls-4">
    <text class="cls-3" transform="translate(17.96 6.07) rotate(16.63)"><tspan x="0" y="0">V</tspan></text>
  </g>
  <g class="cls-4">
    <text class="cls-1" transform="translate(19.65 6.61) rotate(24.01)"><tspan x="0" y="0">.</tspan></text>
  </g>
  <g class="cls-4">
    <text class="cls-1" transform="translate(20.6 6.98) rotate(33.04)"><tspan x="0" y="0">V</tspan></text>
  </g>
  <g class="cls-4">
    <text class="cls-3" transform="translate(22.38 8.13) rotate(45.3)"><tspan x="0" y="0">N</tspan></text>
  </g>
</svg>