<?xml version="1.0" encoding="UTF-8"?>
<svg id="Layer_1" data-name="Layer 1" xmlns="http://www.w3.org/2000/svg" xmlns:xlink="http://www.w3.org/1999/xlink" viewBox="0 0 32.5 32.5">
  <defs>
    <style>
      .cls-1 {
        fill: url(#linear-gradient-2);
      }

      .cls-2 {
        fill: url(#linear-gradient);
      }

      .cls-3 {
        fill: #8ec856;
        font-family: Roboto-Bold, Roboto;
        font-size: 1.29px;
        font-weight: 700;
      }

      .cls-4 {
        fill: #fcfeff;
      }
    </style>
    <linearGradient id="linear-gradient" x1="29.8" y1="8.96" x2="15.77" y2="21.75" gradientUnits="userSpaceOnUse">
      <stop offset="0" stop-color="#73bf44"/>
      <stop offset=".75" stop-color="#028b45"/>
    </linearGradient>
    <linearGradient id="linear-gradient-2" x1="12.12" y1="27.3" x2="4.39" y2="11.74" xlink:href="#linear-gradient"/>
  </defs>
  <path class="cls-2" d="M12.97,20.51c6.62-7.37,11.53-12.7,12.35-13.43.5-.44,1.08-.62,1.08-.62.17-.05.81-.22,1.54,0,.49.15.81.4,1.23.77,1.25,1.11,2.21,2.26,2.78,2.93l-14.05,15.59-1.85-1.39-3.09-3.86Z"/>
  <path class="cls-4" d="M19.4,20.52c-.04.15-.13.4-.32.65-.11.14-.3.39-.65.54-.14.06-.54.23-.83.04-.07-.05-.12-.11-.15-.15l1.54-1.7c-.07-.15-.3-.54-.77-.77-.13-.06-.41-.19-.77-.15-.78.09-1.16.92-1.19.98-.36.81.06,1.56.11,1.64.38.65,1.15,1.03,1.85.93.46-.07.78-.34.93-.46.47-.4.63-.9.68-1.1l-.43-.43ZM16.75,20.34c.05-.23.2-.38.23-.41.06-.05.16-.16.31-.19.23-.04.48.11.65.38l-.96,1.01s-.32-.37-.23-.79Z"/>
  <path class="cls-4" d="M24.56,14.71c-.04.15-.13.4-.32.65-.11.14-.3.39-.65.54-.14.06-.54.23-.83.04-.07-.05-.12-.11-.15-.15l1.54-1.7c-.07-.15-.3-.54-.77-.77-.13-.06-.41-.19-.77-.15-.78.09-1.16.92-1.19.98-.36.81.06,1.56.11,1.64.38.65,1.15,1.03,1.85.93.46-.07.78-.34.93-.46.47-.4.63-.9.68-1.1l-.43-.43ZM21.91,14.53c.05-.23.2-.38.23-.41.06-.05.16-.16.31-.19.23-.04.48.11.65.38l-.96,1.01s-.32-.37-.23-.79Z"/>
  <path class="cls-4" d="M22.08,17.58c-.05-.19-.18-.82-.77-1.23-.15-.1-.63-.44-1.23-.31-.49.11-.77.47-.83.56-.18.24-.23.46-.25.52-.06.27-.03.5,0,.62l-.31-.31-.54.54,3.01,3.32.62-.62-.98-1.12s.67-.08.98-.41c.31-.33.46-.94.31-1.56ZM21.31,18.51c-.12.27-.4.43-.62.46-.65.11-1.51-.68-1.39-1.39.04-.25.21-.51.46-.62.56-.25,1.34.32,1.54.93.03.11.11.36,0,.62Z"/>
  <path class="cls-4" d="M27.52,12.72c-.48-.48-.83-.89-1.08-1.18-.28-.34-.68-.85-1.18-.97-.16-.04-.28-.03-.32-.02-.29.03-.49.21-.65.35-.05.04-.19.17-.43.54-.12.18-.27.43-.43.75l.54.32c.03-.08.3-.83.65-1.08.06-.05.18-.13.32-.11.1.01.18.07.22.11l.22.22c-.22.2-.56.56-.75,1.08-.16.41-.12.67-.11.75.01.07.04.19.11.32.04.07.33.62.86.65.36.02.63-.22.75-.32.21-.18.3-.38.32-.43.08-.19.1-.35.11-.43.01-.11,0-.21,0-.28l.32.28.54-.54ZM25.91,13.48s-.25.12-.45,0c-.17-.11-.2-.32-.2-.42,0-.43.43-.97.43-.97.35.2.57.53.54.86,0,.05-.04.4-.32.54Z"/>
  <path class="cls-4" d="M25.91,7.99l-.43.86.43.54-.32.32.43.43.32-.32s1.29,1.51,1.61,1.61.65,0,.86-.22.43-.65.43-.65l-.43-.43s-.43.54-.65.43-1.29-1.29-1.29-1.29l.65-.65-.48-.48-.54.54-.59-.7Z"/>
  <path class="cls-1" d="M.54,17.19s2.39-2.7,2.55-2.86c.47-.47.92-.78,1.54-.93.86-.2,1.6.06,1.85.15.83.31,1.34.86,1.54,1.08.94,1.04,4.74,5.27,9.88,11.11h-9.61L.54,17.19Z"/>
  <text class="cls-3" transform="translate(4.85 25.79)"><tspan x="0" y="0">TM</tspan></text>
</svg>