<?xml version="1.0" encoding="UTF-8"?>
<svg id="Layer_1" data-name="Layer 1" xmlns="http://www.w3.org/2000/svg" viewBox="0 0 32.5 32.5">
  <defs>
    <style>
      .cls-1 {
        fill: #fff;
      }

      .cls-2 {
        fill: teal;
      }
    </style>
  </defs>
  <circle class="cls-2" cx="16.25" cy="16.25" r="16.09"/>
  <g>
    <path class="cls-1" d="M25.1,12.22c-.31-.41-1.84-2.37-4.61-2.79-.72-.11-2.74-.3-4.72.97-2.41,1.54-2.92,4.08-3,4.5-.48,2.63.67,5.24,2.57,6.76.55.44,2.05,1.49,4.18,1.5,3.31.02,5.32-2.46,5.58-2.79.5.39,1,.79,1.5,1.18-.36.42-3.36,3.79-7.83,3.43-2.4-.2-4.04-1.38-4.61-1.82-3.6-2.85-3.34-7.4-3.32-7.61.05-.63.32-3.39,2.57-5.58.28-.27,1.63-1.55,3.86-2.14,2.37-.64,4.3-.12,4.72,0,2.85.82,4.38,2.88,4.83,3.54-.57.29-1.14.57-1.72.86Z"/>
    <polygon class="cls-1" points="5.68 25.01 7.41 23.8 7.41 17.28 11.25 17.28 11.25 15.38 7.5 15.38 7.5 9.6 11.62 9.6 13.07 7.49 5.68 7.49 5.68 25.01"/>
    <path class="cls-1" d="M22.05,18.07c.48.41.97.82,1.45,1.23-.38.43-1.61,1.71-3.59,1.98-.54.08-1.88.26-3.22-.54-1.15-.69-1.63-1.72-1.82-2.14-.15-.33-1.11-2.55.16-4.77.09-.15,1.33-2.24,3.8-2.54,1.34-.16,2.7.35,3.65.98.64.43,1.18,1.07,1.18,1.07l-1.23,1.23c-.18-.22-1.01-1.17-2.41-1.34-.27-.03-1.77-.21-2.84.91-1.25,1.31-.72,3.09-.7,3.16.07.23.48,1.42,1.72,1.93,1.25.51,2.38-.06,2.68-.21.59-.3.97-.7,1.18-.97Z"/>
  </g>
</svg>