<?xml version="1.0" encoding="UTF-8"?>
<svg id="Layer_1" data-name="Layer 1" xmlns="http://www.w3.org/2000/svg" viewBox="0 0 32.5 32.5">
  <defs>
    <style>
      .cls-1 {
        fill: none;
        stroke: #fff;
        stroke-linecap: round;
        stroke-linejoin: round;
        stroke-width: .51px;
      }

      .cls-2 {
        fill: #fff;
      }

      .cls-3 {
        fill: #5d9ad3;
      }
    </style>
  </defs>
  <rect class="cls-3" x="-.16" y="-.16" width="32.82" height="32.82"/>
  <g>
    <circle class="cls-2" cx="16.23" cy="13.02" r="3.81"/>
    <path class="cls-1" d="M16.23,7.4c-.47,0-1.96.05-3.36,1.12-.22.17-1.59,1.24-2.03,3.17-.14.62-.15,1.16-.13,1.52"/>
    <path class="cls-1" d="M11.47,8.14c-.28.25-2.03,1.89-2.03,4.57,0,2.73,1.82,4.39,2.09,4.63"/>
    <path class="cls-1" d="M8.11,13.06c.05.71.21,1.87.83,3.12,1.13,2.3,3.03,3.41,3.87,3.82,1.59.78,3.07.9,3.94.89"/>
    <path class="cls-1" d="M21.94,13.02c-.03.94-.26,1.66-.44,2.09-.14.35-1.14,2.73-3.55,3.43-.63.18-1.18.2-1.52.18"/>
    <path class="cls-1" d="M20.99,8.14c.46.43,1.46,1.48,1.9,3.17.47,1.8.04,3.25-.13,3.81-.43,1.39-1.18,2.34-1.63,2.82"/>
    <path class="cls-1" d="M16.23,4.94c.65,0,1.69.1,2.86.53.66.24,2.37.91,3.68,2.67,1.5,2.02,1.51,4.19,1.48,4.89"/>
    <path class="cls-2" d="M12.3,24.96h-2.23v.76h1.21v1.02s-1.59.06-1.84-.06-.38-.76-.38-1.02-.13-1.52.38-1.78c0,0,.38-.13,1.02-.13h1.84v-.76c-1.02,0-1.77.01-2.31,0-.07,0-.23,0-.43.04-.13.03-.68.16-1.07.66-.22.28-.27.56-.34.91-.09.44-.11.98.03,1.56.25,1.14,1.4,1.4,1.4,1.4h2.73v-2.6Z"/>
    <path class="cls-2" d="M14.51,27.56h-1v-3.01c.04-.78.38-1.13.5-1.24.37-.33.82-.35,1.72-.38.63-.02,1.14.02,1.49.06v.93s-2.19-.17-2.44.09-.25.89-.25.89h2.69v.82h-2.69v1.85Z"/>
    <path class="cls-2" d="M22.33,22.93v.76c-.95.01-1.67,0-2.16,0-.41,0-.81-.01-1.02.25-.12.16-.19.46-.06.69.06.11.15.17.19.2.21.14.44.13.63.13.42-.01.85,0,1.27,0,.34,0,.49,0,.68.07.07.03.29.11.47.31.32.37.34.96.13,1.4-.19.4-.58.68-.94.74-.09.02-.15.02-.18.02-.46.01-1.63.03-3.2.06v-.82c1.37.04,2.41.02,2.93,0,.14,0,.45-.03.63-.25.03-.04.15-.19.13-.38,0-.03-.02-.16-.13-.25-.15-.15-.4-.14-.63-.13-.02,0-.08,0-.18,0-.05,0-.1,0-.2,0-.22,0-.29,0-.51,0-.64-.01-.81.02-1.13-.08-.05-.01-.09-.03-.14-.05-.14-.06-.43-.19-.63-.51-.15-.24-.18-.47-.19-.57-.05-.49.15-1.06.57-1.33.02-.02.05-.03.07-.04,0,0,.1-.05.21-.09.43-.14,1.12-.12,1.12-.12.34,0,.68,0,1.02,0,.29,0,.73,0,1.27,0Z"/>
    <rect class="cls-2" x="23.28" y="22.99" width="1.14" height=".89"/>
    <rect class="cls-2" x="23.28" y="24.13" width="1.14" height="3.43"/>
  </g>
</svg>