<?xml version="1.0" encoding="UTF-8"?>
<svg id="Layer_1" data-name="Layer 1" xmlns="http://www.w3.org/2000/svg" viewBox="0 0 33 33">
  <defs>
    <style>
      .cls-1 {
        font-size: 1.79px;
      }

      .cls-1, .cls-2, .cls-3, .cls-4 {
        fill: #fff;
      }

      .cls-1, .cls-2, .cls-4 {
        font-family: Roboto-Bold, Roboto;
        font-weight: 700;
      }

      .cls-2 {
        font-size: 3.23px;
      }

      .cls-5 {
        letter-spacing: 0em;
      }

      .cls-6 {
        font-family: Roboto-Medium, Roboto;
        font-size: 1.02px;
        font-weight: 500;
      }

      .cls-6, .cls-7, .cls-8 {
        fill: #055eaa;
      }

      .cls-9 {
        letter-spacing: 0em;
      }

      .cls-4 {
        font-size: 2.03px;
      }

      .cls-8 {
        stroke: #fff;
        stroke-miterlimit: 10;
        stroke-width: .24px;
      }

      .cls-10 {
        letter-spacing: -.06em;
      }

      .cls-11 {
        letter-spacing: -.06em;
      }

      .cls-12 {
        letter-spacing: -.02em;
      }

      .cls-13 {
        letter-spacing: 0em;
      }

      .cls-14 {
        letter-spacing: 0em;
      }
    </style>
  </defs>
  <path class="cls-7" d="M15.61,19.78c-1.11-2.75,1.66-6.46,6.18-8.28,1.2-.48,2.4-.78,3.54-.91H1.63c-.46,0-.83.37-.83.83v10.16c0,.46.37.83.83.83h18.4c-2.14-.2-3.81-1.12-4.42-2.64Z"/>
  <ellipse class="cls-8" cx="23.8" cy="16.5" rx="8.73" ry="5.44" transform="translate(-4.27 9.39) rotate(-20.51)"/>
  <path class="cls-3" d="M16.69,16.92c.53.35.92.69,1.19.96.5.48,1.27,1.22,1.55,2.15.02.06.05.16.24.84.15-.5.38-1.12.72-1.79.21-.42.59-1.12,1.19-1.91.58-.76,1.15-1.32,1.55-1.67.29-.26.91-.78,1.79-1.31.91-.55,1.67-.85,2.27-1.08.34-.13.81-.31,1.43-.48.22-.06.41-.1,1.55-.36-1.17.07-2.14.22-2.87.36-.85.16-1.47.29-2.27.6-.89.35-1.58.76-2.03,1.08-1.4.96-2.19,2.03-2.63,2.63-.38.52-.65.98-.84,1.31-.41-.39-.79-.66-1.08-.84-.63-.39-.96-.46-1.08-.48-.3-.05-.55-.03-.72,0Z"/>
  <path class="cls-3" d="M27.21,13.94c-.13.29-.2.54-.24.72-.06.28-.05.42,0,.54,0,.02.04.13.12.23.26.34.78.36,1.02.36.31.01.6-.04.84-.12.91-.29,1.61-1.01,1.61-1.02-.11.42-.31,1.03-.72,1.67-.62.97-1.37,1.5-1.79,1.79-.93.64-1.78.9-2.39,1.08-.65.19-1.16.27-1.79.36-.6.09-1.02.12-2.51.24,1-.16,1.83-.37,2.45-.54,1.25-.34,2.1-.59,3.11-1.19.11-.07.66-.4,1.31-.96.56-.48,1-.94,1.31-1.31-.08.06-.21.15-.36.24-.24.15-.54.3-.72.36-.55.19-1.49.08-1.85-.54-.2-.34-.14-.71-.12-.84.1-.64.6-1,.72-1.08Z"/>
  <circle class="cls-3" cx="28.52" cy="13.64" r=".42"/>
  <text class="cls-4" transform="translate(1.33 12.86)"><tspan x="0" y="0">CE</tspan><tspan class="cls-12" x="2.47" y="0">R</tspan><tspan class="cls-5" x="3.72" y="0">TIFIED</tspan><tspan x="0" y="1.79">SUS</tspan><tspan class="cls-11" x="3.84" y="1.79">T</tspan><tspan class="cls-9" x="4.97" y="1.79">AI</tspan><tspan class="cls-14" x="6.93" y="1.79">N</tspan><tspan x="8.39" y="1.79">ABLE</tspan><tspan x="0" y="3.58">SEAFOOD</tspan></text>
  <text class="cls-2" transform="translate(1.33 19.61)"><tspan x="0" y="0">MSC</tspan></text>
  <text class="cls-1" transform="translate(1.33 21.51)"><tspan x="0" y="0">ww</tspan><tspan class="cls-10" x="2.63" y="0">w</tspan><tspan x="3.84" y="0">.msc.o</tspan><tspan class="cls-13" x="9.31" y="0">r</tspan><tspan x="9.94" y="0">g</tspan></text>
  <text class="cls-6" transform="translate(30.52 20.17)"><tspan x="0" y="0">TM</tspan></text>
</svg>