<?xml version="1.0" encoding="UTF-8"?>
<svg id="Layer_1" data-name="Layer 1" xmlns="http://www.w3.org/2000/svg" viewBox="0 0 8.5 8.5">
  <defs>
    <style>
      .cls-1 {
        fill-rule: evenodd;
      }

      .cls-1, .cls-2, .cls-3 {
        stroke-width: 0px;
      }

      .cls-1, .cls-3 {
        fill: #fff;
      }

      .cls-2 {
        fill: #39b54a;
      }
    </style>
  </defs>
  <circle class="cls-2" cx="4.25" cy="4.25" r="4"/>
  <g>
    <path class="cls-3" d="m1.93,6.58l.33-1.24c-.19-.34-.29-.72-.29-1.11,0-1.27,1.03-2.3,2.3-2.3s2.3,1.03,2.3,2.3-1.03,2.3-2.3,2.3c-.38,0-.76-.1-1.09-.28l-1.25.34Zm1.31-.8l.08.05c.29.17.62.26.95.26,1.03,0,1.86-.84,1.86-1.86s-.84-1.86-1.86-1.86-1.86.84-1.86,1.86c0,.34.09.67.27.97l.05.08-.19.69.7-.19Z"/>
    <path class="cls-1" d="m5.13,4.54c-.09-.06-.22-.12-.33-.07-.09.03-.14.17-.2.24-.03.04-.06.04-.11.02-.32-.13-.57-.34-.74-.64-.03-.05-.02-.08.01-.12.05-.06.12-.13.14-.22.01-.08-.03-.18-.06-.26-.04-.1-.09-.23-.19-.29-.09-.05-.21-.02-.29.04-.14.11-.2.29-.2.46,0,.05,0,.1.02.15.03.11.08.22.14.32.04.08.09.15.15.22.17.23.39.44.63.59.12.08.26.14.39.19.15.05.29.1.46.07.17-.03.35-.14.42-.31.02-.05.03-.11.02-.16-.02-.11-.17-.17-.26-.23Z"/>
  </g>
</svg>