<?xml version="1.0" encoding="UTF-8"?>
<svg id="Layer_1" data-name="Layer 1" xmlns="http://www.w3.org/2000/svg" xmlns:xlink="http://www.w3.org/1999/xlink" viewBox="0 0 8.5 8.5">
  <defs>
    <style>
      .cls-1 {
        fill: url(#linear-gradient);
      }

      .cls-1, .cls-2, .cls-3, .cls-4 {
        stroke-width: 0px;
      }

      .cls-2 {
        fill: #00c9d0;
      }

      .cls-2, .cls-3, .cls-4 {
        fill-rule: evenodd;
      }

      .cls-3 {
        fill: #ff1753;
      }

      .cls-4 {
        fill: #fff;
      }
    </style>
    <linearGradient id="linear-gradient" x1=".25" y1="4.24" x2="8.25" y2="4.24" gradientUnits="userSpaceOnUse">
      <stop offset="0" stop-color="#23004a"/>
      <stop offset=".96" stop-color="#010003"/>
      <stop offset="1" stop-color="#000"/>
    </linearGradient>
  </defs>
  <circle class="cls-1" cx="4.25" cy="4.24" r="4"/>
  <g>
    <path class="cls-3" d="m5.33,3.53c.33.23.73.37,1.16.37v-.83c-.08,0-.16,0-.24-.03v.66c-.43,0-.83-.14-1.16-.37v1.7c0,.85-.69,1.54-1.54,1.54-.32,0-.61-.1-.86-.26.28.29.67.46,1.1.46.85,0,1.54-.69,1.54-1.54v-1.7h0Zm.3-.84c-.17-.18-.28-.42-.3-.68v-.11h-.23c.06.33.26.62.53.79h0Zm-2.4,2.96c-.09-.12-.14-.27-.14-.43,0-.39.32-.7.7-.7.07,0,.14.01.21.03v-.85c-.08-.01-.16-.02-.24-.01v.66c-.07-.02-.14-.03-.21-.03-.39,0-.7.32-.7.7,0,.27.16.51.39.63Z"/>
    <path class="cls-4" d="m5.09,3.33c.33.23.73.37,1.16.37v-.66c-.24-.05-.46-.18-.62-.35-.28-.17-.47-.46-.53-.79h-.61v3.33c0,.39-.32.7-.7.7-.23,0-.43-.11-.56-.28-.23-.12-.39-.35-.39-.63,0-.39.32-.7.7-.7.07,0,.15.01.21.03v-.66c-.84.02-1.51.7-1.51,1.54,0,.42.17.8.44,1.08.25.16.54.26.86.26.85,0,1.54-.69,1.54-1.54v-1.7Z"/>
    <path class="cls-2" d="m6.25,3.04v-.18c-.22,0-.43-.06-.62-.18.16.18.38.3.62.35Zm-1.15-1.14s0-.06-.01-.1v-.11h-.84v3.33c0,.39-.32.7-.7.7-.11,0-.22-.03-.32-.08.13.17.33.28.56.28.39,0,.7-.31.7-.7V1.9h.61Zm-1.34,1.79v-.19c-.07,0-.14-.01-.21-.01-.85,0-1.54.69-1.54,1.54,0,.53.27,1,.68,1.28-.27-.28-.44-.66-.44-1.08,0-.84.67-1.52,1.51-1.54h0Z"/>
  </g>
</svg>