<?xml version="1.0" encoding="UTF-8"?>
<svg id="Layer_1" data-name="Layer 1" xmlns="http://www.w3.org/2000/svg" xmlns:xlink="http://www.w3.org/1999/xlink" viewBox="0 0 8.5 8.5">
  <defs>
    <style>
      .cls-1 {
        fill: url(#Degradado_sin_nombre_4);
      }

      .cls-1, .cls-2 {
        stroke-width: 0px;
      }

      .cls-2 {
        fill: #fff;
      }
    </style>
    <linearGradient id="Degradado_sin_nombre_4" data-name="Degradado sin nombre 4" x1=".25" y1="4.25" x2="8.25" y2="4.25" gradientUnits="userSpaceOnUse">
      <stop offset="0" stop-color="#0cf"/>
      <stop offset="1" stop-color="#0080ff"/>
    </linearGradient>
  </defs>
  <circle class="cls-1" cx="4.25" cy="4.25" r="4"/>
  <path class="cls-2" d="m6.4,2.89c-.14.06-.29.1-.44.12.07-.01.17-.14.22-.19.06-.08.12-.17.15-.27,0,0,0-.02,0-.02,0,0-.02,0-.02,0-.17.09-.34.15-.52.2-.02,0-.03,0-.04,0-.02-.02-.03-.03-.05-.05-.08-.07-.16-.12-.25-.15-.12-.05-.25-.07-.39-.06-.13,0-.25.04-.37.1-.11.06-.21.14-.3.24-.08.1-.14.22-.18.35-.03.12-.03.25,0,.37,0,.02,0,.02-.02.02-.71-.11-1.3-.36-1.78-.91-.02-.02-.03-.02-.05,0-.21.31-.11.82.15,1.07.03.03.07.07.11.1-.01,0-.19-.02-.34-.1-.02-.01-.03,0-.03.02,0,.03,0,.07,0,.1.04.32.26.61.56.73.04.02.08.03.11.03-.07.02-.14.03-.34.01-.02,0-.03,0-.02.03.15.41.47.53.71.59.03,0,.06,0,.1.01,0,0,0,0,0,0-.08.12-.36.21-.48.26-.23.08-.49.12-.74.09-.04,0-.05,0-.06,0-.01,0,0,.02.01.03.05.03.1.06.15.09.16.08.32.15.49.2.88.24,1.88.06,2.54-.59.52-.52.7-1.23.7-1.95,0-.03.03-.04.05-.06.14-.1.25-.22.35-.36.02-.03.02-.06.02-.07h0s0-.01-.02,0Z"/>
</svg>