<?xml version="1.0" encoding="UTF-8"?>
<svg id="Layer_1" data-name="Layer 1" xmlns="http://www.w3.org/2000/svg" xmlns:xlink="http://www.w3.org/1999/xlink" viewBox="0 0 8.5 8.5">
  <defs>
    <style>
      .cls-1 {
        fill: url(#Degradado_sin_nombre_43);
      }

      .cls-1, .cls-2 {
        stroke-width: 0px;
      }

      .cls-2 {
        fill: #fff;
      }
    </style>
    <linearGradient id="Degradado_sin_nombre_43" data-name="Degradado sin nombre 43" x1=".25" y1="4.25" x2="8.25" y2="4.25" gradientUnits="userSpaceOnUse">
      <stop offset="0" stop-color="#0071bc"/>
      <stop offset=".48" stop-color="#009fe2"/>
      <stop offset="1" stop-color="#0bf"/>
    </linearGradient>
  </defs>
  <path class="cls-2" d="m2.57,3.58h.77v2.49h-.77v-2.49Zm.39-1.24c.25,0,.45.2.45.45s-.2.45-.45.45-.45-.2-.45-.45.2-.45.45-.45"/>
  <g>
    <circle class="cls-1" cx="4.25" cy="4.25" r="4"/>
    <path class="cls-2" d="m6.59,4.09c-.08-1.17-1.01-2.11-2.18-2.18h0s-.16,0-.16,0h-.16c-1.17.08-2.11,1.02-2.18,2.19h0v.31h0c.08,1.17,1.01,2.11,2.18,2.18h0s.16,0,.16,0h.16c1.17-.08,2.11-1.02,2.18-2.19h0v-.31h0Zm-3.22-1.68c-.15.2-.28.45-.37.74h-.47c.2-.32.49-.58.84-.74Zm-1,1.05h.55c-.04.2-.07.41-.08.63h-.62c.02-.22.07-.43.15-.63Zm-.15.94h.62c0,.22.04.43.08.63h-.55c-.08-.19-.13-.41-.15-.63Zm.31.94h.47c.09.29.22.54.37.74-.34-.16-.63-.42-.84-.74Zm1.56.92c-.32-.09-.6-.43-.77-.92h.77v.92Zm0-1.23h-.85c-.04-.19-.07-.41-.08-.63h.93v.63Zm0-.94h-.93c0-.22.04-.43.08-.63h.85v.63Zm0-.94h-.77c.17-.49.44-.83.77-.92v.92Zm1.87,0h-.47c-.09-.29-.22-.54-.37-.74.34.16.63.42.84.74Zm-1.56-.92c.32.09.6.43.77.92h-.77v-.92Zm0,1.23h.85c.04.19.07.41.08.63h-.93v-.63Zm0,.94h.93c0,.22-.04.43-.08.63h-.85v-.63Zm0,1.86v-.92h.77c-.17.49-.44.83-.77.92Zm.72-.18c.15-.2.28-.45.37-.74h.47c-.2.32-.49.58-.84.74Zm1-1.05h-.55c.04-.2.07-.41.08-.63h.62c-.02.22-.07.43-.15.63Zm-.47-.94c0-.22-.04-.43-.08-.63h.55c.08.19.13.41.15.63h-.62Z"/>
  </g>
</svg>