<?xml version="1.0" encoding="UTF-8"?>
<svg id="Layer_1" data-name="Layer 1" xmlns="http://www.w3.org/2000/svg" viewBox="0 0 32.5 32.5">
  <defs>
    <style>
      .cls-1 {
        fill: #2a2725;
      }

      .cls-2 {
        fill: #fff;
      }

      .cls-3 {
        fill: none;
        stroke: #218149;
        stroke-miterlimit: 10;
        stroke-width: 1.66px;
      }

      .cls-4 {
        fill: #0a8f4b;
      }
    </style>
  </defs>
  <g>
    <circle class="cls-3" cx="16.25" cy="12.81" r="11.71"/>
    <path class="cls-2" d="M16.09.63c.18.39,2.48,5.43,1.43,9.15-.21.75-.49,1.72-1.27,2.7-.8,1.01-2.16,2.06-2.17,2.07.3.3.76.72,1.38,1.15.45.31,1.28.89,2.26,1.15.26.07,1.89.49,3.02-.21,2.04-1.25,1.5-5.5.87-7.64-.47-1.57-1.22-2.78-1.76-3.66-.9-1.45-1.83-2.54-2.55-3.28l-1.21-1.44Z"/>
    <g>
      <path class="cls-2" d="M5.84,19.21c.25-.35,3.52-4.83,7.28-5.73.75-.18,1.74-.42,2.98-.22,1.28.2,2.85.88,2.87.88.12-.41.26-1.02.33-1.76.05-.54.15-1.56-.11-2.54-.07-.26-.5-1.89-1.66-2.54-2.09-1.17-5.53,1.38-7.09,2.99-1.14,1.18-1.83,2.42-2.33,3.32-.82,1.49-1.31,2.84-1.61,3.83l-.66,1.76Z"/>
      <path class="cls-4" d="M5.78,19.37s.02-.11.03-.18c.37-2.31,1.14-4.17,1.85-5.57,1.57-3.09,4.3-6.8,6.65-7.64.36-.13,1.21-.43,2.24-.21.29.06.86.22,1.41.65.21.16.92.75,1.33,2.1.8,2.63-.32,5.55-.33,5.65.22-1.07.34-2.61-.22-4.21-.46-1.31-1.03-1.67-1.22-1.77-.34-.19-.84-.34-1.66-.22-3.1.45-5.68,4.03-7.09,5.98-.46.64-.89,1.32-.89,1.32-.1.15-.17.27-.21.34-.51.82-1.2,2.07-1.88,3.77Z"/>
    </g>
    <g>
      <path class="cls-2" d="M26.94,18.86c-.42-.03-5.95-.48-8.69-3.21-.55-.55-1.27-1.26-1.74-2.42-.49-1.2-.74-2.89-.75-2.91-.41.12-1,.31-1.68.64-.49.24-1.4.69-2.1,1.42-.18.19-1.35,1.41-1.29,2.74.1,2.39,4.07,3.99,6.25,4.48,1.6.36,3.02.29,4.05.25,1.7-.08,3.11-.37,4.11-.63l1.85-.36Z"/>
      <path class="cls-4" d="M27.11,18.82s-.1.04-.17.07c-2.16.89-4.15,1.21-5.72,1.33-3.46.28-8.04-.11-9.99-1.68-.3-.24-1-.81-1.35-1.8-.1-.28-.26-.85-.18-1.54.03-.26.16-1.17,1.1-2.23,1.82-2.05,4.9-2.63,4.99-2.67-1.03.38-2.4,1.08-3.47,2.39-.88,1.08-.88,1.75-.87,1.96.02.39.15.9.68,1.53,2,2.4,6.41,2.74,8.8,2.92.79.06,1.59.07,1.59.07.18,0,.32,0,.4,0,.97,0,2.39-.06,4.19-.36Z"/>
    </g>
    <path class="cls-4" d="M15.97.5s.08.07.15.12c1.83,1.46,3.08,3.04,3.95,4.35,1.93,2.88,3.82,7.08,3.41,9.54-.06.38-.22,1.27-.92,2.06-.2.22-.62.64-1.26.91-.24.1-1.1.43-2.49.13-2.68-.59-4.68-2.99-4.76-3.06.83.71,2.11,1.57,3.78,1.87,1.37.24,1.96-.08,2.14-.19.33-.21.71-.57,1.01-1.34,1.12-2.92-.73-6.93-1.74-9.11-.33-.71-.71-1.43-.71-1.43-.09-.16-.15-.28-.19-.35-.47-.85-1.21-2.06-2.36-3.49Z"/>
  </g>
  <g>
    <polygon class="cls-1" points="4.34 19.54 6.11 31.5 7.67 31.5 9.27 24.91 7.94 24.13 6.81 29.21 5.84 21.7 4.34 19.54"/>
    <polygon class="cls-1" points="9.82 25.24 9.82 31.5 10.98 31.5 10.98 27.11 12.55 31.5 14.36 31.5 14.36 26.77 13.26 26.46 13.26 30.12 11.6 25.91 9.82 25.24"/>
    <polygon class="cls-1" points="15.25 26.79 15.25 31.5 18.91 31.5 18.91 30.54 16.47 30.54 16.47 29.56 18.68 29.56 18.68 28.37 16.58 28.37 16.58 27.57 18.91 27.57 18.91 26.66 15.25 26.79"/>
    <path class="cls-1" d="M19.6,26.41c0,1.7-.02,3.4-.03,5.09h3.54v-1.16h-2.32v-1.11l2.22-.55v-1.33l-2.22.78v-1.22l2.32-.85c.01-.44.02-.87.03-1.31-.44.26-.92.52-1.44.78-.74.36-1.45.65-2.1.89Z"/>
    <path class="cls-1" d="M27.91,22.03c-.41-.55-1.25-.33-1.47,0s-2.33,2.1-2.33,2.1v7.37h1.11v-3.05s.22-.11.55-.22.78-.44.78-.44c0,0,1.11-.89,1.36-1.63s.41-3.58,0-4.13ZM26.66,25.35c-.22.89-1.44,1.51-1.44,1.51v-2.29s.89-.55,1.22-.55.44.44.22,1.33Z"/>
  </g>
</svg>