<?xml version="1.0" encoding="UTF-8"?>
<svg id="Layer_1" data-name="Layer 1" xmlns="http://www.w3.org/2000/svg" viewBox="0 0 32.5 32.5">
  <defs>
    <style>
      .cls-1 {
        fill: #67d0f2;
      }

      .cls-2 {
        fill: #22bbec;
      }

      .cls-3 {
        fill: #20baeb;
      }

      .cls-4 {
        fill: #21bbec;
      }

      .cls-5 {
        fill: #9ae0f6;
      }

      .cls-6 {
        fill: #62cef2;
      }

      .cls-7 {
        fill: #fefefe;
      }

      .cls-8 {
        fill: #5dcdf1;
      }

      .cls-9 {
        fill: #20baec;
      }
    </style>
  </defs>
  <rect class="cls-7" x=".99" y=".72" width="30.51" height="31.07"/>
  <g>
    <path class="cls-3" d="M31.53,24.33H1.01s-.04-.04-.04-.04v-11.93c2.83-4.24,7.39-7.2,12.45-7.98,7.1-1.1,14.16,2.03,18.12,7.95v12Z"/>
    <path class="cls-9" d="M31.53,25.08v6.84H1.01s-.04-.04-.04-.04v-6.8h30.57Z"/>
    <path class="cls-9" d="M31.53.58v10.67l-.78-1.01C23.45,1.45,10.22,1.1,2.43,9.46c-.5.54-.91,1.18-1.39,1.71-.02.03-.02.06-.08.05V.62s.04-.04.04-.04h30.53Z"/>
    <path class="cls-7" d="M12.91,16.36c-.43.4-1.43,1.23-2.05,1.02-.17-.06-.26-.26-.28-.26-.05,0-.39.18-.48.22-.32.12-.66.19-.9-.12-.27-.35-.11-.78-.12-1.17-.46.51-.79,1.16-1.2,1.71-.07.09-.17.26-.3.26-.54.01,0-1.03-.03-1.29-.62.58-1.31,1.25-2.09,1.59s-1.72.39-1.71-.68c-.59.11-1.18.17-1.78.04-.13-.03-.43-.1-.51-.19-.12-.15-.03-.35.15-.39.26.04.51.14.78.16.49.04,1-.02,1.46-.17.18-.44.41-.88.67-1.28.51-.83,1.7-2.44,2.8-2.32.45.05.54.51.45.88-.25,1.04-2,2.4-2.93,2.86-.09.04-.58.22-.6.25,0,0-.03.2-.03.22.02.75,1.16.14,1.48-.05.7-.43,1.39-1.11,1.95-1.71.13-.14.69-.86.81-.88.14-.03.31.1.3.25,0,.1-.26.5-.32.63-.05.11-.1.22-.14.33.26-.25.67-.99,1.06-.99.1,0,.22.07.27.15.13.21-.04.66-.07.91-.07.58-.07.78.54.49.07-.03.47-.26.5-.31.05-.07.17-.5.23-.63.23-.52.74-1.28,1.4-1.18.18.03.35.2.37.39.06.65-1.1,1.32-1.54,1.69-.13.26.2.13.34.07.9-.36,1.77-1.43,2.36-2.18.21-.16.42,0,.44.23.07-.06.14-.16.22-.21.71-.55.52.48,1,.7.4-.57,1.02-1.28,1.71-1.46.4-.1.94-.03.85.5-.05.3-.72.73-.72.78,0,.02.15.09.12.25,0,.03-.03.04.03.03.1-.02.94-.58,1.14-.69.19-.1.62-.33.81-.38.2-.05.38.11.31.31-.03.08-.3.36-.38.46-.17.23-.49.74-.45,1.04,0,.04-.02.05.04.04.43-.05,1.31-1.21,1.57-1.58.09-.12.43-.7.51-.72.17-.06.35.02.35.22,0,.13-.16.58-.21.73-.05.18-.15.39-.19.56,0,.04,0,.05.04.04.1-.04.37-.26.5-.33.76-.46,1.58-.85,2.41-1.17.39-.15,1.09-.43,1.48-.48.32-.05.46.23.22.44-1.42.41-2.8.95-4.05,1.74-.22.14-.83.52-.93.71-.13.26-.24.63-.36.91-.32.74-1.26,2.85-1.95,3.19-.35.17-.72.08-.77-.35-.14-1.14,1.22-2.79,2.01-3.53.16-.15.58-.44.69-.58.06-.08.1-.27.12-.38-.26.25-.49.54-.78.76-1.13.86-1.48-.21-.91-1.11-.02-.02-.5.27-.56.31-.18.11-.86.55-.94.7-.11.2-.19.56-.28.79-.28.69-.62,1.47-1.1,2.05-.22.26-.79.86-1.14.53-.32-.3.03-1.07.2-1.39.33-.64.81-1.2,1.3-1.73-.3.12-.85.31-1.02-.1-.12-.29.09-.62.07-.69,0-.02-.28-.24-.33-.32-.08-.1-.14-.23-.18-.35-.51.52-.85,1.18-1.3,1.76-.11.15-.21.32-.43.26-.3-.09-.04-.58.03-.75,0-.05,0-.07-.03-.05Z"/>
    <path class="cls-7" d="M21.85,19.19l2.84-1.8c.09-.05.23-.04.32-.01l2.83,1.81-.83-3.23c-.03-.13.02-.25.1-.34.83-.69,1.68-1.37,2.5-2.08.02-.02.05-.04.08-.04,0-.04-.12-.05-.15-.05-1.03-.08-2.1-.06-3.12-.16-.21-.02-.29-.09-.38-.27-.39-.82-.7-1.84-1.04-2.7-.05-.12-.09-.26-.17-.37l-1.18,3.04c-.1.32-.34.3-.62.32-1.14.09-2.43.16-3.58.19-.26,0-.72.08-.79-.26-.11-.53.53-.44.84-.46,1.17-.08,2.35-.14,3.53-.19l1.46-3.78c.13-.3.49-.32.66-.05l1.49,3.79c.09.07.81.06.98.07,1.02.06,2.04.13,3.07.19.3.06.41.42.18.63-1.03.86-2.09,1.7-3.09,2.59l.98,3.91c.06.28-.18.49-.45.42l-3.46-2.22-3.45,2.19c-.28.14-.6-.08-.53-.4l1.08-3.91c.15-.41.7-.31.71.12l-.83,3.04Z"/>
    <path class="cls-5" d="M12.94,16.41l-.03-.05s.04-.08.08-.08c.01.06-.04.09-.05.13Z"/>
    <path class="cls-7" d="M5.58,26.59l1.52,3.26v-3.26h.43v3.82h-.66l-1.52-3.29v3.25c0,.06-.46.06-.46,0v-3.78h.69Z"/>
    <path class="cls-7" d="M29.48,26.59c.89.13.95,1.68.01,1.82.11.06.24.06.35.14.29.2.24.81.27,1.13.03.25.07.49.11.74h-.47c-.15,0-.14-.86-.15-.98-.02-.24-.02-.55-.24-.7-.05-.03-.25-.1-.31-.1h-.59s-.04.04-.04.04v1.74h-.48v-3.82h1.55Z"/>
    <path class="cls-7" d="M12.33,26.59c.89.13.95,1.68.01,1.82.11.06.24.06.35.14.28.2.24.84.27,1.16.02.24.06.48.11.71h-.51c-.02-.1-.06-.21-.08-.31-.05-.33.02-1-.15-1.25-.02-.03-.09-.1-.12-.12-.05-.03-.25-.1-.31-.1h-.59s-.04.04-.04.04v1.74h-.48v-3.82h1.55Z"/>
    <path class="cls-7" d="M15.9,27.62h-.51c0-.35-.13-.64-.5-.69-.67-.09-.86.31-.9.89-.02.43-.05,1.71.18,2.03.25.36.88.24,1.22.08v-1.16h-.7v-.43h1.18v1.84c-.66.4-1.91.54-2.25-.34-.16-.42-.18-2.06-.08-2.51.15-.68.74-.88,1.37-.84.69.05,1.01.41.98,1.11Z"/>
    <path class="cls-7" d="M27.55,30.42h-.54l-.27-.9c-.49-.03-.99-.02-1.48,0-.12.29-.18.62-.31.9h-.47l1.21-3.81s.52-.02.58-.01c.03,0,.05.01.06.05l1.22,3.78Z"/>
    <path class="cls-7" d="M22.14,27.62h-.51c.02-.52-.25-.75-.77-.67s-.53.71-.16,1.02c.58.49,1.54.53,1.47,1.58-.08,1.22-2.06,1.3-2.28.18-.01-.07-.07-.46,0-.46h.44c-.03.5.21.84.74.81.41-.03.62-.28.58-.69-.05-.62-1.24-.76-1.58-1.36-.37-.67.06-1.44.81-1.51.79-.07,1.28.28,1.25,1.1Z"/>
    <polygon class="cls-7" points="4.27 26.59 4.27 27 2.79 27 2.79 28.24 4.17 28.24 4.17 28.67 2.79 28.67 2.79 29.99 4.3 29.99 4.3 30.42 2.32 30.42 2.28 30.38 2.28 26.59 4.27 26.59"/>
    <polygon class="cls-7" points="10.17 26.59 10.17 27 8.73 27 8.69 27.04 8.69 28.24 10.06 28.24 10.06 28.67 8.69 28.67 8.69 29.99 10.2 29.99 10.2 30.42 8.2 30.42 8.2 26.59 10.17 26.59"/>
    <polygon class="cls-7" points="16.71 26.59 17.42 28.4 18.19 26.59 18.7 26.59 17.65 28.95 17.65 30.42 17.16 30.42 17.16 28.92 16.14 26.59 16.71 26.59"/>
    <polygon class="cls-7" points="24.89 26.59 24.89 27 23.89 27 23.89 30.38 23.85 30.42 23.42 30.42 23.38 30.38 23.38 27 22.39 27 22.39 26.59 24.89 26.59"/>
    <path class="cls-9" d="M7.28,13.97s.03.14.03.19c-.08.67-1.35,1.76-1.9,2.14-.29.2-.6.39-.92.52.46-.85,1.03-1.81,1.79-2.42.16-.13.81-.59,1-.43Z"/>
    <path class="cls-9" d="M19.78,17.11c-.35.78-.68,1.57-1.15,2.29-.05.08-.55.82-.66.7-.03-.49.21-.98.45-1.39.34-.58.83-1.17,1.32-1.62.04-.04.05-.02.03.03Z"/>
    <path class="cls-9" d="M16.3,17.14c-.3.71-.64,1.57-1.25,2.07-.03.02-.04.07-.09.05-.08-.09.36-.92.45-1.05.22-.37.56-.81.87-1.11.04-.04.05-.02.03.03Z"/>
    <path class="cls-4" d="M17.46,14.36c-.37.39-.82.73-1.31.97-.26.12.01-.16.08-.24.3-.33.77-.71,1.22-.73Z"/>
    <path class="cls-2" d="M16.38,15.77s.05-.02.03.03c-.25.21-.56.42-.89.48-.02-.02.07-.31.11-.34.02-.01.32-.04.4-.06.11-.02.25-.07.35-.12Z"/>
    <path class="cls-2" d="M12.11,15.17c-.13.26-.38.47-.61.65-.03.02-.15.13-.17.11.18-.3.41-.71.78-.75Z"/>
    <path class="cls-6" d="M16.38,15.77s.05-.07.11-.05c0,.04-.05.06-.08.08l-.03-.03Z"/>
    <path class="cls-1" d="M19.78,17.11l-.03-.03s.04-.08.08-.08c.02.05-.04.08-.05.11Z"/>
    <path class="cls-8" d="M16.3,17.14l-.03-.03s.04-.08.08-.08c.02.05-.04.08-.05.11Z"/>
    <path class="cls-9" d="M28.41,28.24v-1.2s.04-.04.07-.04c.16-.03.73,0,.89.05.38.14.39.83.09,1.07-.05.04-.2.12-.26.12h-.79Z"/>
    <path class="cls-9" d="M11.27,28.24v-1.2s.04-.04.07-.04c.16-.03.73,0,.89.05.38.14.38.83.09,1.07-.05.04-.2.12-.26.12h-.79Z"/>
    <polygon class="cls-9" points="26.61 29.07 25.4 29.07 25.96 27.05 26.61 29.07"/>
  </g>
</svg>