<?xml version="1.0" encoding="UTF-8"?>
<svg id="Layer_1" data-name="Layer 1" xmlns="http://www.w3.org/2000/svg" viewBox="0 0 32.5 32.5">
  <defs>
    <style>
      .cls-1 {
        fill: #877e40;
      }

      .cls-2 {
        letter-spacing: 0em;
      }

      .cls-3 {
        fill: #887e40;
        font-family: LunaSans-Regular, 'Luna Sans';
        font-size: 6.61px;
      }

      .cls-4 {
        fill: #877d40;
      }

      .cls-5 {
        letter-spacing: -.02em;
      }
    </style>
  </defs>
  <g>
    <path class="cls-4" d="M3.93,19.98H1.48c-.11,0-.08-.56-.08-.68.21-5.9,4.31-11.3,9.82-13.25,9.55-3.4,19.49,3.46,19.83,13.5,0,.08.12.43-.03.43h-2.42c-.13,0-.06-.75-.07-.89-.44-6.66-6.33-11.71-12.96-11.38-6.44.32-11.67,5.83-11.64,12.27Z"/>
    <path class="cls-1" d="M20.8,19.98h-10.78s-.06-.07-.07-.11c0-.14.08-.48.13-.63.34-1.17,1.66-1.78,2.49-2.56s1.31-1.84,2.61-2.09c.14-.03.29,0,.44-.02.64-.11,1.22-1.02,1.73-1.05.35-.02,1.54.95,1.86,1.21.7.58,1.69,1.35,1.79,2.3s-.16,2-.2,2.95Z"/>
    <path class="cls-1" d="M26.86,19.98h-1.06c-.03-2.64-1.14-5.21-3.08-6.99-1.79-1.65-4.44-2.68-6.9-2.5-1.89.14-3.13,1.84-4.42,3.01-1.79,1.62-4.16,3.1-4.63,5.67-.03.14-.06.82-.14.82h-.98v-.73c0-.16.18-.78.24-.97.76-2.45,3.04-4.01,4.86-5.64,2.42-2.17,3.24-3.65,6.94-3.15,5.21.7,9.19,5.23,9.18,10.49Z"/>
  </g>
  <text class="cls-3" transform="translate(.8 25.6)"><tspan class="cls-5" x="0" y="0">F</tspan><tspan class="cls-2" x="2.7" y="0">AIRMINED</tspan></text>
</svg>