<?xml version="1.0" encoding="UTF-8"?>
<svg id="Layer_1" data-name="Layer 1" xmlns="http://www.w3.org/2000/svg" viewBox="0 0 32.5 32.5">
  <defs>
    <style>
      .cls-1 {
        font-size: 4.95px;
      }

      .cls-2, .cls-3 {
        fill: #1c855a;
      }

      .cls-2, .cls-4 {
        font-family: MontserratRoman-Bold, Montserrat;
        font-variation-settings: 'wght' 700;
        font-weight: 700;
      }

      .cls-5 {
        fill: #c6c6c6;
      }

      .cls-6 {
        fill: #abcdbb;
      }

      .cls-7 {
        fill: #878785;
      }

      .cls-8 {
        letter-spacing: 0em;
      }

      .cls-8, .cls-9 {
        fill: #878787;
        font-family: MontserratRoman-Regular, Montserrat;
        font-variation-settings: 'wght' 400;
      }
    </style>
  </defs>
  <g>
    <path class="cls-3" d="M11.5,15.19c.18-.06-.29-1.14-.21-2.49.16-2.6,2.29-4.27,2.52-4.45.23-.18.64-.49,1.26-.74,1.48-.6,2.83-.33,3.36-.21.94.2,1.68.59,2.21.95-.3-.4-.9-1.09-1.89-1.58-1-.49-1.88-.52-2.31-.53-.35,0-1.04,0-1.88.26-.39.12-1.7.54-2.75,1.74-1.6,1.84-1.66,4.44-.95,6.1.18.42.5.99.63.95Z"/>
    <path class="cls-7" d="M13.92,17.61c.34.22.89.53,1.62.72,1.32.33,2.41.07,2.9-.09.98-.31,1.62-.82,1.89-1.05.99-.86,1.38-1.85,1.47-2.1,0,0,.61-1.66,0-3.47-.05-.15-.28-.82-.84-1.47-.06-.07-.45-.52-.55-.46-.07.04.03.33.12.56.09.2.21.49.32.84.09.31.38,1.45.11,2.63-.47,2.02-2.44,3.4-3.99,3.68-.54.1-1.25.1-1.37.11-.88,0-1.61-.11-2.1-.21l.42.32Z"/>
    <path class="cls-5" d="M12.23,15.3c.14-.02.16.45.53.84.74.79,2.3.47,2.52.42,1.59-.34,2.89-1.64,3.47-2.94.29-.66.48-1.49.63-1.47.1.02.1.43.11.53.03,1.42-.77,2.59-.95,2.84-.29.41-.88,1.23-2,1.79-1.13.57-2.97.95-3.89.11-.37-.34-.51-.8-.53-.84-.18-.58-.06-1.24.11-1.26Z"/>
    <path class="cls-6" d="M13.5,12.56c.06.02.2-.54.74-1.37.31-.49.92-1.41,2.05-2.15.48-.31,1.37-.89,2.63-.95.54-.02,1.3-.06,1.89.42.69.56.67,1.45.87,1.43.19-.02.34-.86.13-1.58-.05-.19-.2-.68-.66-1.06,0,0-.22-.18-.5-.3-.68-.3-1.93-.32-3.21.16-1.6.6-2.5,1.71-2.68,1.94-1.23,1.58-1.37,3.43-1.26,3.47Z"/>
  </g>
  <text class="cls-1" transform="translate(1.27 25.07)"><tspan class="cls-2" x="0" y="0">FSSC</tspan><tspan class="cls-4" x="13.11" y="0"> </tspan><tspan class="cls-9" x="14.51" y="0">2</tspan><tspan class="cls-8" x="17.32" y="0">2</tspan><tspan class="cls-9" x="20.13" y="0">000</tspan></text>
</svg>