<?xml version="1.0" encoding="UTF-8"?>
<svg id="Layer_1" data-name="Layer 1" xmlns="http://www.w3.org/2000/svg" viewBox="0 0 32.5 32.5">
  <defs>
    <style>
      .cls-1 {
        fill: #0156a5;
      }

      .cls-2 {
        fill: #1d2466;
        font-family: Roboto-Regular, Roboto;
        font-size: 3.44px;
      }

      .cls-3 {
        fill: none;
        stroke: #0156a5;
        stroke-miterlimit: 10;
        stroke-width: .8px;
      }

      .cls-4 {
        fill: #fff;
        font-family: Roboto-Black, Roboto;
        font-size: 4.47px;
        font-weight: 800;
      }
    </style>
  </defs>
  <g>
    <circle class="cls-3" cx="16.25" cy="16.25" r="12.78"/>
    <circle class="cls-3" cx="16.25" cy="16.25" r="6.65"/>
  </g>
  <rect class="cls-1" x=".29" y="13.11" width="31.92" height="6.28" rx=".87" ry=".87"/>
  <text class="cls-4" transform="translate(1.43 17.56)"><tspan x="0" y="0">ISO/IEC 17025</tspan></text>
  <text class="cls-2" transform="translate(8.3 11.8) rotate(-46.5)"><tspan x="0" y="0">A</tspan></text>
  <text class="cls-2" transform="translate(9.75 10.26) rotate(-34.33)"><tspan x="0" y="0">C</tspan></text>
  <text class="cls-2" transform="translate(11.48 9.06) rotate(-22.25)"><tspan x="0" y="0">C</tspan></text>
  <text class="cls-2" transform="translate(13.46 8.25) rotate(-10.4)"><tspan x="0" y="0">R</tspan></text>
  <text class="cls-2" transform="translate(15.42 7.88) rotate(.55)"><tspan x="0" y="0">E</tspan></text>
  <text class="cls-2" transform="translate(17.27 7.87) rotate(11.96)"><tspan x="0" y="0">D</tspan></text>
  <text class="cls-2" transform="translate(19.36 8.36) rotate(20.59)"><tspan x="0" y="0">I</tspan></text>
  <text class="cls-2" transform="translate(20.14 8.6) rotate(28.46)"><tspan x="0" y="0">T</tspan></text>
  <text class="cls-2" transform="translate(21.87 9.53) rotate(39.34)"><tspan x="0" y="0">E</tspan></text>
  <text class="cls-2" transform="translate(23.31 10.68) rotate(50.7)"><tspan x="0" y="0">D</tspan></text>
  <text class="cls-2" transform="translate(6.79 21.01) rotate(66.45)"><tspan x="0" y="0">L</tspan></text>
  <text class="cls-2" transform="translate(7.73 23.09) rotate(52.16)"><tspan x="0" y="0">A</tspan></text>
  <text class="cls-2" transform="translate(9.43 25.17) rotate(37.07)"><tspan x="0" y="0">B</tspan></text>
  <text class="cls-2" transform="translate(11.52 26.7) rotate(21.67)"><tspan x="0" y="0">O</tspan></text>
  <text class="cls-2" transform="translate(14.13 27.66) rotate(6.45)"><tspan x="0" y="0">R</tspan></text>
  <text class="cls-2" transform="translate(16.69 27.89) rotate(-8.71)"><tspan x="0" y="0">A</tspan></text>
  <text class="cls-2" transform="translate(19.05 27.5) rotate(-21.73)"><tspan x="0" y="0">T</tspan></text>
  <text class="cls-2" transform="translate(21.3 26.58) rotate(-36.58)"><tspan x="0" y="0">O</tspan></text>
  <text class="cls-2" transform="translate(23.51 24.84) rotate(-52.07)"><tspan x="0" y="0">R</tspan></text>
  <text class="cls-2" transform="translate(24.97 22.9) rotate(-65.75)"><tspan x="0" y="0">Y</tspan></text>
</svg>