<?xml version="1.0" encoding="UTF-8"?>
<svg id="Layer_1" data-name="Layer 1" xmlns="http://www.w3.org/2000/svg" viewBox="0 0 32.5 32.5">
  <defs>
    <style>
      .cls-1 {
        fill: none;
        stroke: #0055a6;
        stroke-linecap: round;
        stroke-linejoin: round;
        stroke-width: .31px;
      }

      .cls-2 {
        fill: #0156a5;
        font-family: Roboto-Regular, Roboto;
        font-size: 3.21px;
      }

      .cls-3 {
        fill: #0055a6;
        font-family: Baskerville-Bold, Baskerville;
        font-size: 12.38px;
        font-weight: 700;
      }
    </style>
  </defs>
  <g>
    <text class="cls-3" transform="translate(5.17 20.81)"><tspan x="0" y="0">ISO</tspan></text>
    <g>
      <path class="cls-1" d="m8.5,11.2s1.07-1.53,3.06-2.75c.27-.16,1.09-.61,2.25-.93,1.92-.53,3.41-.34,3.71-.3h0c.35.05,1.92.29,3.63,1.3,1.49.88,2.47,1.96,3.02,2.67"/>
      <path class="cls-1" d="m13.85,7.53c.24.18,1.3.94,2.75.76.99-.12,1.67-.61,1.95-.84"/>
      <path class="cls-1" d="m14.32,7.83c-1.12.68-1.86,1.38-2.35,1.92-.47.52-1.78,2.14-1.34,1.6h0"/>
      <path class="cls-1" d="m15.18,8.22c-.34.4-.72.91-1.07,1.53-.07.13-.41.73-.73,1.58,0,.01,0,.02,0,.02"/>
      <path class="cls-1" d="m18.14,7.83c1.11.52,1.81,1.14,2.24,1.61.65.71,1.41,1.87,1.44,1.91h0"/>
      <path class="cls-1" d="m17.21,8.19c.39.42.68.8.88,1.1.74,1.08.95,1.86,1,2.06h0"/>
      <line class="cls-1" x1="16.25" y1="8.32" x2="16.25" y2="11.35"/>
      <path class="cls-1" d="m10.57,9.13c.93.59,2.55,1.43,4.65,1.61.24.02,1.41.11,2.9-.15.49-.09,1.23-.22,2.14-.61.71-.3,1.26-.65,1.65-.92"/>
    </g>
    <g>
      <path class="cls-1" d="m8.5,21.78s1.07,1.53,3.06,2.75c.27.16,1.09.61,2.25.93,1.92.53,3.41.34,3.71.3h0c.35-.05,1.92-.29,3.63-1.3,1.49-.88,2.47-1.96,3.02-2.67"/>
      <path class="cls-1" d="m13.85,25.45c.24-.18,1.3-.94,2.75-.76.99.12,1.67.61,1.95.84"/>
      <path class="cls-1" d="m14.32,25.16c-1.12-.68-1.86-1.38-2.35-1.92-.47-.52-1.78-2.14-1.34-1.6h0"/>
      <path class="cls-1" d="m15.18,24.77c-.34-.4-.72-.91-1.07-1.53-.07-.13-.41-.73-.73-1.58,0-.01,0-.02,0-.02"/>
      <path class="cls-1" d="m18.14,25.16c1.11-.52,1.81-1.14,2.24-1.61.65-.71,1.41-1.87,1.44-1.91h0"/>
      <path class="cls-1" d="m17.21,24.79c.39-.42.68-.8.88-1.1.74-1.08.95-1.86,1-2.06h0"/>
      <line class="cls-1" x1="16.25" y1="24.67" x2="16.25" y2="21.63"/>
      <path class="cls-1" d="m10.57,23.85c.93-.59,2.55-1.43,4.65-1.61.24-.02,1.41-.11,2.9.15.49.09,1.23.22,2.14.61.71.3,1.26.65,1.65.92"/>
    </g>
  </g>
  <text class="cls-2" transform="translate(7.09 26.69) rotate(-133.98)"><tspan x="0" y="0">I</tspan></text>
  <text class="cls-2" transform="translate(6.5 26.11) rotate(-128.55)"><tspan x="0" y="0">n</tspan></text>
  <text class="cls-2" transform="translate(5.45 24.78) rotate(-122.79)"><tspan x="0" y="0">t</tspan></text>
  <text class="cls-2" transform="translate(4.9 23.96) rotate(-117.09)"><tspan x="0" y="0">e</tspan></text>
  <text class="cls-2" transform="translate(4.16 22.49) rotate(-111.29)"><tspan x="0" y="0">r</tspan></text>
  <text class="cls-2" transform="translate(3.77 21.54) rotate(-105.37)"><tspan x="0" y="0">n</tspan></text>
  <text class="cls-2" transform="translate(3.32 19.9) rotate(-98.14)"><tspan x="0" y="0">a</tspan></text>
  <text class="cls-2" transform="translate(3.09 18.25) rotate(-92.5)"><tspan x="0" y="0">t</tspan></text>
  <text class="cls-2" transform="translate(3.05 17.24) rotate(-88.74)"><tspan x="0" y="0">i</tspan></text>
  <text class="cls-2" transform="translate(3.04 16.49) rotate(-83.26)"><tspan x="0" y="0">o</tspan></text>
  <text class="cls-2" transform="translate(3.25 14.75) rotate(-75.86)"><tspan x="0" y="0">n</tspan></text>
  <text class="cls-2" transform="translate(3.65 13.13) rotate(-68.71)"><tspan x="0" y="0">a</tspan></text>
  <text class="cls-2" transform="translate(4.29 11.55) rotate(-63.42)"><tspan x="0" y="0">l</tspan></text>
  <text class="cls-2" transform="translate(4.62 10.88) rotate(-60.13)"><tspan x="0" y="0"> </tspan></text>
  <text class="cls-2" transform="translate(4.95 10.22) rotate(-53.94)"><tspan x="0" y="0">O</tspan></text>
  <text class="cls-2" transform="translate(6.22 8.52) rotate(-47.25)"><tspan x="0" y="0">r</tspan></text>
  <text class="cls-2" transform="translate(6.89 7.76) rotate(-41.43)"><tspan x="0" y="0">g</tspan></text>
  <text class="cls-2" transform="translate(8.2 6.61) rotate(-34.04)"><tspan x="0" y="0">a</tspan></text>
  <text class="cls-2" transform="translate(9.56 5.68) rotate(-26.82)"><tspan x="0" y="0">n</tspan></text>
  <text class="cls-2" transform="translate(11.12 4.91) rotate(-21.46)"><tspan x="0" y="0">i</tspan></text>
  <text class="cls-2" transform="translate(11.79 4.63) rotate(-16.58)"><tspan x="0" y="0">z</tspan></text>
  <text class="cls-2" transform="translate(13.25 4.19) rotate(-9.68)"><tspan x="0" y="0">a</tspan></text>
  <text class="cls-2" transform="translate(14.89 3.92) rotate(-4.04)"><tspan x="0" y="0">t</tspan></text>
  <text class="cls-2" transform="translate(15.9 3.85) rotate(-.28)"><tspan x="0" y="0">i</tspan></text>
  <text class="cls-2" transform="translate(16.62 3.82) rotate(5.01)"><tspan x="0" y="0">o</tspan></text>
  <text class="cls-2" transform="translate(18.36 3.97) rotate(12.4)"><tspan x="0" y="0">n</tspan></text>
  <text class="cls-2" transform="translate(20.05 4.36) rotate(17.78)"><tspan x="0" y="0"> </tspan></text>
  <text class="cls-2" transform="translate(20.79 4.59) rotate(21.81)"><tspan x="0" y="0">f</tspan></text>
  <text class="cls-2" transform="translate(21.75 4.95) rotate(27.82)"><tspan x="0" y="0">o</tspan></text>
  <text class="cls-2" transform="translate(23.31 5.8) rotate(33.9)"><tspan x="0" y="0">r</tspan></text>
  <text class="cls-2" transform="translate(24.18 6.38) rotate(37.78)"><tspan x="0" y="0"> </tspan></text>
  <text class="cls-2" transform="translate(24.78 6.81) rotate(43.28)"><tspan x="0" y="0">S</tspan></text>
  <text class="cls-2" transform="translate(26.11 8.09) rotate(49.28)"><tspan x="0" y="0">t</tspan></text>
  <text class="cls-2" transform="translate(26.77 8.82) rotate(55.05)"><tspan x="0" y="0">a</tspan></text>
  <text class="cls-2" transform="translate(27.73 10.2) rotate(62.37)"><tspan x="0" y="0">n</tspan></text>
  <text class="cls-2" transform="translate(28.52 11.69) rotate(69.76)"><tspan x="0" y="0">d</tspan></text>
  <text class="cls-2" transform="translate(29.13 13.32) rotate(77.13)"><tspan x="0" y="0">a</tspan></text>
  <text class="cls-2" transform="translate(29.49 14.95) rotate(82.88)"><tspan x="0" y="0">r</tspan></text>
  <text class="cls-2" transform="translate(29.63 15.94) rotate(88.69)"><tspan x="0" y="0">d</tspan></text>
  <text class="cls-2" transform="translate(29.65 17.69) rotate(93.99)"><tspan x="0" y="0">i</tspan></text>
  <text class="cls-2" transform="translate(29.62 18.44) rotate(98.96)"><tspan x="0" y="0">z</tspan></text>
  <text class="cls-2" transform="translate(29.39 19.96) rotate(105.87)"><tspan x="0" y="0">a</tspan></text>
  <text class="cls-2" transform="translate(28.91 21.57) rotate(111.63)"><tspan x="0" y="0">t</tspan></text>
  <text class="cls-2" transform="translate(28.55 22.49) rotate(115.34)"><tspan x="0" y="0">i</tspan></text>
  <text class="cls-2" transform="translate(28.25 23.17) rotate(120.85)"><tspan x="0" y="0">o</tspan></text>
  <text class="cls-2" transform="translate(27.36 24.67) rotate(128.23)"><tspan x="0" y="0">n</tspan></text>
</svg>