<?xml version="1.0" encoding="UTF-8"?>
<svg id="Layer_1" data-name="Layer 1" xmlns="http://www.w3.org/2000/svg" viewBox="0 0 33 33">
  <defs>
    <style>
      .cls-1 {
        font-size: 3.14px;
      }

      .cls-1, .cls-2 {
        font-family: Roboto-Bold, Roboto;
        font-weight: 700;
      }

      .cls-1, .cls-2, .cls-3 {
        fill: #218137;
      }

      .cls-2 {
        font-size: 3.14px;
      }

      .cls-4 {
        fill: none;
        stroke: #3d7853;
        stroke-miterlimit: 10;
        stroke-width: .28px;
      }

      .cls-5 {
        fill: #277d37;
        stroke: #f2f2f2;
        stroke-linecap: round;
        stroke-linejoin: round;
        stroke-width: .07px;
      }
    </style>
  </defs>
  <g>
    <path class="cls-3" d="M15.52,26.74c.89-.32,1.35-1.05,1.84-1.84.34-.55.9-1.46.82-2.63-.03-.41-.11-.76-.19-.98-.43-1.28-.78-2.05-2.34-3.05s-3.12-1.98-3.68-4.11-.43-3.68.14-4.82,1.42-1.98,2.13-2.55,1.7-.99,1.7-.99c0,0-.99-.14-3.4.71s-4.25,2.41-5.1,3.68-2.13,3.12-2.13,6.52,1.94,5.49,2.46,6.36c.23.38,1.22,1.46,2.78,2.43,1.27.79,2.26,1.06,2.55,1.13.95.24,1.64.42,2.41.14Z"/>
    <path class="cls-5" d="M16.23,14.84s.18,3.97.16,4.61-.3,2.9-.3,2.9l2.1-.08s-.4-2.75-.4-4.03.2-3.4.2-3.4h-1.76Z"/>
    <path class="cls-5" d="M18.36,14.42s.14-.71.99-1.84,2.27-1.42,2.27-1.42c0,0,0,.99-.57,1.84s-2.69,1.42-2.69,1.42Z"/>
    <path class="cls-5" d="M15.81,14.56s0-.57-.57-1.56-2.69-1.84-2.69-1.84c0,.25.05,1.07.4,1.7.05.08.14.25.31.43.08.08.24.24.64.47.23.14.45.24.78.38.71.28,1.13.43,1.13.43Z"/>
    <ellipse class="cls-5" cx="17.08" cy="12.86" rx=".85" ry="1.13"/>
    <line class="cls-4" x1="17.93" y1="5.92" x2="19.09" y2="5.92"/>
    <line class="cls-4" x1="17.08" y1="6.64" x2="21.37" y2="6.64"/>
    <line class="cls-4" x1="16.51" y1="7.47" x2="22.89" y2="7.47"/>
    <line class="cls-4" x1="16.09" y1="8.32" x2="24.01" y2="8.32"/>
    <line class="cls-4" x1="15.66" y1="9.03" x2="24.93" y2="9.03"/>
    <line class="cls-4" x1="15.35" y1="9.84" x2="25.58" y2="9.84"/>
    <line class="cls-4" x1="15.35" y1="10.65" x2="26.29" y2="10.65"/>
    <line class="cls-4" x1="15.35" y1="11.47" x2="26.86" y2="11.47"/>
    <line class="cls-4" x1="15.66" y1="12.35" x2="27.14" y2="12.35"/>
    <line class="cls-4" x1="17.37" y1="13.14" x2="27.43" y2="13.14"/>
    <line class="cls-4" x1="17.76" y1="13.99" x2="27.71" y2="13.99"/>
    <line class="cls-4" x1="18.28" y1="14.84" x2="27.85" y2="14.84"/>
    <line class="cls-4" x1="19.07" y1="15.55" x2="27.85" y2="15.55"/>
    <line class="cls-4" x1="19.99" y1="16.32" x2="27.85" y2="16.32"/>
    <line class="cls-4" x1="20.82" y1="17.27" x2="27.85" y2="17.27"/>
    <line class="cls-4" x1="21.37" y1="18.07" x2="27.85" y2="18.07"/>
    <line class="cls-4" x1="21.62" y1="18.95" x2="27.71" y2="18.95"/>
    <line class="cls-4" x1="21.76" y1="19.8" x2="27.57" y2="19.8"/>
    <line class="cls-4" x1="21.9" y1="20.65" x2="27" y2="20.65"/>
    <line class="cls-4" x1="21.9" y1="21.41" x2="26.72" y2="21.41"/>
    <line class="cls-4" x1="21.9" y1="22.19" x2="26.29" y2="22.19"/>
    <line class="cls-4" x1="21.62" y1="23.04" x2="25.58" y2="23.04"/>
    <line class="cls-4" x1="21.33" y1="23.91" x2="24.87" y2="23.91"/>
    <line class="cls-4" x1="20.82" y1="24.69" x2="23.92" y2="24.69"/>
    <line class="cls-4" x1="19.77" y1="25.47" x2="22.89" y2="25.47"/>
    <line class="cls-4" x1="18.64" y1="26.32" x2="21.05" y2="26.32"/>
    <line class="cls-4" x1="16.51" y1="27.03" x2="18.64" y2="27.03"/>
  </g>
  <text class="cls-2" transform="translate(3.87 16.05) rotate(-82.55)"><tspan x="0" y="0">N</tspan></text>
  <text class="cls-2" transform="translate(4.13 13.95) rotate(-73.02)"><tspan x="0" y="0">H</tspan></text>
  <text class="cls-2" transform="translate(4.76 11.89) rotate(-63.46)"><tspan x="0" y="0">Ã</tspan></text>
  <text class="cls-2" transform="translate(5.66 10.07) rotate(-54.08)"><tspan x="0" y="0">N</tspan></text>
  <text class="cls-2" transform="translate(6.93 8.37) rotate(-47.73)"><tspan x="0" y="0"> </tspan></text>
  <text class="cls-2" transform="translate(7.4 7.82) rotate(-41.93)"><tspan x="0" y="0">S</tspan></text>
  <text class="cls-2" transform="translate(8.81 6.58) rotate(-35.77)"><tspan x="0" y="0">I</tspan></text>
  <text class="cls-2" transform="translate(9.47 6.05) rotate(-29.07)"><tspan x="0" y="0">N</tspan></text>
  <text class="cls-2" transform="translate(11.31 5.02) rotate(-19.49)"><tspan x="0" y="0">H</tspan></text>
  <text class="cls-2" transform="translate(13.36 4.33) rotate(-12.94)"><tspan x="0" y="0"> </tspan></text>
  <text class="cls-2" transform="translate(13.98 4.16) rotate(-7.39)"><tspan x="0" y="0">T</tspan></text>
  <text class="cls-2" transform="translate(15.8 3.9) rotate(1.46)"><tspan x="0" y="0">H</tspan></text>
  <text class="cls-2" transform="translate(17.96 3.96) rotate(10.89)"><tspan x="0" y="0">Á</tspan></text>
  <text class="cls-2" transform="translate(19.94 4.37) rotate(17.35)"><tspan x="0" y="0">I</tspan></text>
  <text class="cls-2" transform="translate(20.79 4.63) rotate(21.08)"><tspan x="0" y="0"> </tspan></text>
  <text class="cls-2" transform="translate(21.47 4.86) rotate(27.23)"><tspan x="0" y="0">V</tspan></text>
  <text class="cls-2" transform="translate(23.23 5.79) rotate(33.66)"><tspan x="0" y="0">I</tspan></text>
  <text class="cls-2" transform="translate(23.94 6.24) rotate(39.35)"><tspan x="0" y="0">Ệ</tspan></text>
  <text class="cls-2" transform="translate(25.28 7.32) rotate(47.46)"><tspan x="0" y="0">T</tspan></text>
  <text class="cls-2" transform="translate(26.48 8.66) rotate(52.94)"><tspan x="0" y="0"> </tspan></text>
  <text class="cls-2" transform="translate(26.94 9.2) rotate(59.38)"><tspan x="0" y="0">N</tspan></text>
  <text class="cls-2" transform="translate(28.04 11.05) rotate(68.84)"><tspan x="0" y="0">A</tspan></text>
  <text class="cls-2" transform="translate(28.8 12.91) rotate(79.38)"><tspan x="0" y="0">M</tspan></text>
  <text class="cls-1" transform="translate(2.88 23.42) rotate(59.1)"><tspan x="0" y="0">V</tspan></text>
  <text class="cls-1" transform="translate(4.08 25.33) rotate(52.79)"><tspan x="0" y="0">I</tspan></text>
  <text class="cls-1" transform="translate(4.73 26.22) rotate(47.08)"><tspan x="0" y="0">E</tspan></text>
  <text class="cls-1" transform="translate(6.16 27.73) rotate(38.98)"><tspan x="0" y="0">T</tspan></text>
  <text class="cls-1" transform="translate(7.9 29.12) rotate(30.14)"><tspan x="0" y="0">N</tspan></text>
  <text class="cls-1" transform="translate(10.12 30.37) rotate(20.89)"><tspan x="0" y="0">A</tspan></text>
  <text class="cls-1" transform="translate(12.41 31.24) rotate(10.64)"><tspan x="0" y="0">M</tspan></text>
  <text class="cls-1" transform="translate(15.34 31.72) rotate(3.22)"><tspan x="0" y="0"> </tspan></text>
  <text class="cls-1" transform="translate(16.34 31.79) rotate(-2.37)"><tspan x="0" y="0">E</tspan></text>
  <text class="cls-1" transform="translate(18.37 31.69) rotate(-10.51)"><tspan x="0" y="0">C</tspan></text>
  <text class="cls-1" transform="translate(20.67 31.25) rotate(-19.49)"><tspan x="0" y="0">O</tspan></text>
  <text class="cls-1" transform="translate(22.95 30.41) rotate(-27.55)"><tspan x="0" y="0">L</tspan></text>
  <text class="cls-1" transform="translate(24.72 29.47) rotate(-35.77)"><tspan x="0" y="0">A</tspan></text>
  <text class="cls-1" transform="translate(26.65 28.05) rotate(-44.52)"><tspan x="0" y="0">B</tspan></text>
  <text class="cls-1" transform="translate(28.25 26.44) rotate(-52.59)"><tspan x="0" y="0">E</tspan></text>
  <text class="cls-1" transform="translate(29.45 24.83) rotate(-59.95)"><tspan x="0" y="0">L</tspan></text>
  <polygon class="cls-3" points="2.9 17.74 3.31 19.02 4.66 19.02 3.57 19.81 3.99 21.1 2.9 20.3 1.81 21.1 2.22 19.81 1.13 19.02 2.48 19.02 2.9 17.74"/>
  <polygon class="cls-3" points="30.1 17.45 30.52 18.74 31.87 18.74 30.78 19.53 31.19 20.81 30.1 20.02 29.01 20.81 29.43 19.53 28.34 18.74 29.69 18.74 30.1 17.45"/>
</svg>