<?xml version="1.0" encoding="UTF-8"?>
<svg id="Layer_1" data-name="Layer 1" xmlns="http://www.w3.org/2000/svg" viewBox="0 0 33 33">
  <defs>
    <style>
      .cls-1, .cls-2 {
        fill: #eb1d44;
      }

      .cls-3 {
        stroke: #000;
        stroke-width: .09px;
      }

      .cls-3, .cls-4 {
        fill: none;
      }

      .cls-3, .cls-4, .cls-5, .cls-2 {
        stroke-miterlimit: 10;
      }

      .cls-6 {
        font-size: 2.9px;
      }

      .cls-6, .cls-7 {
        fill: #fff;
      }

      .cls-6, .cls-8 {
        font-family: Roboto-Black, Roboto;
        font-weight: 800;
      }

      .cls-9 {
        font-family: Roboto-Bold, Roboto;
        font-size: .89px;
        font-weight: 700;
      }

      .cls-10 {
        letter-spacing: 0em;
      }

      .cls-4 {
        stroke: #231f1f;
        stroke-width: 1.49px;
      }

      .cls-11 {
        letter-spacing: -.09em;
      }

      .cls-8 {
        font-size: 4.84px;
      }

      .cls-5 {
        fill: #1b325d;
        stroke: #fff;
      }

      .cls-5, .cls-2 {
        stroke-width: .37px;
      }

      .cls-2 {
        stroke: #1a1a1a;
      }
    </style>
  </defs>
  <ellipse class="cls-2" cx="16.5" cy="16.5" rx="15.99" ry="15.72"/>
  <circle class="cls-5" cx="16.5" cy="16.5" r="14.63"/>
  <circle class="cls-7" cx="16.5" cy="16.5" r="10.48"/>
  <g>
    <path class="cls-4" d="M18.93,18.67h1.71c.56,0,1.02-.43,1.02-.97v-6.74c0-.54-.46-.97-1.02-.97h-8.75c-.56,0-1.02.43-1.02.97v6.74c0,.54.46.97,1.02.97h1.71"/>
    <path class="cls-1" d="M14.78,17s-.12.25-.12.62v.56c-.16-.16-.47-.51-.62-1.05-.05-.17-.14-.51-.06-.93.05-.26.16-.55.24-.76.07-.17.13-.34.18-.6.02-.09.02-.19.02-.32,0-.09-.12-.99-.12-.99,0,0,.5.5.74.87s.62,1.12.62,1.12c0,0,.12-.87-.12-1.36s.12-1.49.12-1.49c0,.64.16,1.05.31,1.3.22.38.47.52.81,1.05.19.3.31.57.37.74,0,0,.25-.37.37-.99s0-1.48,0-1.48c.34.41.76,1.03.99,1.86.08.27.32,1.13.06,1.8-.09.25-.25.5-.25.5-.15.25-.31.43-.43.56.06-.21.12-.46.12-.74v-.25s-.12.5-.37.99-.62.99-.74,1.12-.37.25-.37.25c0,0,.25-.5.25-.99s0-.62-.12-.99l-.25-.74s0,.45-.12.97-.5,1.51-.5,1.51c-.39-.41-.62-.76-.74-.99-.09-.16-.14-.29-.19-.43-.08-.28-.08-.52-.06-.68Z"/>
    <path class="cls-1" d="M16.02,11.17c-.08.22-.18.54-.19.93,0,.18,0,.5.12.87.11.31.22.45.5.8.17.21.38.53.56.99,0,0,.12-.74,0-1.36-.04-.19-.09-.32-.15-.43-.18-.34-.35-.52-.47-.69-.16-.21-.34-.55-.37-1.12Z"/>
    <text class="cls-8" transform="translate(10.46 23.43)"><tspan x="0" y="0">NF</tspan><tspan class="cls-11" x="6.04" y="0">P</tspan><tspan class="cls-10" x="8.77" y="0">A</tspan></text>
    <g>
      <circle class="cls-3" cx="22" cy="19.81" r=".53"/>
      <text class="cls-9" transform="translate(21.72 20.13)"><tspan x="0" y="0">R</tspan></text>
    </g>
  </g>
  <text class="cls-6" transform="translate(12.23 27.42) rotate(-154.04)"><tspan x="0" y="0">C</tspan></text>
  <text class="cls-6" transform="translate(10.63 26.64) rotate(-146.02)"><tspan x="0" y="0">E</tspan></text>
  <text class="cls-6" transform="translate(9.4 25.83) rotate(-138.1)"><tspan x="0" y="0">R</tspan></text>
  <text class="cls-6" transform="translate(8.12 24.7) rotate(-129.87)"><tspan x="0" y="0">T</tspan></text>
  <text class="cls-6" transform="translate(7.04 23.38) rotate(-123.82)"><tspan x="0" y="0">I</tspan></text>
  <text class="cls-6" transform="translate(6.59 22.75) rotate(-118.34)"><tspan x="0" y="0">F</tspan></text>
  <text class="cls-6" transform="translate(5.9 21.43) rotate(-112.79)"><tspan x="0" y="0">I</tspan></text>
  <text class="cls-6" transform="translate(5.58 20.73) rotate(-107.23)"><tspan x="0" y="0">E</tspan></text>
  <text class="cls-6" transform="translate(5.12 19.31) rotate(-99.33)"><tspan x="0" y="0">D</tspan></text>
  <text class="cls-6" transform="translate(4.85 17.55) rotate(-93.42)"><tspan x="0" y="0"> </tspan></text>
  <text class="cls-6" transform="translate(4.75 16.95) rotate(-86.02)"><tspan x="0" y="0">W</tspan></text>
  <text class="cls-6" transform="translate(4.91 14.68) rotate(-76.18)"><tspan x="0" y="0">A</tspan></text>
  <text class="cls-6" transform="translate(5.31 13.04) rotate(-69.13)"><tspan x="0" y="0">T</tspan></text>
  <text class="cls-6" transform="translate(5.91 11.49) rotate(-60.78)"><tspan x="0" y="0">E</tspan></text>
  <text class="cls-6" transform="translate(6.63 10.17) rotate(-52.71)"><tspan x="0" y="0">R</tspan></text>
  <text class="cls-6" transform="translate(7.71 8.77) rotate(-45.46)"><tspan x="0" y="0">-</tspan></text>
  <text class="cls-6" transform="translate(8.51 7.92) rotate(-38.31)"><tspan x="0" y="0">B</tspan></text>
  <text class="cls-6" transform="translate(9.84 6.84) rotate(-29.71)"><tspan x="0" y="0">A</tspan></text>
  <text class="cls-6" transform="translate(11.44 5.93) rotate(-21.16)"><tspan x="0" y="0">S</tspan></text>
  <text class="cls-6" transform="translate(13 5.32) rotate(-13.46)"><tspan x="0" y="0">E</tspan></text>
  <text class="cls-6" transform="translate(14.46 4.95) rotate(-5.5)"><tspan x="0" y="0">D</tspan></text>
  <text class="cls-6" transform="translate(16.21 4.81) rotate(.36)"><tspan x="0" y="0"> </tspan></text>
  <text class="cls-6" transform="translate(16.83 4.78) rotate(6.12)"><tspan x="0" y="0">S</tspan></text>
  <text class="cls-6" transform="translate(18.5 4.95) rotate(14.37)"><tspan x="0" y="0">Y</tspan></text>
  <text class="cls-6" transform="translate(20.1 5.34) rotate(22.72)"><tspan x="0" y="0">S</tspan></text>
  <text class="cls-6" transform="translate(21.65 5.97) rotate(30.48)"><tspan x="0" y="0">T</tspan></text>
  <text class="cls-6" transform="translate(23.12 6.83) rotate(38.36)"><tspan x="0" y="0">E</tspan></text>
  <text class="cls-6" transform="translate(24.31 7.71) rotate(47.87)"><tspan x="0" y="0">M</tspan></text>
  <text class="cls-6" transform="translate(25.88 9.47) rotate(57.64)"><tspan x="0" y="0">S</tspan></text>
  <text class="cls-6" transform="translate(26.78 10.94) rotate(63.37)"><tspan x="0" y="0"> </tspan></text>
  <text class="cls-6" transform="translate(27.09 11.47) rotate(69.18)"><tspan x="0" y="0">P</tspan></text>
  <text class="cls-6" transform="translate(27.72 13.09) rotate(77.66)"><tspan x="0" y="0">R</tspan></text>
  <text class="cls-6" transform="translate(28.1 14.78) rotate(86.41)"><tspan x="0" y="0">O</tspan></text>
  <text class="cls-6" transform="translate(28.21 16.64) rotate(94.6)"><tspan x="0" y="0">F</tspan></text>
  <text class="cls-6" transform="translate(28.11 18.09) rotate(101.84)"><tspan x="0" y="0">E</tspan></text>
  <text class="cls-6" transform="translate(27.82 19.56) rotate(109.61)"><tspan x="0" y="0">S</tspan></text>
  <text class="cls-6" transform="translate(27.26 21.14) rotate(117.68)"><tspan x="0" y="0">S</tspan></text>
  <text class="cls-6" transform="translate(26.46 22.63) rotate(123.71)"><tspan x="0" y="0">I</tspan></text>
  <text class="cls-6" transform="translate(26.06 23.3) rotate(130.3)"><tspan x="0" y="0">O</tspan></text>
  <text class="cls-6" transform="translate(24.88 24.71) rotate(139.43)"><tspan x="0" y="0">N</tspan></text>
  <text class="cls-6" transform="translate(23.44 25.95) rotate(148.58)"><tspan x="0" y="0">A</tspan></text>
  <text class="cls-6" transform="translate(21.86 26.91) rotate(156.62)"><tspan x="0" y="0">L</tspan></text>
</svg>