<?xml version="1.0" encoding="UTF-8"?>
<svg id="Layer_1" data-name="Layer 1" xmlns="http://www.w3.org/2000/svg" viewBox="0 0 33 33">
  <defs>
    <style>
      .cls-1, .cls-2 {
        fill: #2e5e9e;
      }

      .cls-2 {
        font-size: 5.91px;
      }

      .cls-2, .cls-3 {
        font-family: AnekLatin-SemiBold, 'Anek Latin';
        font-variation-settings: 'wght' 600, 'wdth' 100;
        font-weight: 600;
      }

      .cls-4 {
        letter-spacing: 0em;
      }

      .cls-5, .cls-3 {
        fill: #fff;
      }

      .cls-6 {
        fill: #74ba42;
        stroke: #fff;
        stroke-miterlimit: 10;
        stroke-width: .76px;
      }

      .cls-3 {
        font-size: 2.8px;
      }

      .cls-7 {
        letter-spacing: -.02em;
      }
    </style>
  </defs>
  <circle class="cls-1" cx="15.22" cy="15.55" r="13.55"/>
  <circle class="cls-5" cx="15.22" cy="15.74" r="9.8"/>
  <text class="cls-3" transform="translate(9.39 24.48) rotate(-143.22)"><tspan x="0" y="0">C</tspan></text>
  <text class="cls-3" transform="translate(8.34 23.72) rotate(-135.43)"><tspan x="0" y="0">O</tspan></text>
  <text class="cls-3" transform="translate(7.21 22.64) rotate(-125.9)"><tspan x="0" y="0">M</tspan></text>
  <text class="cls-3" transform="translate(6.03 21) rotate(-116.66)"><tspan x="0" y="0">P</tspan></text>
  <text class="cls-3" transform="translate(5.34 19.63) rotate(-109.08)"><tspan x="0" y="0">L</tspan></text>
  <text class="cls-3" transform="translate(4.92 18.37) rotate(-103.73)"><tspan x="0" y="0">I</tspan></text>
  <text class="cls-3" transform="translate(4.74 17.77) rotate(-97.72)"><tspan x="0" y="0">A</tspan></text>
  <text class="cls-3" transform="translate(4.52 16.21) rotate(-89.02)"><tspan x="0" y="0">N</tspan></text>
  <text class="cls-3" transform="translate(4.55 14.54) rotate(-80.77)"><tspan x="0" y="0">T</tspan></text>
  <text class="cls-3" transform="translate(4.79 13.12) rotate(-75.64)"><tspan x="0" y="0"> </tspan></text>
  <text class="cls-3" transform="translate(4.91 12.61) rotate(-71.54)"><tspan x="0" y="0">-</tspan></text>
  <text class="cls-3" transform="translate(5.24 11.64) rotate(-67.43)"><tspan x="0" y="0"> </tspan></text>
  <text class="cls-3" transform="translate(5.41 11.18) rotate(-62.44)"><tspan x="0" y="0">C</tspan></text>
  <text class="cls-3" transform="translate(5.99 10.03) rotate(-54.8)"><tspan x="0" y="0">O</tspan></text>
  <text class="cls-3" transform="translate(6.88 8.72) rotate(-45.07)"><tspan x="0" y="0">M</tspan></text>
  <text class="cls-3" transform="translate(8.33 7.27) rotate(-35.53)"><tspan x="0" y="0">P</tspan></text>
  <text class="cls-3" transform="translate(9.55 6.41) rotate(-28.28)"><tspan x="0" y="0">L</tspan></text>
  <text class="cls-3" transform="translate(10.71 5.79) rotate(-23.04)"><tspan x="0" y="0">I</tspan></text>
  <text class="cls-3" transform="translate(11.3 5.51) rotate(-16.93)"><tspan x="0" y="0">A</tspan></text>
  <text class="cls-3" transform="translate(12.79 5.04) rotate(-8.24)"><tspan x="0" y="0">N</tspan></text>
  <text class="cls-3" transform="translate(14.43 4.8) rotate(-.05)"><tspan x="0" y="0">T</tspan></text>
  <text class="cls-3" transform="translate(15.91 4.82) rotate(5.28)"><tspan x="0" y="0"> </tspan></text>
  <text class="cls-3" transform="translate(16.42 4.86) rotate(9.4)"><tspan x="0" y="0">-</tspan></text>
  <text class="cls-3" transform="translate(17.4 5.03) rotate(13.33)"><tspan x="0" y="0"> </tspan></text>
  <text class="cls-3" transform="translate(17.92 5.13) rotate(18.45)"><tspan x="0" y="0">C</tspan></text>
  <text class="cls-3" transform="translate(19.13 5.51) rotate(26)"><tspan x="0" y="0">O</tspan></text>
  <text class="cls-3" transform="translate(20.58 6.18) rotate(35.73)"><tspan x="0" y="0">M</tspan></text>
  <text class="cls-3" transform="translate(22.23 7.39) rotate(45.28)"><tspan x="0" y="0">P</tspan></text>
  <text class="cls-3" transform="translate(23.28 8.44) rotate(52.65)"><tspan x="0" y="0">L</tspan></text>
  <text class="cls-3" transform="translate(24.07 9.5) rotate(57.9)"><tspan x="0" y="0">I</tspan></text>
  <text class="cls-3" transform="translate(24.44 10.03) rotate(63.89)"><tspan x="0" y="0">A</tspan></text>
  <text class="cls-3" transform="translate(25.14 11.43) rotate(72.53)"><tspan x="0" y="0">N</tspan></text>
  <text class="cls-3" transform="translate(25.65 13.03) rotate(80.88)"><tspan x="0" y="0">T</tspan></text>
  <path class="cls-6" d="M15.22,28.95c.18.56.89,2.36,1.78,2.46.77.09,1.34-1.15,2.5-2.91,1.32-2.01,2.55-3.34,5-6,.57-.62,1.72-1.75,4-4,2.72-2.68,4.4-4.26,4.02-4.9-.06-.1-.18-.21-.51-.25-2.4-.31-9.03,6.11-9.03,6.11-1.21,1.17-3.29,3.17-5.98,5.73-.64-1.04-1.12-1.83-1.4-2.29-.93-1.54-1.44-2.41-2.1-2.38-.08,0-.2,0-.32.09-.45.34-.16,1.49.25,2.8.31.99.48,1.46.7,2.1.72,2.15.71,2.33,1.08,3.45Z"/>
  <text class="cls-2" transform="translate(6.67 17.16)"><tspan x="0" y="0">R</tspan><tspan class="cls-4" x="3.51" y="0">E</tspan><tspan class="cls-7" x="6.69" y="0">A</tspan><tspan x="10.17" y="0">CH</tspan></text>
</svg>