<?xml version="1.0" encoding="UTF-8"?>
<svg id="Layer_1" data-name="Layer 1" xmlns="http://www.w3.org/2000/svg" viewBox="0 0 33 33">
  <defs>
    <style>
      .cls-1 {
        fill: #2c7c34;
        stroke: #fff;
        stroke-width: .42px;
      }

      .cls-1, .cls-2 {
        stroke-miterlimit: 10;
      }

      .cls-3 {
        fill: #2b7b35;
        font-size: 4.88px;
      }

      .cls-3, .cls-4 {
        font-family: Roboto-Black, Roboto;
        font-weight: 800;
      }

      .cls-5 {
        fill: #2d7d35;
        font-family: Roboto-Bold, Roboto;
        font-size: 3.18px;
        font-weight: 700;
      }

      .cls-6 {
        letter-spacing: 0em;
      }

      .cls-7 {
        letter-spacing: -.01em;
      }

      .cls-8 {
        letter-spacing: -.03em;
      }

      .cls-4 {
        fill: #2e7e37;
        font-size: 6.9px;
      }

      .cls-2 {
        fill: none;
        stroke: #2e7e37;
        stroke-width: .56px;
      }

      .cls-9 {
        letter-spacing: 0em;
      }
    </style>
  </defs>
  <circle class="cls-2" cx="16.5" cy="17.27" r="15"/>
  <path class="cls-1" d="M6.78,12.84c2.74,1.01,4.43,2.33,5.49,3.38.33.32.56.59,2.82,3.1h0s2.96-4.23,4.51-5.92c0,0,1.38-1.69,3.8-3.8.64-.56,1.47-1.01,1.69-1.13.14-.08.26-.13.28-.14.34-.15.64-.24.85-.28-.2-.45-.45-1.12-.56-1.97-.03-.2-.07-.59,0-1.97.05-1.05.14-1.9.28-3.38,0,0-2.39,1.41-4.37,3.38s-3.94,5.46-3.94,5.46l-2.82,4.97-2.68-4.93-5.35,3.24Z"/>
  <g>
    <text class="cls-4" transform="translate(6.85 23.94)"><tspan x="0" y="0">R</tspan></text>
    <text class="cls-3" transform="translate(11.34 23.91) scale(1.41 1)"><tspan x="0" y="0">O</tspan></text>
    <text class="cls-4" transform="translate(16.43 23.94)"><tspan x="0" y="0">H</tspan></text>
    <text class="cls-4" transform="translate(21.83 23.94)"><tspan x="0" y="0">S</tspan></text>
  </g>
  <text class="cls-5" transform="translate(7.48 27.12)"><tspan x="0" y="0">COMPL</tspan><tspan class="cls-9" x="10.84" y="0">I</tspan><tspan class="cls-6" x="11.79" y="0">A</tspan><tspan class="cls-7" x="13.93" y="0">N</tspan><tspan class="cls-8" x="16.13" y="0">T</tspan></text>
</svg>