<?xml version="1.0" encoding="UTF-8"?>
<svg id="Layer_1" data-name="Layer 1" xmlns="http://www.w3.org/2000/svg" viewBox="0 0 33 33">
  <defs>
    <style>
      .cls-1 {
        font-family: MyriadConceptRoman-SemiCn, 'Myriad Variable Concept';
        font-size: 2.99px;
        font-variation-settings: 'wght' 400, 'wdth' 90;
      }

      .cls-2 {
        fill: none;
        stroke: #000;
        stroke-miterlimit: 10;
        stroke-width: .14px;
      }
    </style>
  </defs>
  <path d="M16.5,3.2c7.33,0,13.3,5.97,13.3,13.3s-5.97,13.3-13.3,13.3S3.2,23.83,3.2,16.5,9.17,3.2,16.5,3.2M16.5.17C7.48.17.17,7.48.17,16.5s7.31,16.33,16.33,16.33,16.33-7.31,16.33-16.33S25.52.17,16.5.17h0Z"/>
  <path d="M8.57,7.64h2.95c0,3.21.02,6.42.02,9.62,0,.09-.06.69.35,1.05.11.1.22.15.29.17.43.16.88-.02,1.01-.11.55-.39.49-1.34.44-2.16-.1-1.88-.01-3.77-.06-5.65-.02-.65-.03-1.67,0-2.92h3.02v9.74c0,.37-.05,1.96-1.21,2.8-.39.28-.76.38-1.34.52-1.56.4-2.78.07-3.03,0-.41-.12-.87-.25-1.34-.64-.19-.16-.56-.5-.82-1.05-.19-.41-.24-.76-.29-1.11-.07-.5-.06-.89-.05-.99.03-.79.04-4.32.05-9.28Z"/>
  <polygon points="17.84 12.36 20.89 12.36 20.89 22.74 24.54 22.74 24.54 25.19 17.84 25.19 17.84 12.36"/>
  <g>
    <circle class="cls-2" cx="12.51" cy="23.12" r="1.6"/>
    <text class="cls-1" transform="translate(11.76 24.06)"><tspan x="0" y="0">R</tspan></text>
  </g>
</svg>