<?xml version="1.0" encoding="UTF-8"?>
<svg id="Layer_1" data-name="Layer 1" xmlns="http://www.w3.org/2000/svg" viewBox="0 0 8.5 8.5">
  <defs>
    <style>
      .cls-1 {
        fill: #fff;
      }

      .cls-1, .cls-2 {
        stroke-width: 0px;
      }

      .cls-2 {
        fill: #f15a24;
      }
    </style>
  </defs>
  <circle class="cls-2" cx="4.25" cy="4.25" r="4"/>
  <g>
    <rect class="cls-1" x="3.37" y="2.48" width="1.76" height=".16"/>
    <rect class="cls-1" x="3.37" y="2.94" width="1.76" height=".16"/>
    <rect class="cls-1" x="3.37" y="5.45" width="1.76" height=".16"/>
    <rect class="cls-1" x="3.37" y="5.91" width="1.76" height=".16"/>
    <path class="cls-1" d="m5.98,3.29h-.28v-.97c0-.12-.04-.22-.13-.31-.08-.08-.19-.13-.31-.13h-2.03c-.12,0-.22.04-.31.13-.08.08-.13.19-.13.31v.97h-.28c-.39,0-.7.32-.7.7v1.19c0,.39.32.7.7.7h.28v.3c0,.12.04.22.13.31.08.08.19.13.31.13h2.03c.12,0,.22-.04.31-.13.08-.08.13-.19.13-.31v-.3h.29c.38,0,.69-.32.69-.7v-1.19c0-.39-.32-.7-.7-.7Zm-2.85-.97s.01-.06.03-.08c.02-.02.05-.03.08-.03h2.03s.06.01.08.03c.02.02.03.05.03.08v.97h-2.24v-.97Zm2.24,3.87s-.01.06-.03.08c-.02.02-.05.03-.08.03h-2.03s-.06-.01-.08-.03c-.02-.02-.03-.05-.03-.08v-.97h2.24v.97Zm.99-1c0,.21-.17.38-.38.38h-.28v-.68h-2.89v.68h-.28c-.21,0-.38-.17-.38-.38v-1.19c0-.21.17-.38.38-.38h3.46c.21,0,.38.17.38.38v1.19Z"/>
    <path class="cls-1" d="m5.75,3.94c-.06,0-.13.03-.17.07-.09.09-.09.25,0,.34.05.05.11.07.17.07s.13-.03.17-.07c.09-.09.09-.25,0-.34-.05-.05-.11-.07-.17-.07Zm.06.3s-.08.03-.11,0c-.02-.02-.02-.04-.02-.06s0-.04.02-.06c.02-.02.04-.02.06-.02s.04,0,.06.02c.03.03.03.08,0,.11Z"/>
  </g>
</svg>