<?xml version="1.0" encoding="UTF-8"?>
<svg id="Layer_1" data-name="Layer 1" xmlns="http://www.w3.org/2000/svg" xmlns:xlink="http://www.w3.org/1999/xlink" viewBox="0 0 8.5 8.5">
  <defs>
    <style>
      .cls-1 {
        fill: url(#Degradado_sin_nombre_10);
      }

      .cls-1, .cls-2 {
        stroke-width: 0px;
      }

      .cls-2 {
        fill: #fff;
      }
    </style>
    <linearGradient id="Degradado_sin_nombre_10" data-name="Degradado sin nombre 10" x1=".25" y1="4.25" x2="8.25" y2="4.25" gradientUnits="userSpaceOnUse">
      <stop offset="0" stop-color="#007bb8"/>
      <stop offset="1" stop-color="#0044e9"/>
    </linearGradient>
  </defs>
  <path class="cls-2" d="m4.67,3.45v.69s.02.05.05.05h.99s.05.02.05.05v1.07s-.02.05-.05.05h-.99s-.05.02-.05.05v2.47s-.02.05-.05.05h-1.08s-.05-.02-.05-.05v-2.47s-.02-.05-.05-.05h-.75s-.05-.02-.05-.05v-1.07s.02-.05.05-.05h.75s.05-.02.05-.05v-1.06c0-.29.12-.56.31-.75.19-.19.46-.31.75-.31h1.27s.05.02.05.05v.96s-.02.05-.05.05h-.77c-.21,0-.38.17-.38.38Z"/>
  <circle class="cls-1" cx="4.25" cy="4.25" r="4"/>
  <path class="cls-2" d="m2.57,3.58h.77v2.49h-.77v-2.49Zm.39-1.24c.25,0,.45.2.45.45s-.2.45-.45.45-.45-.2-.45-.45.2-.45.45-.45"/>
  <path class="cls-2" d="m3.83,3.58h.74v.34h.01c.1-.2.36-.4.73-.4.78,0,.93.52.93,1.19v1.36h-.77v-1.21c0-.29,0-.66-.4-.66s-.46.31-.46.64v1.23h-.77v-2.49Z"/>
</svg>