<?xml version="1.0" encoding="UTF-8"?>
<svg id="Layer_1" data-name="Layer 1" xmlns="http://www.w3.org/2000/svg" viewBox="0 0 8.5 8.5">
  <defs>
    <style>
      .cls-1 {
        fill: #fff;
      }

      .cls-1, .cls-2 {
        stroke-width: 0px;
      }

      .cls-2 {
        fill: #0068ff;
      }
    </style>
  </defs>
  <rect class="cls-2" x=".26" y=".3" width="7.92" height="7.92" rx="3.25" ry="3.25"/>
  <path class="cls-1" d="m1.71,6.12s.05.08.07.16c.05.17.02.33,0,.39-.06.15-.12.28-.2.38-.08.09-.14.14-.12.16s.1.03.2.03c.1,0,.38-.03.54-.07.16-.04.33-.1.37-.12.04-.02.11-.05.11-.05,0,0,.3.16.47.22.23.08.47.16.78.23.55.11,1.14.22,1.9.12.44-.06.87-.11,1.32-.41.38-.26.6-.57.66-.67.05-.07.22-.35.32-.75.04-.15.05-.28.07-.52.05-.54.04-.95.03-1.33,0-.32-.02-.48-.03-.63-.03-.31-.08-.49-.1-.55-.04-.16-.09-.29-.13-.4-.06-.14-.14-.33-.28-.54-.1-.15-.24-.34-.45-.55-.07-.07-.26-.25-.54-.43-.09-.06-.25-.16-.47-.25-.07-.03-.29-.12-.6-.18-.23-.05-.42-.06-.66-.07-.11,0-.21,0-.4,0-.08,0-.24,0-.45,0-.1,0-.33,0-.48,0-.3.01-.59.02-.85.1-.41.12-.66.38-.88.62-.1.11-.43.48-.66,1.08-.22.55-.24,1.01-.26,1.32h0c0,.43,0,.91.14,1.41.05.17.13.48.31.78.1.17.19.36.29.54Z"/>
  <path class="cls-2" d="m1.88,3.01v.32h1.07l-1.04,1.3s-.06.06-.06.13,0,.16,0,.16h1.44s.1,0,.12-.07.02-.24.02-.24h-1.12s.95-1.2.95-1.2c0,0,.12-.13.14-.22s.02-.19.02-.19h-1.54Z"/>
  <path class="cls-2" d="m5.28,3v1.81s0,.04.02.06c0,0,0,.01.02.02.02.01.03.02.05.02.06.01.24,0,.24,0h0v-1.91h-.33Z"/>
  <path class="cls-2" d="m6.57,3.39c-.42,0-.76.34-.76.76s.34.76.76.76.76-.34.76-.76-.34-.76-.76-.76Zm0,1.21c-.24,0-.44-.2-.44-.44s.2-.44.44-.44.44.2.44.44-.2.44-.44.44Z"/>
  <path class="cls-2" d="m4.72,3.56s-.17-.12-.33-.13c-.16-.01-.3,0-.4.05-.17.08-.27.19-.29.22-.12.15-.14.31-.15.38-.02.19.03.33.04.37.02.06.09.21.25.33.02.01.08.06.17.09.14.05.25.05.28.05.03,0,.14,0,.26-.06,0,0,.02,0,.17-.08,0,.02,0,.06.05.09.02.02.05.03.06.03.01,0,.03,0,.1,0,.06,0,.11,0,.11,0v-1.45h-.31v.1Zm-.44,1.05c-.24,0-.44-.2-.44-.44s.2-.44.44-.44.44.2.44.44-.2.44-.44.44Z"/>
</svg>