<?xml version="1.0" encoding="UTF-8"?>
<svg id="Layer_1" data-name="Layer 1" xmlns="http://www.w3.org/2000/svg" viewBox="0 0 32.5 32.5">
  <defs>
    <style>
      .cls-1 {
        fill: #fff;
        fill-rule: evenodd;
      }

      .cls-2 {
        font-size: 3.18px;
      }

      .cls-2, .cls-3 {
        font-family: Roboto-Bold, Roboto;
        font-weight: 700;
      }

      .cls-2, .cls-3, .cls-4 {
        fill: #333;
      }

      .cls-3 {
        font-size: 3.18px;
      }

      .cls-5 {
        fill: #3d9d32;
      }
    </style>
  </defs>
  <circle class="cls-5" cx="16.25" cy="16.25" r="11.74"/>
  <g>
    <polygon class="cls-1" points="12 15.54 9.48 18.06 6.62 15.21 13.1 8.73 15.89 11.53 15.89 23.87 12.01 23.87 12 15.54"/>
    <polygon class="cls-1" points="16.5 23.87 20.5 23.87 20.5 15.48 23.02 18.01 25.88 15.15 19.35 8.63 16.5 11.48 16.5 23.87"/>
  </g>
  <text class="cls-2" transform="translate(8.11 26.23) rotate(-136.04)"><tspan x="0" y="0">G</tspan></text>
  <text class="cls-2" transform="translate(6.41 24.54) rotate(-126.32)"><tspan x="0" y="0">L</tspan></text>
  <text class="cls-2" transform="translate(5.31 23.05) rotate(-116.95)"><tspan x="0" y="0">O</tspan></text>
  <text class="cls-2" transform="translate(4.24 20.89) rotate(-106.53)"><tspan x="0" y="0">B</tspan></text>
  <text class="cls-2" transform="translate(3.61 18.75) rotate(-96.43)"><tspan x="0" y="0">A</tspan></text>
  <text class="cls-2" transform="translate(3.39 16.39) rotate(-86.86)"><tspan x="0" y="0">L</tspan></text>
  <text class="cls-2" transform="translate(3.54 14.43) rotate(-80.13)"><tspan x="0" y="0"> </tspan></text>
  <text class="cls-2" transform="translate(3.68 13.4) rotate(-72.36)"><tspan x="0" y="0">O</tspan></text>
  <text class="cls-2" transform="translate(4.44 11.12) rotate(-61.96)"><tspan x="0" y="0">R</tspan></text>
  <text class="cls-2" transform="translate(5.51 9.14) rotate(-51.66)"><tspan x="0" y="0">G</tspan></text>
  <text class="cls-2" transform="translate(7.01 7.28) rotate(-41.16)"><tspan x="0" y="0">A</tspan></text>
  <text class="cls-2" transform="translate(8.77 5.75) rotate(-30.47)"><tspan x="0" y="0">N</tspan></text>
  <text class="cls-2" transform="translate(10.95 4.55) rotate(-22.23)"><tspan x="0" y="0">I</tspan></text>
  <text class="cls-2" transform="translate(12.02 4.08) rotate(-14.46)"><tspan x="0" y="0">C</tspan></text>
  <text class="cls-2" transform="translate(14.28 3.56) rotate(-7.02)"><tspan x="0" y="0"> </tspan></text>
  <text class="cls-2" transform="translate(15.21 3.42) rotate(-.27)"><tspan x="0" y="0">T</tspan></text>
  <text class="cls-2" transform="translate(17.43 3.44) rotate(9.18)"><tspan x="0" y="0">E</tspan></text>
  <text class="cls-2" transform="translate(19.39 3.76) rotate(18.61)"><tspan x="0" y="0">X</tspan></text>
  <text class="cls-2" transform="translate(21.51 4.5) rotate(28.58)"><tspan x="0" y="0">T</tspan></text>
  <text class="cls-2" transform="translate(23.44 5.61) rotate(36.17)"><tspan x="0" y="0">I</tspan></text>
  <text class="cls-2" transform="translate(24.39 6.29) rotate(43.05)"><tspan x="0" y="0">L</tspan></text>
  <text class="cls-2" transform="translate(25.8 7.63) rotate(51.88)"><tspan x="0" y="0">E</tspan></text>
  <text class="cls-2" transform="translate(27.03 9.27) rotate(58.83)"><tspan x="0" y="0"> </tspan></text>
  <text class="cls-2" transform="translate(27.58 10.13) rotate(66.02)"><tspan x="0" y="0">S</tspan></text>
  <text class="cls-2" transform="translate(28.44 12.12) rotate(75.7)"><tspan x="0" y="0">T</tspan></text>
  <text class="cls-2" transform="translate(28.94 14.07) rotate(85.03)"><tspan x="0" y="0">A</tspan></text>
  <text class="cls-2" transform="translate(29.13 16.42) rotate(95.74)"><tspan x="0" y="0">N</tspan></text>
  <text class="cls-2" transform="translate(28.86 18.87) rotate(106.33)"><tspan x="0" y="0">D</tspan></text>
  <text class="cls-2" transform="translate(28.21 21.03) rotate(116.62)"><tspan x="0" y="0">A</tspan></text>
  <text class="cls-2" transform="translate(27.15 23.1) rotate(126.71)"><tspan x="0" y="0">R</tspan></text>
  <text class="cls-2" transform="translate(25.78 24.9) rotate(136.76)"><tspan x="0" y="0">D</tspan></text>
  <text class="cls-3" transform="translate(11.1 30.97) rotate(15.37)"><tspan x="0" y="0">G</tspan></text>
  <text class="cls-3" transform="translate(13.87 31.66) rotate(4.78)"><tspan x="0" y="0">O</tspan></text>
  <text class="cls-3" transform="translate(16.55 31.84) rotate(-4.75)"><tspan x="0" y="0">T</tspan></text>
  <text class="cls-3" transform="translate(19.13 31.57) rotate(-14.27)"><tspan x="0" y="0">S</tspan></text>
  <circle class="cls-4" cx="9.26" cy="28.66" r=".22"/>
  <circle class="cls-4" cx="22.97" cy="28.55" r=".22"/>
</svg>