<?xml version="1.0" encoding="UTF-8"?>
<svg id="Layer_1" data-name="Layer 1" xmlns="http://www.w3.org/2000/svg" viewBox="0 0 32.5 32.5">
  <defs>
    <style>
      .cls-1 {
        fill: #0853a4;
        font-family: Roboto-Black, Roboto;
        font-size: 3.21px;
        font-weight: 800;
      }

      .cls-2 {
        fill: #0055a6;
        font-family: Baskerville-Bold, Baskerville;
        font-size: 12.38px;
        font-weight: 700;
      }

      .cls-3 {
        fill: none;
        stroke: #0055a6;
        stroke-linecap: round;
        stroke-linejoin: round;
        stroke-width: .31px;
      }

      .cls-4 {
        fill: #0156a5;
        font-family: Roboto-Regular, Roboto;
        font-size: 3.21px;
      }
    </style>
  </defs>
  <text class="cls-2" transform="translate(5.02 20.81)"><tspan x="0" y="0">ISO</tspan></text>
  <g>
    <g>
      <g>
        <path class="cls-3" d="M8.81,11.2s1.07-1.53,3.06-2.75c.27-.16,1.09-.61,2.25-.93,1.92-.53,3.41-.34,3.71-.3h0c.35.05,1.92.29,3.63,1.3,1.49.88,2.47,1.96,3.02,2.67"/>
        <path class="cls-3" d="M14.16,7.53c.24.18,1.3.94,2.75.76.99-.12,1.67-.61,1.95-.84"/>
        <path class="cls-3" d="M14.64,7.83c-1.12.68-1.86,1.38-2.35,1.92-.47.52-1.78,2.14-1.34,1.6h0"/>
        <path class="cls-3" d="M15.5,8.22c-.34.4-.72.91-1.07,1.53-.07.13-.41.73-.73,1.58,0,.01,0,.02,0,.02"/>
        <path class="cls-3" d="M18.46,7.83c1.11.52,1.81,1.14,2.24,1.61.65.71,1.41,1.87,1.44,1.91h0"/>
        <path class="cls-3" d="M17.53,8.19c.39.42.68.8.88,1.1.74,1.08.95,1.86,1,2.06,0,0,0,0,0,0"/>
        <line class="cls-3" x1="16.57" y1="8.32" x2="16.57" y2="11.35"/>
        <path class="cls-3" d="M10.88,9.13c.93.59,2.55,1.43,4.65,1.61.24.02,1.41.11,2.9-.15.49-.09,1.23-.22,2.14-.61.71-.3,1.26-.65,1.65-.92"/>
      </g>
      <g>
        <path class="cls-3" d="M8.81,21.78s1.07,1.53,3.06,2.75c.27.16,1.09.61,2.25.93,1.92.53,3.41.34,3.71.3h0c.35-.05,1.92-.29,3.63-1.3,1.49-.88,2.47-1.96,3.02-2.67"/>
        <path class="cls-3" d="M14.16,25.45c.24-.18,1.3-.94,2.75-.76.99.12,1.67.61,1.95.84"/>
        <path class="cls-3" d="M14.64,25.16c-1.12-.68-1.86-1.38-2.35-1.92-.47-.52-1.78-2.14-1.34-1.6h0"/>
        <path class="cls-3" d="M15.5,24.77c-.34-.4-.72-.91-1.07-1.53-.07-.13-.41-.73-.73-1.58,0-.01,0-.02,0-.02"/>
        <path class="cls-3" d="M18.46,25.16c1.11-.52,1.81-1.14,2.24-1.61.65-.71,1.41-1.87,1.44-1.91h0"/>
        <path class="cls-3" d="M17.53,24.79c.39-.42.68-.8.88-1.1.74-1.08.95-1.86,1-2.06,0,0,0,0,0,0"/>
        <line class="cls-3" x1="16.57" y1="24.67" x2="16.57" y2="21.63"/>
        <path class="cls-3" d="M10.88,23.85c.93-.59,2.55-1.43,4.65-1.61.24-.02,1.41-.11,2.9.15.49.09,1.23.22,2.14.61.71.3,1.26.65,1.65.92"/>
      </g>
      <text class="cls-1" transform="translate(11.78 30.38)"><tspan x="0" y="0">14001</tspan></text>
    </g>
    <text class="cls-4" transform="translate(6.98 26.71) rotate(-133.98)"><tspan x="0" y="0">I</tspan></text>
    <text class="cls-4" transform="translate(6.39 26.13) rotate(-128.54)"><tspan x="0" y="0">n</tspan></text>
    <text class="cls-4" transform="translate(5.35 24.8) rotate(-122.79)"><tspan x="0" y="0">t</tspan></text>
    <text class="cls-4" transform="translate(4.79 23.98) rotate(-117.09)"><tspan x="0" y="0">e</tspan></text>
    <text class="cls-4" transform="translate(4.06 22.51) rotate(-111.29)"><tspan x="0" y="0">r</tspan></text>
    <text class="cls-4" transform="translate(3.66 21.55) rotate(-105.37)"><tspan x="0" y="0">n</tspan></text>
    <text class="cls-4" transform="translate(3.21 19.92) rotate(-98.14)"><tspan x="0" y="0">a</tspan></text>
    <text class="cls-4" transform="translate(2.99 18.27) rotate(-92.5)"><tspan x="0" y="0">t</tspan></text>
    <text class="cls-4" transform="translate(2.95 17.26) rotate(-88.74)"><tspan x="0" y="0">i</tspan></text>
    <text class="cls-4" transform="translate(2.94 16.5) rotate(-83.26)"><tspan x="0" y="0">o</tspan></text>
    <text class="cls-4" transform="translate(3.14 14.76) rotate(-75.86)"><tspan x="0" y="0">n</tspan></text>
    <text class="cls-4" transform="translate(3.54 13.14) rotate(-68.71)"><tspan x="0" y="0">a</tspan></text>
    <text class="cls-4" transform="translate(4.18 11.56) rotate(-63.42)"><tspan x="0" y="0">l</tspan></text>
    <text class="cls-4" transform="translate(4.51 10.89) rotate(-60.13)"><tspan x="0" y="0"> </tspan></text>
    <text class="cls-4" transform="translate(4.84 10.24) rotate(-53.94)"><tspan x="0" y="0">O</tspan></text>
    <text class="cls-4" transform="translate(6.11 8.54) rotate(-47.25)"><tspan x="0" y="0">r</tspan></text>
    <text class="cls-4" transform="translate(6.78 7.78) rotate(-41.43)"><tspan x="0" y="0">g</tspan></text>
    <text class="cls-4" transform="translate(8.09 6.62) rotate(-34.04)"><tspan x="0" y="0">a</tspan></text>
    <text class="cls-4" transform="translate(9.46 5.69) rotate(-26.82)"><tspan x="0" y="0">n</tspan></text>
    <text class="cls-4" transform="translate(11.01 4.93) rotate(-21.46)"><tspan x="0" y="0">i</tspan></text>
    <text class="cls-4" transform="translate(11.68 4.65) rotate(-16.58)"><tspan x="0" y="0">z</tspan></text>
    <text class="cls-4" transform="translate(13.14 4.2) rotate(-9.68)"><tspan x="0" y="0">a</tspan></text>
    <text class="cls-4" transform="translate(14.79 3.93) rotate(-4.04)"><tspan x="0" y="0">t</tspan></text>
    <text class="cls-4" transform="translate(15.8 3.87) rotate(-.28)"><tspan x="0" y="0">i</tspan></text>
    <text class="cls-4" transform="translate(16.51 3.84) rotate(5.01)"><tspan x="0" y="0">o</tspan></text>
    <text class="cls-4" transform="translate(18.26 3.99) rotate(12.4)"><tspan x="0" y="0">n</tspan></text>
    <text class="cls-4" transform="translate(19.94 4.38) rotate(17.78)"><tspan x="0" y="0"> </tspan></text>
    <text class="cls-4" transform="translate(20.68 4.61) rotate(21.81)"><tspan x="0" y="0">f</tspan></text>
    <text class="cls-4" transform="translate(21.64 4.97) rotate(27.82)"><tspan x="0" y="0">o</tspan></text>
    <text class="cls-4" transform="translate(23.21 5.81) rotate(33.9)"><tspan x="0" y="0">r</tspan></text>
    <text class="cls-4" transform="translate(24.07 6.4) rotate(37.78)"><tspan x="0" y="0"> </tspan></text>
    <text class="cls-4" transform="translate(24.68 6.83) rotate(43.28)"><tspan x="0" y="0">S</tspan></text>
    <text class="cls-4" transform="translate(26 8.1) rotate(49.28)"><tspan x="0" y="0">t</tspan></text>
    <text class="cls-4" transform="translate(26.66 8.84) rotate(55.05)"><tspan x="0" y="0">a</tspan></text>
    <text class="cls-4" transform="translate(27.63 10.21) rotate(62.37)"><tspan x="0" y="0">n</tspan></text>
    <text class="cls-4" transform="translate(28.42 11.7) rotate(69.76)"><tspan x="0" y="0">d</tspan></text>
    <text class="cls-4" transform="translate(29.02 13.34) rotate(77.13)"><tspan x="0" y="0">a</tspan></text>
    <text class="cls-4" transform="translate(29.38 14.97) rotate(82.88)"><tspan x="0" y="0">r</tspan></text>
    <text class="cls-4" transform="translate(29.53 15.96) rotate(88.69)"><tspan x="0" y="0">d</tspan></text>
    <text class="cls-4" transform="translate(29.54 17.71) rotate(93.99)"><tspan x="0" y="0">i</tspan></text>
    <text class="cls-4" transform="translate(29.51 18.46) rotate(98.96)"><tspan x="0" y="0">z</tspan></text>
    <text class="cls-4" transform="translate(29.28 19.97) rotate(105.87)"><tspan x="0" y="0">a</tspan></text>
    <text class="cls-4" transform="translate(28.81 21.59) rotate(111.63)"><tspan x="0" y="0">t</tspan></text>
    <text class="cls-4" transform="translate(28.44 22.5) rotate(115.34)"><tspan x="0" y="0">i</tspan></text>
    <text class="cls-4" transform="translate(28.15 23.19) rotate(120.85)"><tspan x="0" y="0">o</tspan></text>
    <text class="cls-4" transform="translate(27.26 24.68) rotate(128.23)"><tspan x="0" y="0">n</tspan></text>
  </g>
</svg>