<?xml version="1.0" encoding="UTF-8"?>
<svg id="Layer_1" data-name="Layer 1" xmlns="http://www.w3.org/2000/svg" viewBox="0 0 32.5 32.5">
  <defs>
    <style>
      .cls-1 {
        fill: #0853a4;
        font-family: Roboto-Black, Roboto;
        font-size: 3.21px;
        font-weight: 800;
      }

      .cls-2 {
        fill: #0055a6;
        font-family: Baskerville-Bold, Baskerville;
        font-size: 12.38px;
        font-weight: 700;
      }

      .cls-3 {
        fill: none;
        stroke: #0055a6;
        stroke-linecap: round;
        stroke-linejoin: round;
        stroke-width: .31px;
      }

      .cls-4 {
        fill: #0156a5;
        font-family: Roboto-Regular, Roboto;
        font-size: 3.21px;
      }
    </style>
  </defs>
  <g>
    <text class="cls-2" transform="translate(5.17 20.81)"><tspan x="0" y="0">ISO</tspan></text>
    <g>
      <path class="cls-3" d="M8.5,11.2s1.07-1.53,3.06-2.75c.27-.16,1.09-.61,2.25-.93,1.92-.53,3.41-.34,3.71-.3h0c.35.05,1.92.29,3.63,1.3,1.49.88,2.47,1.96,3.02,2.67"/>
      <path class="cls-3" d="M13.85,7.53c.24.18,1.3.94,2.75.76.99-.12,1.67-.61,1.95-.84"/>
      <path class="cls-3" d="M14.32,7.83c-1.12.68-1.86,1.38-2.35,1.92-.47.52-1.78,2.14-1.34,1.6h0"/>
      <path class="cls-3" d="M15.18,8.22c-.34.4-.72.91-1.07,1.53-.07.13-.41.73-.73,1.58,0,.01,0,.02,0,.02"/>
      <path class="cls-3" d="M18.14,7.83c1.11.52,1.81,1.14,2.24,1.61.65.71,1.41,1.87,1.44,1.91h0"/>
      <path class="cls-3" d="M17.21,8.19c.39.42.68.8.88,1.1.74,1.08.95,1.86,1,2.06,0,0,0,0,0,0"/>
      <line class="cls-3" x1="16.25" y1="8.32" x2="16.25" y2="11.35"/>
      <path class="cls-3" d="M10.57,9.13c.93.59,2.55,1.43,4.65,1.61.24.02,1.41.11,2.9-.15.49-.09,1.23-.22,2.14-.61.71-.3,1.26-.65,1.65-.92"/>
    </g>
    <g>
      <path class="cls-3" d="M8.5,21.78s1.07,1.53,3.06,2.75c.27.16,1.09.61,2.25.93,1.92.53,3.41.34,3.71.3h0c.35-.05,1.92-.29,3.63-1.3,1.49-.88,2.47-1.96,3.02-2.67"/>
      <path class="cls-3" d="M13.85,25.45c.24-.18,1.3-.94,2.75-.76.99.12,1.67.61,1.95.84"/>
      <path class="cls-3" d="M14.32,25.16c-1.12-.68-1.86-1.38-2.35-1.92-.47-.52-1.78-2.14-1.34-1.6h0"/>
      <path class="cls-3" d="M15.18,24.77c-.34-.4-.72-.91-1.07-1.53-.07-.13-.41-.73-.73-1.58,0-.01,0-.02,0-.02"/>
      <path class="cls-3" d="M18.14,25.16c1.11-.52,1.81-1.14,2.24-1.61.65-.71,1.41-1.87,1.44-1.91h0"/>
      <path class="cls-3" d="M17.21,24.79c.39-.42.68-.8.88-1.1.74-1.08.95-1.86,1-2.06,0,0,0,0,0,0"/>
      <line class="cls-3" x1="16.25" y1="24.67" x2="16.25" y2="21.63"/>
      <path class="cls-3" d="M10.57,23.85c.93-.59,2.55-1.43,4.65-1.61.24-.02,1.41-.11,2.9.15.49.09,1.23.22,2.14.61.71.3,1.26.65,1.65.92"/>
    </g>
    <text class="cls-1" transform="translate(12.47 30.38)"><tspan x="0" y="0">27001</tspan></text>
  </g>
  <text class="cls-4" transform="translate(7.06 26.71) rotate(-133.98)"><tspan x="0" y="0">I</tspan></text>
  <text class="cls-4" transform="translate(6.47 26.13) rotate(-128.54)"><tspan x="0" y="0">n</tspan></text>
  <text class="cls-4" transform="translate(5.43 24.8) rotate(-122.79)"><tspan x="0" y="0">t</tspan></text>
  <text class="cls-4" transform="translate(4.87 23.98) rotate(-117.09)"><tspan x="0" y="0">e</tspan></text>
  <text class="cls-4" transform="translate(4.14 22.51) rotate(-111.29)"><tspan x="0" y="0">r</tspan></text>
  <text class="cls-4" transform="translate(3.74 21.55) rotate(-105.37)"><tspan x="0" y="0">n</tspan></text>
  <text class="cls-4" transform="translate(3.29 19.92) rotate(-98.14)"><tspan x="0" y="0">a</tspan></text>
  <text class="cls-4" transform="translate(3.07 18.27) rotate(-92.5)"><tspan x="0" y="0">t</tspan></text>
  <text class="cls-4" transform="translate(3.03 17.26) rotate(-88.74)"><tspan x="0" y="0">i</tspan></text>
  <text class="cls-4" transform="translate(3.02 16.5) rotate(-83.26)"><tspan x="0" y="0">o</tspan></text>
  <text class="cls-4" transform="translate(3.22 14.76) rotate(-75.86)"><tspan x="0" y="0">n</tspan></text>
  <text class="cls-4" transform="translate(3.62 13.14) rotate(-68.71)"><tspan x="0" y="0">a</tspan></text>
  <text class="cls-4" transform="translate(4.26 11.56) rotate(-63.42)"><tspan x="0" y="0">l</tspan></text>
  <text class="cls-4" transform="translate(4.59 10.89) rotate(-60.13)"><tspan x="0" y="0"> </tspan></text>
  <text class="cls-4" transform="translate(4.92 10.24) rotate(-53.94)"><tspan x="0" y="0">O</tspan></text>
  <text class="cls-4" transform="translate(6.19 8.54) rotate(-47.25)"><tspan x="0" y="0">r</tspan></text>
  <text class="cls-4" transform="translate(6.86 7.78) rotate(-41.43)"><tspan x="0" y="0">g</tspan></text>
  <text class="cls-4" transform="translate(8.17 6.62) rotate(-34.04)"><tspan x="0" y="0">a</tspan></text>
  <text class="cls-4" transform="translate(9.54 5.69) rotate(-26.82)"><tspan x="0" y="0">n</tspan></text>
  <text class="cls-4" transform="translate(11.09 4.93) rotate(-21.46)"><tspan x="0" y="0">i</tspan></text>
  <text class="cls-4" transform="translate(11.76 4.65) rotate(-16.58)"><tspan x="0" y="0">z</tspan></text>
  <text class="cls-4" transform="translate(13.22 4.2) rotate(-9.68)"><tspan x="0" y="0">a</tspan></text>
  <text class="cls-4" transform="translate(14.87 3.93) rotate(-4.04)"><tspan x="0" y="0">t</tspan></text>
  <text class="cls-4" transform="translate(15.88 3.87) rotate(-.28)"><tspan x="0" y="0">i</tspan></text>
  <text class="cls-4" transform="translate(16.59 3.84) rotate(5.01)"><tspan x="0" y="0">o</tspan></text>
  <text class="cls-4" transform="translate(18.34 3.99) rotate(12.4)"><tspan x="0" y="0">n</tspan></text>
  <text class="cls-4" transform="translate(20.03 4.38) rotate(17.78)"><tspan x="0" y="0"> </tspan></text>
  <text class="cls-4" transform="translate(20.76 4.61) rotate(21.81)"><tspan x="0" y="0">f</tspan></text>
  <text class="cls-4" transform="translate(21.72 4.97) rotate(27.82)"><tspan x="0" y="0">o</tspan></text>
  <text class="cls-4" transform="translate(23.29 5.81) rotate(33.9)"><tspan x="0" y="0">r</tspan></text>
  <text class="cls-4" transform="translate(24.15 6.4) rotate(37.78)"><tspan x="0" y="0"> </tspan></text>
  <text class="cls-4" transform="translate(24.76 6.83) rotate(43.28)"><tspan x="0" y="0">S</tspan></text>
  <text class="cls-4" transform="translate(26.08 8.1) rotate(49.28)"><tspan x="0" y="0">t</tspan></text>
  <text class="cls-4" transform="translate(26.74 8.84) rotate(55.05)"><tspan x="0" y="0">a</tspan></text>
  <text class="cls-4" transform="translate(27.71 10.21) rotate(62.37)"><tspan x="0" y="0">n</tspan></text>
  <text class="cls-4" transform="translate(28.5 11.7) rotate(69.76)"><tspan x="0" y="0">d</tspan></text>
  <text class="cls-4" transform="translate(29.1 13.34) rotate(77.13)"><tspan x="0" y="0">a</tspan></text>
  <text class="cls-4" transform="translate(29.46 14.97) rotate(82.88)"><tspan x="0" y="0">r</tspan></text>
  <text class="cls-4" transform="translate(29.61 15.96) rotate(88.69)"><tspan x="0" y="0">d</tspan></text>
  <text class="cls-4" transform="translate(29.62 17.71) rotate(93.99)"><tspan x="0" y="0">i</tspan></text>
  <text class="cls-4" transform="translate(29.59 18.46) rotate(98.96)"><tspan x="0" y="0">z</tspan></text>
  <text class="cls-4" transform="translate(29.36 19.97) rotate(105.87)"><tspan x="0" y="0">a</tspan></text>
  <text class="cls-4" transform="translate(28.89 21.59) rotate(111.63)"><tspan x="0" y="0">t</tspan></text>
  <text class="cls-4" transform="translate(28.52 22.5) rotate(115.34)"><tspan x="0" y="0">i</tspan></text>
  <text class="cls-4" transform="translate(28.23 23.19) rotate(120.85)"><tspan x="0" y="0">o</tspan></text>
  <text class="cls-4" transform="translate(27.34 24.68) rotate(128.23)"><tspan x="0" y="0">n</tspan></text>
</svg>