<?xml version="1.0" encoding="UTF-8"?>
<svg id="Layer_1" data-name="Layer 1" xmlns="http://www.w3.org/2000/svg" viewBox="0 0 33 33">
  <defs>
    <style>
      .cls-1 {
        fill: none;
        stroke: #1a1a1a;
        stroke-miterlimit: 10;
        stroke-width: .11px;
      }

      .cls-2 {
        fill: #ffd709;
      }

      .cls-3 {
        fill: #a94828;
      }

      .cls-4 {
        fill: #007939;
        letter-spacing: 0em;
      }

      .cls-5 {
        fill: #fbaf12;
        letter-spacing: 0em;
      }

      .cls-6 {
        fill: #ed1c24;
        font-family: Roboto-Bold, Roboto;
        font-size: 1.29px;
      }

      .cls-6, .cls-7 {
        font-weight: 700;
      }

      .cls-8 {
        letter-spacing: -.01em;
      }

      .cls-9 {
        letter-spacing: -.03em;
      }

      .cls-7 {
        font-family: AcuminConcept-Bold, 'Acumin Variable Concept';
        font-size: 9.44px;
        font-variation-settings: 'wght' 700, 'wdth' 100, 'slnt' 0;
      }

      .cls-10 {
        fill: #015ebf;
        letter-spacing: 0em;
      }

      .cls-11 {
        letter-spacing: 0em;
      }

      .cls-12 {
        letter-spacing: .01em;
      }
    </style>
  </defs>
  <rect class="cls-1" x=".42" y="5.26" width="32.15" height="22.49"/>
  <g>
    <text class="cls-7" transform="translate(2.84 16.7)"><tspan class="cls-3" x="0" y="0">O</tspan><tspan class="cls-4" x="7.22" y="0">C</tspan><tspan class="cls-10" x="13.93" y="0">O</tspan><tspan class="cls-5" x="21.15" y="0">P</tspan></text>
    <text class="cls-6" transform="translate(3.23 18.78)"><tspan x="0" y="0">ONE COMMUNE ONE PRODU</tspan><tspan class="cls-8" x="16.74" y="0">C</tspan><tspan class="cls-9" x="17.57" y="0">T</tspan><tspan x="18.33" y="0" xml:space="preserve"> OF VI</tspan><tspan class="cls-12" x="21.79" y="0">E</tspan><tspan class="cls-9" x="22.53" y="0">T</tspan><tspan x="23.29" y="0"> </tspan><tspan class="cls-11" x="23.61" y="0">N</tspan><tspan x="24.53" y="0">AM</tspan></text>
    <g>
      <polygon class="cls-2" points="7.9 19.4 8.51 21.29 10.49 21.29 8.89 22.46 9.5 24.34 7.9 23.18 6.3 24.34 6.91 22.46 5.3 21.29 7.29 21.29 7.9 19.4"/>
      <polygon class="cls-2" points="13.75 19.4 14.36 21.29 16.34 21.29 14.74 22.46 15.35 24.34 13.75 23.18 12.14 24.34 12.75 22.46 11.15 21.29 13.13 21.29 13.75 19.4"/>
      <polygon class="cls-2" points="19.48 19.4 20.09 21.29 22.07 21.29 20.47 22.46 21.08 24.34 19.48 23.18 17.88 24.34 18.49 22.46 16.88 21.29 18.87 21.29 19.48 19.4"/>
      <polygon class="cls-2" points="25.1 19.4 25.71 21.29 27.7 21.29 26.09 22.46 26.7 24.34 25.1 23.18 23.5 24.34 24.11 22.46 22.51 21.29 24.49 21.29 25.1 19.4"/>
    </g>
  </g>
</svg>