<?xml version="1.0" encoding="UTF-8"?>
<svg id="Layer_1" data-name="Layer 1" xmlns="http://www.w3.org/2000/svg" viewBox="0 0 33 33">
  <defs>
    <style>
      .cls-1 {
        fill: none;
        stroke: #fff;
        stroke-miterlimit: 10;
        stroke-width: .09px;
      }

      .cls-2 {
        font-size: 1.42px;
        letter-spacing: .1em;
      }

      .cls-2, .cls-3 {
        font-family: Roboto-Bold, Roboto;
      }

      .cls-2, .cls-3, .cls-4 {
        font-weight: 700;
      }

      .cls-2, .cls-4 {
        fill: #fff;
      }

      .cls-5 {
        fill: #1fa080;
      }

      .cls-3 {
        font-size: 3.78px;
      }

      .cls-6 {
        letter-spacing: .09em;
      }

      .cls-7 {
        letter-spacing: .1em;
      }

      .cls-8 {
        letter-spacing: .1em;
      }

      .cls-9 {
        letter-spacing: .07em;
      }

      .cls-10 {
        letter-spacing: .04em;
      }

      .cls-4 {
        font-family: AsapCondensed-Bold, 'Asap Condensed';
        font-size: 5.35px;
      }
    </style>
  </defs>
  <path class="cls-5" d="M26.24,1.13c-3.96.16-6.92.15-8.95.11-.73-.02-1.51-.04-2.56.16-.96.18-3.63.73-5.71,3.12-2.01,2.31-2.21,4.9-2.27,5.84-.05.78-.14,2.44.67,4.33.8,1.88,2.05,2.95,2.68,3.48,1.42,1.19,2.79,1.7,3.3,1.87,2.25.76,4.18.51,4.99.36.9-.17,3.37-.65,5.26-2.76,1.27-1.42,1.71-2.92,2.05-4.1.45-1.56.5-2.79.54-4.35.05-2.14.07-4.86,0-8.05Z"/>
  <text class="cls-4" transform="translate(10.2 10.88)"><tspan class="cls-7" x="0" y="0">OE</tspan><tspan class="cls-9" x="6.47" y="0">K</tspan><tspan class="cls-7" x="9.47" y="0">O</tspan><tspan class="cls-7"><tspan x="2.25" y="5.35">TEX</tspan></tspan></text>
  <g>
    <circle class="cls-1" cx="21.46" cy="13.39" r=".85"/>
    <text class="cls-2" transform="translate(21.01 13.85)"><tspan x="0" y="0">R</tspan></text>
  </g>
  <text class="cls-3" transform="translate(5.42 26.31)"><tspan class="cls-8" x="0" y="0">S</tspan><tspan class="cls-10" x="2.71" y="0">T</tspan><tspan class="cls-8" x="5.2" y="0">AN</tspan><tspan class="cls-6" x="11.18" y="0">D</tspan><tspan class="cls-8" x="13.98" y="0">ARD</tspan><tspan class="cls-8"><tspan x="7.44" y="4.54">100</tspan></tspan></text>
</svg>