<?xml version="1.0" encoding="UTF-8"?>
<svg id="Layer_1" data-name="Layer 1" xmlns="http://www.w3.org/2000/svg" viewBox="0 0 33 33">
  <defs>
    <style>
      .cls-1 {
        fill: #343399;
      }

      .cls-2 {
        fill: #62ca17;
        font-family: ArialRoundedMTBold, 'Arial Rounded MT Bold';
        font-size: 5.53px;
        stroke: #1a1a1a;
        stroke-miterlimit: 10;
        stroke-width: .03px;
      }

      .cls-3 {
        letter-spacing: -.01em;
      }

      .cls-4 {
        fill: #99cdfe;
      }

      .cls-5 {
        letter-spacing: -.04em;
      }
    </style>
  </defs>
  <g>
    <path class="cls-4" d="M1,12.84c.19-.22.52-.57.97-.96,1.93-1.68,4.1-2.23,5.39-2.54.45-.11,1.13-.25,1.98-.36-.3.19-.74.5-1.17.97-.08.09-.24.27-.71.91-.18.24-.32.44-.91,1.32,0,0-1.73,0-2.54.1s-3,.55-3,.55Z"/>
    <path class="cls-4" d="M8.83,9.19c1.07-.97,2.07-1.59,2.79-1.98.46-.25,1.07-.56,1.92-.83,1.15-.36,2.06-.4,3.01-.44.89-.04,2.1-.02,3.53.2,0,0,.99.05,3.53,1.07s5.08,2.74,5.08,2.74l3.2,2.45s-1.39.7-2.95.95c-3.19.52-5.74-.05-6.85-.36-.71-.2-2.42-.68-4.27-1.83-.59-.37-.76-.53-1.37-.85-1.31-.68-2.39-.91-3.71-1.18-1.82-.38-2.54-.31-3.05-.2-.36.07-.66.18-.86.25Z"/>
    <path class="cls-1" d="M.85,20.72c.53-.29,1.31-.66,2.29-.97.81-.25,2.91-.89,5.49-.51,1.65.25,2.8.81,4.27,1.52,2,.97,2.28,1.5,4.32,2.29.87.33,1.81.68,3.05.81.91.1,1.93.1,2.34.1h1.05s-.74.71-1.76,1.42-1.89,1.33-4.4,1.58c-2.51.25-4.44.04-6.67-.57-2.67-.73-4.53-1.94-6.71-3.35-.81-.53-1.95-1.3-3.25-2.34Z"/>
    <path class="cls-1" d="M23.51,23.97s.3-.1.91-.71,1.52-1.73,1.63-1.93l.3-.61c1.1.14,2,.08,2.64,0,.96-.12,1.75-.36,2.24-.51.38-.11.69-.22.91-.3-.5.55-1.24,1.26-2.24,1.93-.33.22-1.41.92-2.99,1.46-1.29.44-2.47.62-3.41.68Z"/>
  </g>
  <text class="cls-2" transform="translate(5.35 18.38)"><tspan class="cls-3" x="0" y="0">V</tspan><tspan x="3.73" y="0">iet</tspan><tspan class="cls-5" x="10.47" y="0">G</tspan><tspan x="14.64" y="0">AP</tspan></text>
</svg>