<?xml version="1.0" encoding="UTF-8"?>
<svg id="Layer_1" data-name="Layer 1" xmlns="http://www.w3.org/2000/svg" xmlns:xlink="http://www.w3.org/1999/xlink" viewBox="0 0 8.5 8.5">
  <defs>
    <style>
      .cls-1 {
        fill: url(#Degradado_sin_nombre_4);
      }

      .cls-1, .cls-2 {
        stroke-width: 0px;
      }

      .cls-2 {
        fill: #fff;
      }
    </style>
    <linearGradient id="Degradado_sin_nombre_4" data-name="Degradado sin nombre 4" x1=".25" y1="4.25" x2="8.25" y2="4.25" gradientUnits="userSpaceOnUse">
      <stop offset="0" stop-color="#0cf"/>
      <stop offset="1" stop-color="#0080ff"/>
    </linearGradient>
  </defs>
  <circle class="cls-1" cx="4.25" cy="4.25" r="4"/>
  <g>
    <path class="cls-2" d="m1.81,5.73l1.98-1.54-1.96-1.49s-.02.05-.02.07v2.95Z"/>
    <path class="cls-2" d="m1.99,2.6s0,0,0,0l2.11,1.6c.09.07.22.07.31,0l2.11-1.6s0,0,0,0H1.99Z"/>
    <path class="cls-2" d="m6.69,5.73v-2.95s0-.05-.02-.07l-1.96,1.49,1.98,1.54Z"/>
    <path class="cls-2" d="m6.51,5.9s.06,0,.09-.02l-2.04-1.58-.05.04c-.08.06-.17.09-.26.09s-.18-.03-.26-.09l-.05-.04-2.04,1.58s.06.02.09.02h4.52Z"/>
  </g>
</svg>