<?xml version="1.0" encoding="UTF-8"?>
<svg id="Layer_1" data-name="Layer 1" xmlns="http://www.w3.org/2000/svg" viewBox="0 0 8.5 8.5">
  <defs>
    <style>
      .cls-1 {
        fill: #fff;
      }

      .cls-1, .cls-2 {
        stroke-width: 0px;
      }

      .cls-2 {
        fill: #006af7;
      }
    </style>
  </defs>
  <circle class="cls-2" cx="4.25" cy="4.25" r="4"/>
  <path class="cls-1" d="m4.67,3.45v.69s.02.05.05.05h.99s.05.02.05.05v1.07s-.02.05-.05.05h-.99s-.05.02-.05.05v2.47s-.02.05-.05.05h-1.08s-.05-.02-.05-.05v-2.47s-.02-.05-.05-.05h-.75s-.05-.02-.05-.05v-1.07s.02-.05.05-.05h.75s.05-.02.05-.05v-1.06c0-.29.12-.56.31-.75.19-.19.46-.31.75-.31h1.27s.05.02.05.05v.96s-.02.05-.05.05h-.77c-.21,0-.38.17-.38.38Z"/>
</svg>